<svg xmlns="http://www.w3.org/2000/svg" viewBox="0 0 512 512" class="svg">
    <path class="arms" d="M101.714 496.362l17.035-78.4 16.68-67.538 77.714-16.919 51.428-8.571 34.286 8.571L376 350.648l17.143 68.571 17.143 77.143H264.57z" fill="#f44336"/>
    <path class="chest" d="M155.047 496.362l15.239-94.286 17.143-34.285 25.714-34.286 51.428-13.517 34.286 13.517 25.714 34.286 17.143 34.285 17.143 94.286h-93.334z" fill="#d32f2f"/>
    <path class="neck" d="M213.143 294.934h85.714v47.142L256 410.648l-42.857-68.572z" fill="#ffa000"/>
    <path class="head" d="M367.429 204.934l-17.143 51.428-25.715 25.714-21.428 21.429-21.429 8.571h-51.428l-21.429-8.571-21.428-21.429-25.715-30-17.143-47.142 8.572-51.429 17.143-51.429L256 84.934l85.714 17.142 17.143 51.429z" fill="#ffc107"/>
    <path class="eye eye-right" d="M230.286 172.79a17.143 19.286 0 0 1-17.143 19.286A17.143 19.286 0 0 1 196 172.791a17.143 19.286 0 0 1 17.143-19.286 17.143 19.286 0 0 1 17.143 19.286z" fill="#263238"/>
    <path class="eye eye-left" d="M316 172.79a17.143 19.286 0 0 1-17.143 19.286 17.143 19.286 0 0 1-17.143-19.285 17.143 19.286 0 0 1 17.143-19.286A17.143 19.286 0 0 1 316 172.791z" fill="#263238"/>
    <path class="ear" d="M110.286 179.22l8.571 42.856 25.714 25.715h8.572l17.143-51.429-25.715-34.286h-25.714z" fill="#ffc107"/>
    <path class="ear-hole" d="M136 222.076l8.571-8.571v-25.714L136 179.219l-8.571 17.143z" fill="#ffa000"/>
    <path class="ear" d="M401.714 179.22l-8.571 42.856-25.714 25.715h-8.572l-17.143-51.429 25.715-34.286h25.714z" fill="#ffc107"/>
    <path class="ear-hole" d="M376 222.076l-8.571-8.571v-25.714l8.571-8.572 8.571 17.143z" fill="#ffa000"/>
    <path class="hair" d="M153.143 204.934v-42.858l8.571-25.714 17.143-25.714 34.286 8.571 15.55-17.143L256 119.22l25.714-17.143 17.143 17.143 34.286-8.571 17.143 25.714 8.571 25.714.572 42.858 25.142-85.715-25.714-85.714-25.714 34.286L316 16.362l-25.714 25.714L256 16.362l-34.286 25.714L196 16.362l-17.143 51.429-25.714-34.286-25.714 85.714z" fill="#3e2723"/>
    <path class="lips" d="M221.714 256.362l4.286-8.571 30 4.285 30-4.285 4.286 8.571-22.857 17.143H244.57z" fill="#ffa000"/>
</svg>
