<svg xmlns="http://www.w3.org/2000/svg" viewBox="0 0 512 512" class="avatar-dan">
    <path d="M101.714 496.362l17.035-78.136 16.681-67.31 77.713-16.863 51.428-8.542 34.286 8.542L376 351.14l17.143 68.34 17.143 76.883H264.57z" class="arms"/>
    <path d="M155.047 496.362l15.239-93.968 17.143-34.17 25.714-34.17 51.428-13.472 34.286 13.471 25.714 34.17 17.143 34.17 17.143 93.97h-93.334z" class="chest"/>
    <path d="M213.143 295.612h85.714v46.984L256 410.936l-42.857-68.34z" class="neck"/>
    <path d="M367.429 205.915l-17.143 51.255-25.715 25.628-21.428 21.357-21.429 8.542h-51.428l-21.429-8.542-21.428-21.357-25.715-29.899-17.143-46.984 8.572-51.255 17.143-58.737L256 78.838l85.714 17.085 17.143 58.737z" class="head"/>
    <path d="M230.286 173.88a17.143 19.22 0 0 1-17.143 19.221A17.143 19.22 0 0 1 196 173.881a17.143 19.22 0 0 1 17.143-19.221 17.143 19.22 0 0 1 17.143 19.22zM316 173.88a17.143 19.22 0 0 1-17.143 19.221 17.143 19.22 0 0 1-17.143-19.22 17.143 19.22 0 0 1 17.143-19.221A17.143 19.22 0 0 1 316 173.88z" class="eye"/>
    <path d="M117.633 172.806l8.571 42.713 25.714 25.628h8.572l17.143-51.256-25.715-34.17h-25.714z" class="ear"/>
    <path d="M143.347 215.519l8.571-8.543V181.35l-8.571-8.543-8.571 17.085z" class="ear-hole"/>
    <path d="M394.367 172.806l-8.571 42.713-25.714 25.628h-8.572l-17.143-51.256 25.715-34.17h25.714z" class="ear"/>
    <path d="M368.653 215.519l-8.571-8.543V181.35l8.571-8.543 8.571 17.085z" class="ear-hole"/>
    <path d="M145.796 167.603l7.347-4.4 8.571-25.628 20.817-7.378 29.387-37.406 7.347 29.925L256 120.489l29.388 2.227 13.47-2.227 34.285-8.542 3.673 10.769 14.694 14.963v22.443l7.347 7.481 14.694-52.368-14.694-29.925-22.04-14.963 14.693-22.443-61.224-4.298L256 40.422l-34.286 3.184-24.49 4.298-18.367 21.33-25.714 16.076-14.694 29.925z" class="hair" fill-rule="evenodd"/>
    <path d="M221.714 257.17l4.286-8.542 30 4.271 30-4.271 4.286 8.542-22.857 17.086H244.57z" class="lips"/>
</svg>
