<svg xmlns="http://www.w3.org/2000/svg" viewBox="0 0 512 512" class="avatar-kelly">
    <path d="M144 216l-16 16v16l12 12-4 4v16l-16 16v16l16 16h16l16-16v-16l16-16v-16l-12-12 4-4v-16l-16-16h-16zm208 0l-16 16v16l4 4-12 12v16l16 16v16l16 16h16l16-16v-16l-16-16v-16l-4-4 12-12v-16l-16-16h-16z" class="hair" fill-rule="evenodd"/>
    <path d="M112 496l17.035-78.136 16.68-67.31 67.428-16.5 51.428-8.543 34.286 8.542 66.857 16.723 17.143 68.34L400 496l-135.429.362z" class="arms"/>
    <path d="M168 496l15.239-93.968 17.143-34.17 12.76-33.809 51.43-13.47 34.285 13.47 10.857 33.809 17.143 34.17L344 496l-78.477.362z" class="chest"/>
    <path d="M216 295.612h80v46.984L256 392l-40-49.404z" class="neck"/>
    <path d="M367.429 205.915l-17.143 51.255-25.715 25.628-21.428 21.357-21.429 8.542h-51.428l-21.429-8.542-21.428-21.357-25.715-29.899-17.143-46.984 8.572-51.255 17.143-58.737L256 78.838l85.714 17.085 17.143 58.737z" class="head"/>
    <path d="M230.286 173.88a17.143 19.22 0 0 1-17.143 19.221A17.143 19.22 0 0 1 196 173.881a17.143 19.22 0 0 1 17.143-19.221 17.143 19.22 0 0 1 17.143 19.22zM316 173.88a17.143 19.22 0 0 1-17.143 19.221 17.143 19.22 0 0 1-17.143-19.22 17.143 19.22 0 0 1 17.143-19.221A17.143 19.22 0 0 1 316 173.88z" class="eye"/>
    <path d="M124.182 175.986l7.636 35.009L154.725 232h7.636l15.272-42.01-22.908-28.008h-22.907z" class="ear"/>
    <path d="M147.09 210.995l7.635-7.002v-21.006l-7.636-7.001-7.635 14.003z" class="ear-hole"/>
    <path d="M387.818 175.985l-7.636 35.01L357.275 232h-7.636l-15.272-42.01 22.908-28.008h22.907z" class="ear"/>
    <path d="M364.91 210.995l-7.635-7.002v-21.006l7.636-7.002 7.635 14.004z" class="ear-hole"/>
    <path d="M221.714 257.17l4.286-8.542 30 4.271 30-4.271 4.286 8.542-22.857 17.086H244.57z" class="lips"/>
    <path d="M248 40l-8 8h-16l-4 4-4-4h-16l-16 16v16l-8-8h-16l-16 16v16l4 4-4 4-16 16v16l8 8v16l13.334 16h13.332L176 168v-16h8l16-16v-16h8l8-8 8 8h16l16-16 16 16h16l8-8 8 8v8l16 16 8 8h8v16l13.334 16h13.332L376 168v-16l8-8v-16l-16-16-4-4 4-4V88l-16-16h-16l-8 8V64l-16-16h-16l-4 4-4-4h-16l-8-8h-16z" fill-rule="evenodd"/>
</svg>
