<svg xmlns="http://www.w3.org/2000/svg" width="512" height="512" viewBox="0 0 512.00001 512.00001">
    <g transform="translate(0 -540.362)">
        <circle style="isolation:auto;mix-blend-mode:normal" cx="256" cy="796.362" r="248" color="#000" overflow="visible" fill="#ffcc80"/>
        <path style="isolation:auto;mix-blend-mode:normal" d="M345.462 596.362a110.297 110.297 0 0 1-3.094 18.684c-11.133 42.861-46.386 93.467-86.368 94.982v49.86c46.555 10.572 93.82-21.594 107.208-72.962 8.321-32.158 1.659-66.159-17.746-90.564z" color="#000" overflow="visible" fill="#90a4ae"/>
        <path style="isolation:auto;mix-blend-mode:normal" d="M345.428 596.632a110.2 110.2 0 0 1-1.229 9.78 110.33 110.33 0 0 1-1.83 8.632c-11.134 42.862-46.387 73.468-86.369 74.984v37.638c41.185.174 78.244-30.773 89.76-74.954 4.802-18.547 4.687-38.026-.332-56.08z" color="#000" overflow="visible" fill="#b0bec5"/>
        <path style="isolation:auto;mix-blend-mode:normal" d="M432 739.99a82.41 52.308 15 0 0-66.923-59.336 82.41 52.308 15 0 0-87.628 17.937 82.41 52.308 15 0 0 66.923 59.337A82.41 52.308 15 0 0 432 739.991z" color="#000" overflow="visible" fill="#6d4c41"/>
        <path style="isolation:auto;mix-blend-mode:normal" d="M393.429 750.356a82.41 52.308 15 0 0-66.923-59.338 82.41 52.308 15 0 0-35.951-4.15 82.41 52.308 15 0 0-13.106 11.724 82.41 52.308 15 0 0 66.923 59.336 82.41 52.308 15 0 0 35.951 4.15 82.41 52.308 15 0 0 13.106-11.722z" color="#000" overflow="visible" fill="#8d6e63"/>
        <path d="M166.538 596.362c.492 6.3 1.528 12.556 3.094 18.684 11.133 42.861 46.386 93.467 86.368 94.982v49.86c-46.555 10.572-93.82-21.594-107.208-72.962-8.321-32.158-1.659-66.159 17.746-90.564z" style="isolation:auto;mix-blend-mode:normal" color="#000" overflow="visible" fill="#90a4ae"/>
        <path d="M166.572 596.632a99.186 89.14 79.342 0 0 1.229 9.78 99.186 89.14 79.342 0 0 1.83 8.632A99.186 89.14 79.342 0 0 256 690.028v37.638a99.186 89.14 79.342 0 1-89.76-74.954 99.186 89.14 79.342 0 1 .332-56.08z" style="isolation:auto;mix-blend-mode:normal" color="#000" overflow="visible" fill="#b0bec5"/>
        <path d="M73.429 739.567a52.308 82.41 75 0 1 66.923-59.337 52.308 82.41 75 0 1 87.628 17.937 52.308 82.41 75 0 1-66.923 59.337 52.308 82.41 75 0 1-87.628-17.937z" style="isolation:auto;mix-blend-mode:normal" color="#000" overflow="visible" fill="#6d4c41"/>
        <path d="M112 749.931a52.308 82.41 75 0 1 66.923-59.337 52.308 82.41 75 0 1 35.951-4.15 52.308 82.41 75 0 1 13.106 11.724 52.308 82.41 75 0 1-66.923 59.336 52.308 82.41 75 0 1-35.951 4.15A52.308 82.41 75 0 1 112 749.931z" style="isolation:auto;mix-blend-mode:normal" color="#000" overflow="visible" fill="#8d6e63"/>
        <ellipse style="isolation:auto;mix-blend-mode:normal" cx="256" cy="817.052" rx="110.722" ry="151.724" color="#000" overflow="visible" fill="#795548"/>
        <ellipse style="isolation:auto;mix-blend-mode:normal" cx="256" cy="927.397" rx="110.722" ry="68.966" color="#000" overflow="visible" fill="#f8bbd0"/>
        <ellipse style="isolation:auto;mix-blend-mode:normal" cx="-494.356" cy="797.675" rx="13.84" ry="27.586" transform="rotate(-45)" color="#000" overflow="visible" fill="#f06292"/>
        <path style="isolation:auto;mix-blend-mode:normal" d="M256 665.328v303.448a110.722 151.724 0 0 0 110.722-151.724A110.722 151.724 0 0 0 256 665.328z" color="#000" overflow="visible" fill="#6d4c41"/>
        <path style="isolation:auto;mix-blend-mode:normal" d="M256 858.431v137.931a110.722 68.966 0 0 0 110.722-68.965A110.722 68.966 0 0 0 256 858.43z" color="#000" overflow="visible" fill="#f48fb1"/>
        <ellipse ry="27.586" rx="13.84" cy="435.636" cx="856.394" style="isolation:auto;mix-blend-mode:normal" transform="rotate(45)" color="#000" overflow="visible" fill="#f06292"/>
        <ellipse style="isolation:auto;mix-blend-mode:normal" cx="207.559" cy="768.776" rx="20.76" ry="20.69" color="#000" overflow="visible" fill="#263238"/>
        <ellipse ry="20.69" rx="20.76" cy="768.776" cx="304.441" style="isolation:auto;mix-blend-mode:normal" color="#000" overflow="visible" fill="#263238"/>
        <path d="M312 948.362a70.486 35.918 0 0 1-56.028 14.2A70.486 35.918 0 0 1 200 948.43a56.389 35.918 0 0 0 55.972 31.932 56.389 35.918 0 0 0 56.028-32z" fill="#f06292"/>
    </g>
</svg>
