<?xml version="1.0" encoding="UTF-8" standalone="no"?>
<!-- Created with Inkscape (http://www.inkscape.org/) -->

<svg
   xmlns:dc="http://purl.org/dc/elements/1.1/"
   xmlns:cc="http://creativecommons.org/ns#"
   xmlns:rdf="http://www.w3.org/1999/02/22-rdf-syntax-ns#"
   xmlns:svg="http://www.w3.org/2000/svg"
   xmlns="http://www.w3.org/2000/svg"
   xmlns:sodipodi="http://sodipodi.sourceforge.net/DTD/sodipodi-0.dtd"
   xmlns:inkscape="http://www.inkscape.org/namespaces/inkscape"
   width="256"
   height="128"
   viewBox="0 0 453.54331 0"
   id="svg4631"
   version="1.1"
   inkscape:version="0.91 r13725"
   sodipodi:docname="spritesheet_flowers.svg"
   inkscape:export-filename="/home/mwibrow/Pictures/art/art/spritesheet_flowers.png"
   inkscape:export-xdpi="90"
   inkscape:export-ydpi="90">
  <sodipodi:namedview
     id="base"
     pagecolor="#ffffff"
     bordercolor="#666666"
     borderopacity="1.0"
     inkscape:pageopacity="0.0"
     inkscape:pageshadow="2"
     inkscape:zoom="1.2094769"
     inkscape:cx="-42.660501"
     inkscape:cy="65.979271"
     inkscape:document-units="px"
     inkscape:current-layer="layer1"
     showgrid="true"
     units="px"
     showguides="true"
     inkscape:guide-bbox="true"
     inkscape:snap-bbox="false"
     inkscape:bbox-paths="true"
     inkscape:bbox-nodes="true"
     inkscape:snap-center="true"
     inkscape:snap-bbox-midpoints="false"
     inkscape:snap-intersection-paths="true"
     inkscape:object-nodes="true"
     inkscape:window-width="1366"
     inkscape:window-height="719"
     inkscape:window-x="0"
     inkscape:window-y="25"
     inkscape:window-maximized="1"
     inkscape:snap-others="false"
     inkscape:snap-nodes="true"
     inkscape:snap-bbox-edge-midpoints="true"
     inkscape:object-paths="true"
     inkscape:snap-smooth-nodes="true"
     inkscape:snap-global="true">
    <inkscape:grid
       snapvisiblegridlinesonly="true"
       empspacing="8"
       id="grid5179"
       type="xygrid" />
    <sodipodi:guide
       id="guide5181"
       orientation="1,0"
       position="128,104" />
    <sodipodi:guide
       id="guide5183"
       orientation="1,0"
       position="16,120" />
    <sodipodi:guide
       id="guide5185"
       orientation="1,0"
       position="112,128" />
    <sodipodi:guide
       id="guide5254"
       orientation="0,1"
       position="62,112" />
    <sodipodi:guide
       id="guide5256"
       orientation="0,1"
       position="193.45857,16.121547" />
  </sodipodi:namedview>
  <defs
     id="defs4633" />
  <metadata
     id="metadata4636">
    <rdf:RDF>
      <cc:Work
         rdf:about="">
        <dc:format>image/svg+xml</dc:format>
        <dc:type
           rdf:resource="http://purl.org/dc/dcmitype/StillImage" />
        <dc:title />
      </cc:Work>
    </rdf:RDF>
  </metadata>
  <g
     style="display:none"
     inkscape:label="background"
     id="layer2"
     inkscape:groupmode="layer"
     sodipodi:insensitive="true">
    <rect
       y="0"
       x="0"
       height="128"
       width="256"
       id="rect5209"
       style="opacity:1;fill:#00bcd4;fill-opacity:1;stroke:none;stroke-width:2;stroke-linecap:round;stroke-linejoin:round;stroke-miterlimit:4;stroke-dasharray:none;stroke-opacity:1" />
  </g>
  <g
     transform="translate(0,-1124.3622)"
     id="layer1"
     inkscape:groupmode="layer"
     inkscape:label="flowers"
     style="display:inline">
    <g
       id="g9549">
      <rect
         style="opacity:1;fill:#1b5e20;fill-opacity:1;stroke:none;stroke-width:4;stroke-linecap:round;stroke-linejoin:round;stroke-miterlimit:4;stroke-dasharray:none;stroke-opacity:1"
         id="rect4213"
         width="3.4730833"
         height="45.599365"
         x="62.213093"
         y="1180.9105" />
      <path
         inkscape:connector-curvature="0"
         id="path6219"
         d="m 64.011276,1142.3265 c -7.228781,0 -16.734381,4.5102 -13.470536,11.1549 1.011126,2.0585 2.2188,4.4641 3.529174,6.8497 -2.796046,-2.0602 -5.666856,-3.9928 -7.948198,-5.3652 -9.122624,-5.4877 -19.231739,-2.5735 -23.354029,1.3557 -4.206564,4.0092 -3.079346,11.8241 8.640912,13.4591 3.568092,0.4979 7.718172,1.0582 11.854073,1.5465 -4.486756,0.5238 -8.887122,1.1651 -12.185915,1.7647 -13.527601,2.459 -15.195598,10.0729 -11.672303,14.6523 3.600903,4.6802 16.07201,7.9425 25.082706,1.5925 2.677965,-1.8873 5.726984,-4.0634 8.628161,-6.2409 -1.642963,2.8896 -3.090834,5.8182 -4.013429,8.0937 -3.85791,9.5157 6.342331,14.2747 14.775862,14.2746 8.433696,10e-5 19.037508,-5.9865 14.78052,-14.2746 -1.257929,-2.449 -2.723871,-5.2429 -4.258436,-7.9457 3.102446,2.33 6.341565,4.5614 8.946752,6.1743 10.809671,6.6921 21.48544,3.0887 25.08773,-1.5932 3.52461,-4.581 0.50915,-12.9819 -11.672375,-14.6577 -3.671917,-0.5051 -7.916231,-1.072 -12.117269,-1.5623 4.427297,-0.5234 8.72961,-1.1598 11.917914,-1.752 12.87662,-2.3915 12.84817,-9.4514 8.6402,-13.4621 -4.12379,-3.9305 -15.79923,-6.575 -23.355488,-1.356 -2.329685,1.609 -5.033099,3.4994 -7.647714,5.4286 1.398123,-2.5519 2.578051,-5.0708 3.288734,-6.982 2.821862,-7.5888 -6.248264,-11.1549 -13.477046,-11.1549 0,0 0,0 0,0 m -0.06766,29.1308 c 0.0041,3e-4 0.008,0 0.01208,0 0.0023,0 0.0037,0.01 0.006,0.01 -0.002,0 -0.004,0 -0.006,0.01 -0.0041,-2e-4 -0.008,0 -0.01208,0 -0.0023,0 -0.0037,-0.01 -0.006,-0.01 0.002,0 0.004,0 0.006,-0.01 0,0 0,0 0,0"
         style="opacity:1;fill:#ffffff;fill-opacity:1;stroke:none;stroke-width:2;stroke-linecap:round;stroke-linejoin:round;stroke-miterlimit:4;stroke-dasharray:none;stroke-opacity:1" />
      <path
         inkscape:connector-curvature="0"
         style="opacity:1;fill:#ffc107;fill-opacity:1;stroke:none;stroke-width:2;stroke-linecap:round;stroke-linejoin:round;stroke-miterlimit:4;stroke-dasharray:none;stroke-opacity:1"
         d="m 71.959598,1181.0822 c -7.653955,3.391 -17.547737,1.3598 -21.476956,-4.2638 -3.639579,-5.2091 -0.525744,-11.3358 6.457886,-13.925 6.710907,-2.4881 15.212164,-1.0235 19.478873,3.4548 4.58012,4.8072 2.853546,11.494 -4.459803,14.734 0,0 0,0 0,0"
         id="ellipse5337" />
      <path
         style="opacity:1;fill:#1b5e20;fill-opacity:1;stroke:none;stroke-width:4;stroke-linecap:round;stroke-linejoin:round;stroke-miterlimit:4;stroke-dasharray:none;stroke-opacity:1"
         d="m 97.49704,1217.4314 c 0.898904,3.3882 -13.238316,14.4767 -19.947798,16.2924 -6.709481,1.8157 -11.801807,-0.4376 -13.599608,-7.2139 -1.7978,-6.7762 2.201625,-8.6423 8.911107,-10.4579 6.709482,-1.8158 23.737405,-2.0087 24.636299,1.3794 z"
         id="path5371"
         inkscape:connector-curvature="0"
         inkscape:transform-center-x="-19.094218"
         inkscape:transform-center-y="-2.2401435" />
      <path
         inkscape:transform-center-y="-2.2401435"
         inkscape:transform-center-x="19.094218"
         inkscape:connector-curvature="0"
         id="path5373"
         d="m 30.402226,1217.4314 c -0.8989,3.3882 13.238318,14.4767 19.9478,16.2924 6.709482,1.8157 11.801808,-0.4376 13.599608,-7.2139 1.7978,-6.7762 -2.201625,-8.6423 -8.911107,-10.4579 -6.709481,-1.8158 -23.737402,-2.0087 -24.636301,1.3794 z"
         style="opacity:1;fill:#1b5e20;fill-opacity:1;stroke:none;stroke-width:4;stroke-linecap:round;stroke-linejoin:round;stroke-miterlimit:4;stroke-dasharray:none;stroke-opacity:1" />
    </g>
    <g
       id="g5803">
      <path
         sodipodi:nodetypes="cc"
         inkscape:connector-curvature="0"
         id="path5285"
         d="m 206,1160.3622 -14,88"
         style="display:inline;fill:none;fill-rule:evenodd;stroke:#1b5e20;stroke-width:4;stroke-linecap:round;stroke-linejoin:round;stroke-miterlimit:4;stroke-dasharray:none;stroke-opacity:1" />
      <path
         sodipodi:nodetypes="cc"
         inkscape:connector-curvature="0"
         id="path5381"
         d="m 159.8146,1188.1711 32.08596,59.9916"
         style="display:inline;fill:none;fill-rule:evenodd;stroke:#1b5e20;stroke-width:4;stroke-linecap:round;stroke-linejoin:round;stroke-miterlimit:4;stroke-dasharray:none;stroke-opacity:1" />
      <path
         style="display:inline;fill:none;fill-rule:evenodd;stroke:#1b5e20;stroke-width:4;stroke-linecap:round;stroke-linejoin:round;stroke-miterlimit:4;stroke-dasharray:none;stroke-opacity:1"
         d="m 219.28314,1211.3945 -27.45936,36.8536"
         id="path5379"
         inkscape:connector-curvature="0"
         sodipodi:nodetypes="cc" />
      <g
         transform="matrix(0.86488517,-0.23174528,0.23174528,0.86488517,-271.33472,200.62281)"
         id="g5690">
        <path
           style="opacity:1;fill:#ffffff;fill-opacity:1;stroke:none;stroke-width:2;stroke-linecap:round;stroke-linejoin:round;stroke-miterlimit:4;stroke-dasharray:none;stroke-opacity:1"
           d="m 188.2867,1201.648 c -4.70557,-1.2609 -11.67217,-0.012 -10.69513,4.8402 0.30269,1.5031 0.67337,3.2643 1.11436,5.0304 -1.46429,-1.8155 -2.99928,-3.5619 -4.24731,-4.8444 -4.99061,-5.1282 -12.07444,-5.0131 -15.43642,-3.1997 -3.43067,1.8504 -4.04657,7.0841 3.30036,10.1821 2.23666,0.9433 4.8414,2.0283 7.44934,3.0644 -3.01113,-0.445 -5.9863,-0.7991 -8.23719,-0.9881 -9.23048,-0.7746 -11.63121,3.842 -10.12859,7.408 1.53572,3.6447 9.09038,7.9226 16.05255,5.4015 2.06916,-0.7494 4.42975,-1.6202 6.69432,-2.5176 -1.56853,1.5759 -3.0168,3.211 -4.01035,4.5167 -4.1547,5.4603 1.66327,10.3067 7.1531,11.7777 5.4899,1.471 13.42635,-0.538 12.08663,-6.6224 -0.39589,-1.7979 -0.86763,-3.8544 -1.39977,-5.8641 1.61713,2.0429 3.34027,4.0461 4.75756,5.54 5.88081,6.1988 13.45251,5.7384 16.60601,3.349 3.08549,-2.3378 2.57345,-8.2785 -5.0667,-11.4833 -2.303,-0.9661 -4.96793,-2.0718 -7.61792,-3.1205 2.97235,0.4348 5.88284,0.7751 8.06054,0.9495 8.79506,0.7046 9.9958,-3.8508 7.94927,-7.1697 -2.00555,-3.2527 -9.14898,-6.9936 -14.96905,-4.9478 -1.7944,0.6308 -3.88066,1.3776 -5.91582,2.165 1.35083,-1.4009 2.55391,-2.8186 3.34661,-3.9265 3.14751,-4.3991 -2.14082,-8.2796 -6.8464,-9.5404 0,0 0,0 0,0 m -5.07502,18.7641 c 0.003,8e-4 0.005,0 0.008,0 10e-4,4e-4 9.2e-4,0.01 0.002,0.01 -0.001,-3e-4 -0.003,-7e-4 -0.005,0 -0.003,-8e-4 -0.005,0 -0.008,0 -10e-4,-4e-4 -9.2e-4,-0.01 -0.002,-0.01 0.001,3e-4 0.003,7e-4 0.005,0 0,0 0,0 0,0"
           id="path5680"
           inkscape:connector-curvature="0" />
        <path
           id="path5682"
           d="m 186.76744,1228.0138 c -5.56798,0.8506 -11.65755,-2.1842 -13.24405,-6.4942 -1.46956,-3.9923 1.61549,-7.3981 6.60865,-7.8488 4.79816,-0.4331 10.07911,1.9937 12.0831,5.6243 2.15123,3.8973 -0.12752,7.906 -5.4477,8.7187 0,0 0,0 0,0"
           style="opacity:1;fill:#ffc107;fill-opacity:1;stroke:none;stroke-width:2;stroke-linecap:round;stroke-linejoin:round;stroke-miterlimit:4;stroke-dasharray:none;stroke-opacity:1"
           inkscape:connector-curvature="0" />
      </g>
      <g
         transform="matrix(0.89539502,0,0,0.89539502,12.766719,121.48244)"
         id="g5694">
        <path
           inkscape:connector-curvature="0"
           id="path5658"
           d="m 175.29383,1136.164 c -4.70557,-1.2609 -11.67217,-0.012 -10.69513,4.8402 0.30269,1.5031 0.67337,3.2642 1.11436,5.0304 -1.46429,-1.8156 -2.99928,-3.5619 -4.24731,-4.8444 -4.99061,-5.1283 -12.07444,-5.0132 -15.43642,-3.1997 -3.43067,1.8504 -4.04657,7.084 3.30036,10.1821 2.23666,0.9433 4.8414,2.0282 7.44934,3.0643 -3.01113,-0.4449 -5.9863,-0.7991 -8.23719,-0.988 -9.23048,-0.7746 -11.63121,3.8419 -10.12859,7.408 1.53572,3.6447 9.09038,7.9226 16.05255,5.4014 2.06916,-0.7493 4.42975,-1.6201 6.69432,-2.5175 -1.56853,1.5759 -3.0168,3.2109 -4.01035,4.5166 -4.1547,5.4604 1.66327,10.3068 7.1531,11.7777 5.4899,1.4711 13.42635,-0.5379 12.08663,-6.6224 -0.39589,-1.7979 -0.86763,-3.8544 -1.39977,-5.8641 1.61713,2.0429 3.34027,4.0461 4.75756,5.5401 5.88081,6.1988 13.45251,5.7383 16.60601,3.349 3.08549,-2.3379 2.57345,-8.2786 -5.0667,-11.4834 -2.303,-0.966 -4.96793,-2.0717 -7.61792,-3.1205 2.97235,0.4349 5.88284,0.7751 8.06054,0.9496 8.79506,0.7045 9.9958,-3.8508 7.94927,-7.1698 -2.00555,-3.2527 -9.14898,-6.9935 -14.96905,-4.9477 -1.7944,0.6307 -3.88066,1.3776 -5.91582,2.165 1.35083,-1.4009 2.55391,-2.8186 3.34661,-3.9265 3.14751,-4.3991 -2.14082,-8.2796 -6.8464,-9.5404 0,0 0,0 0,0 m -5.07502,18.764 c 0.003,9e-4 0.005,0 0.008,0 0.001,4e-4 9.2e-4,0.01 0.002,0.01 -0.001,-4e-4 -0.003,-7e-4 -0.005,0 -0.003,-8e-4 -0.005,0 -0.008,0 -0.001,-4e-4 -9.2e-4,-0.01 -0.002,-0.01 0.001,4e-4 0.003,7e-4 0.005,0 0,0 0,0 0,0"
           style="opacity:1;fill:#ffffff;fill-opacity:1;stroke:none;stroke-width:2;stroke-linecap:round;stroke-linejoin:round;stroke-miterlimit:4;stroke-dasharray:none;stroke-opacity:1" />
        <path
           inkscape:connector-curvature="0"
           style="opacity:1;fill:#ffc107;fill-opacity:1;stroke:none;stroke-width:2;stroke-linecap:round;stroke-linejoin:round;stroke-miterlimit:4;stroke-dasharray:none;stroke-opacity:1"
           d="m 173.77457,1162.5298 c -5.56798,0.8506 -11.65755,-2.1843 -13.24405,-6.4943 -1.46956,-3.9922 1.61549,-7.398 6.60865,-7.8487 4.79816,-0.4331 10.07911,1.9937 12.0831,5.6243 2.15123,3.8972 -0.12752,7.906 -5.4477,8.7187 0,0 0,0 0,0"
           id="path5660" />
      </g>
      <g
         transform="translate(9.5833776,-2.381601)"
         id="g5642">
        <path
           id="path5309"
           d="m 210.301,1127.4604 c -5.04151,-0.078 -11.27971,2.3336 -10.99585,7.2524 0.10046,1.74 0.23901,3.7793 0.45472,5.8172 -1.37533,-1.9736 -2.84167,-3.8513 -4.05192,-5.2136 -4.81825,-5.4241 -12.8031,-4.4125 -16.85823,-1.8806 -4.12334,2.5744 -5.66683,8.7552 2.02172,11.5322 2.35492,0.8508 5.10725,1.8299 7.88149,2.7531 -3.32528,-0.181 -6.61275,-0.2607 -9.10503,-0.2267 -10.15124,0.1386 -13.56573,5.7947 -12.49201,9.797 1.10022,4.1019 8.80891,8.3398 17.04612,4.6397 2.4591,-1.1047 5.27555,-2.3861 7.99308,-3.6926 -2.03939,2.0357 -3.94861,4.1261 -5.2877,5.7762 -5.58972,6.8876 0.18878,12.0568 6.19621,13.2735 6.04951,1.2254 15.54744,-1.9604 14.98956,-9.1299 -0.16454,-2.1146 -0.37476,-4.5304 -0.66196,-6.8795 1.53841,2.2741 3.21107,4.4942 4.61463,6.1407 5.85381,6.8663 14.84338,5.546 18.96911,2.3223 4.04965,-3.1642 4.40248,-10.3275 -4.1299,-13.3613 -2.55477,-0.9083 -5.50297,-1.9403 -8.43296,-2.903 3.40747,0.1881 6.7705,0.2705 9.30761,0.2352 10.31796,-0.1439 12.48857,-5.8096 10.58437,-9.589 -1.85986,-3.6914 -9.70537,-7.3256 -16.86457,-4.1624 -2.19808,0.9712 -4.74774,2.1146 -7.24134,3.2972 1.79731,-1.8345 3.42607,-3.6742 4.52937,-5.0949 4.38747,-5.6497 -1.14761,-9.6167 -6.39507,-10.5188 -0.65372,-0.1125 -1.35102,-0.1734 -2.07145,-0.1844 0,0 0,0 0,0 m -6.82605,23.107 c 0.002,6e-4 0.004,0 0.007,0 6.4e-4,0 -7e-4,0 0,0.011 -0.002,0 -0.004,0 -0.007,0 -0.003,-9e-4 -0.008,0 -0.0113,0 -4e-4,0 4e-4,0 0,0 0.003,0 0.008,0 0.0113,0 0,0 0,0 0,0"
           style="opacity:1;fill:#e91e63;fill-opacity:1;stroke:none;stroke-width:2;stroke-linecap:round;stroke-linejoin:round;stroke-miterlimit:4;stroke-dasharray:none;stroke-opacity:1"
           inkscape:connector-curvature="0" />
        <path
           inkscape:connector-curvature="0"
           id="path5638"
           d="m 191.86236,1150.5822 c -0.75849,-4.0085 3.74545,-7.6015 9.78458,-8.4629 5.84162,-0.8332 12.05391,1.0502 14.29009,4.5655 2.5604,4.0251 -0.8264,8.8197 -8.19716,10.1991 -3.6531,0.6837 -7.53383,0.324 -10.63099,-0.9701 -2.97811,-1.2446 -4.84188,-3.1931 -5.24652,-5.3316 0,0 0,0 0,0"
           style="opacity:1;fill:#880e4f;fill-opacity:1;stroke:none;stroke-width:2;stroke-linecap:round;stroke-linejoin:round;stroke-miterlimit:4;stroke-dasharray:none;stroke-opacity:1" />
      </g>
      <g
         transform="matrix(0.89950517,0,0,0.89950517,23.957011,118.46447)"
         id="g5698">
        <path
           style="opacity:1;fill:#ffffff;fill-opacity:1;stroke:none;stroke-width:2;stroke-linecap:round;stroke-linejoin:round;stroke-miterlimit:4;stroke-dasharray:none;stroke-opacity:1"
           d="m 217.77694,1165.1037 c -4.72799,1.1739 -10.21989,5.6385 -7.01667,9.4116 0.99233,1.1689 2.16905,2.5307 3.40971,3.8628 -2.16004,-0.8801 -4.34847,-1.6654 -6.06127,-2.1837 -6.84912,-2.0724 -12.99239,1.4567 -15.05675,4.6707 -2.10662,3.2796 -0.11269,8.1575 7.81589,7.3129 2.41378,-0.257 5.21824,-0.5681 8.00185,-0.9236 -2.85034,1.0679 -5.62528,2.1978 -7.68646,3.1218 -8.45233,3.7895 -8.31893,8.9912 -5.27814,11.3846 3.10778,2.4462 11.78911,2.5335 16.66148,-3.0422 1.44804,-1.6571 3.09233,-3.5616 4.6397,-5.4429 -0.60992,2.1382 -1.08597,4.2699 -1.32349,5.8934 -0.99311,6.789 6.44363,8.2143 11.95958,6.8446 5.51609,-1.3696 11.48886,-6.9686 7.37183,-11.6447 -1.21657,-1.3817 -2.62464,-2.953 -4.06295,-4.4541 2.40384,1.0051 4.88121,1.9241 6.84449,2.5455 8.14621,2.5784 14.54927,-1.489 16.15249,-5.1061 1.56864,-3.5391 -1.75453,-8.4899 -9.99135,-7.5968 -2.48285,0.2692 -5.35002,0.5914 -8.17655,0.9561 2.81151,-1.058 5.52312,-2.1688 7.51321,-3.0701 8.03741,-3.64 6.88354,-8.2074 3.48638,-10.1213 -3.32921,-1.8758 -11.39079,-1.6922 -15.49375,2.9148 -1.265,1.4204 -2.72919,3.0836 -4.12906,4.7576 0.50409,-1.8797 0.87078,-3.7025 1.02827,-5.0556 0.62533,-5.3729 -5.88044,-6.2093 -10.60844,-5.0353 0,0 0,0 0,0 m 4.64009,18.8763 c 0.003,-5e-4 0.005,0 0.008,0 0.001,-3e-4 0.004,0.01 0.005,0.01 -10e-4,3e-4 -0.003,6e-4 -0.003,0.01 -0.003,5e-4 -0.005,0 -0.008,0 -0.001,4e-4 -0.004,-0.01 -0.005,-0.01 0.001,-3e-4 0.003,-6e-4 0.003,-0.01 0,0 0,0 0,0"
           id="path5674"
           inkscape:connector-curvature="0" />
        <path
           id="path5676"
           d="m 229.20761,1188.9113 c -4.46079,3.4391 -11.25846,3.7305 -14.73267,0.7267 -3.21812,-2.7824 -2.16671,-7.2558 1.9846,-10.0667 3.98919,-2.7012 9.78497,-3.1333 13.29575,-0.9261 3.76864,2.3693 3.71463,6.9801 -0.54768,10.2661 0,0 0,0 0,0"
           style="opacity:1;fill:#ffc107;fill-opacity:1;stroke:none;stroke-width:2;stroke-linecap:round;stroke-linejoin:round;stroke-miterlimit:4;stroke-dasharray:none;stroke-opacity:1"
           inkscape:connector-curvature="0" />
      </g>
      <g
         transform="matrix(0.9648958,-0.25854304,0.25854304,0.9648958,-300.51293,84.076545)"
         id="g5650">
        <path
           id="path5374"
           d="m 199.99748,1189.305 c -0.50807,-3.4186 -5.21707,-7.4436 -13.05909,-7.2231 -2.71936,0.077 -5.86977,0.178 -8.97802,0.3253 2.95305,-0.8554 5.76148,-1.7665 7.78973,-2.5164 8.06648,-2.9822 5.78171,-7.5269 1.69387,-9.6381 -3.97766,-2.0544 -12.6703,-2.5431 -16.35956,1.54 -1.15787,1.2812 -2.50469,2.7968 -3.7932,4.3432 0.25767,-1.8227 0.37025,-3.5826 0.3261,-4.8874 -0.17247,-5.0901 -7.38965,-6.4206 -12.41134,-5.7082 -5.07054,0.7193 -10.70906,4.5689 -6.68922,8.5567 1.25925,1.2492 2.76001,2.7146 4.3377,4.1644 -2.57014,-1.0688 -5.15619,-2.0404 -7.16417,-2.7031 -8.00272,-2.6415 -14.77997,0.3948 -16.96727,3.5163 -2.27544,3.2471 0.39143,8.6119 9.74866,8.3425 2.82817,-0.081 6.09871,-0.1893 9.32855,-0.3453 -3.23177,0.9141 -6.39399,1.9095 -8.75302,2.7459 -9.84433,3.4906 -9.32986,9.3729 -5.40667,12.3688 4.05472,3.0965 14.7822,3.8612 19.99451,-2.203 1.51277,-1.7601 3.21075,-3.7624 4.77484,-5.7223 -0.41062,2.3189 -0.66571,4.67 -0.71264,6.4896 -0.20098,7.8006 9.15119,10.0452 15.62704,8.8318 6.39499,-1.1983 12.299,-7.186 6.46163,-12.7218 -1.69913,-1.6113 -3.64547,-3.433 -5.60019,-5.1679 2.97963,1.2725 6.03917,2.4599 8.44633,3.2882 10.03789,3.454 16.40741,-0.4953 17.31206,-4.2345 0.11039,-0.4563 0.12764,-0.9418 0.0534,-1.4416 0,0 0,0 0,0 m -36.89539,-4.5981 c -0.001,0 -0.004,0 -0.005,0.01 -0.003,3e-4 -0.006,-3e-4 -0.009,0 -0.002,0 -0.004,0 -0.007,-0.01 8.2e-4,-10e-4 0.002,0 0.002,0 0.004,-4e-4 0.008,-9e-4 0.0113,-10e-4 0.002,0 0.004,0 0.007,0 0,0 0,0 0,0"
           style="opacity:1;fill:#f44336;fill-opacity:1;stroke:none;stroke-width:2;stroke-linecap:round;stroke-linejoin:round;stroke-miterlimit:4;stroke-dasharray:none;stroke-opacity:1"
           inkscape:connector-curvature="0" />
        <path
           style="opacity:1;fill:#b71c1c;fill-opacity:1;stroke:none;stroke-width:2;stroke-linecap:round;stroke-linejoin:round;stroke-miterlimit:4;stroke-dasharray:none;stroke-opacity:1"
           d="m 150.80491,1185.7185 c -0.75849,-4.0085 3.74545,-7.6015 9.78458,-8.4629 5.84162,-0.8332 12.05391,1.0502 14.29009,4.5655 2.5604,4.0251 -0.8264,8.8197 -8.19716,10.1991 -3.6531,0.6837 -7.53383,0.324 -10.63099,-0.9701 -2.97811,-1.2446 -4.84188,-3.1931 -5.24652,-5.3316 0,0 0,0 0,0"
           id="ellipse5386"
           inkscape:connector-curvature="0" />
      </g>
      <g
         transform="matrix(0.95755164,0.25657518,-0.25657518,0.95755164,320.66889,1.8876823)"
         id="g5646">
        <path
           inkscape:connector-curvature="0"
           style="opacity:1;fill:#ff9800;fill-opacity:1;stroke:none;stroke-width:2;stroke-linecap:round;stroke-linejoin:round;stroke-miterlimit:4;stroke-dasharray:none;stroke-opacity:1"
           d="m 218.57823,1184.4299 c -5.6573,0 -13.09648,3.4949 -10.54216,8.6438 0.79131,1.5951 1.73646,3.4593 2.76195,5.3077 -2.18819,-1.5963 -4.43493,-3.0939 -6.22032,-4.1573 -7.13945,-4.2525 -15.05092,-1.9943 -18.27706,1.0504 -3.2921,3.1068 -2.40993,9.1626 6.76244,10.4296 2.79242,0.3858 6.04032,0.8199 9.27711,1.1983 -3.51137,0.4059 -6.95514,0.9028 -9.53681,1.3675 -10.58681,1.9054 -11.8922,7.8055 -9.13484,11.3539 2.81809,3.6268 12.57809,6.1548 19.62995,1.2341 2.09579,-1.4624 4.48199,-3.1487 6.75247,-4.836 -1.28579,2.2391 -2.41892,4.5085 -3.14095,6.2718 -3.01923,7.3737 4.96358,11.0614 11.56372,11.0613 6.60028,10e-5 14.89892,-4.6389 11.56736,-11.0613 -0.98447,-1.8978 -2.13173,-4.0628 -3.33269,-6.1572 2.42801,1.8055 4.96296,3.5347 7.00181,4.7845 8.45974,5.1857 16.81469,2.3934 19.63388,-1.2345 2.75839,-3.5499 0.39846,-10.0598 -9.13491,-11.3583 -2.87368,-0.3915 -6.19531,-0.8307 -9.48307,-1.2107 3.46484,-0.4055 6.83186,-0.8986 9.32706,-1.3575 10.07735,-1.8532 10.05509,-7.3239 6.76189,-10.4317 -3.22731,-3.0459 -12.36462,-5.095 -18.2782,-1.0509 -1.82324,1.2469 -3.93896,2.7117 -5.98516,4.2066 1.09417,-1.9774 2.0176,-3.9292 2.57377,-5.4103 2.20842,-5.8805 -4.88993,-8.6438 -10.54724,-8.6438 0,0 0,0 0,0 m -0.0506,22.5733 c 0.002,10e-5 0.005,0 0.007,0 0.002,0 0.002,0.011 0.005,0.011 -0.002,0 -0.003,0 -0.005,0.011 -0.003,-10e-5 -0.006,0 -0.009,0 -0.002,0 -0.003,-0.011 -0.005,-0.011 0.002,0 0.005,-0.011 0.007,-0.011 0,0 0,0 0,0"
           id="path5325" />
        <path
           inkscape:connector-curvature="0"
           id="path5640"
           d="m 205.37494,1206.9156 c -0.75849,-4.0085 3.74545,-7.6015 9.78458,-8.4629 5.84162,-0.8332 12.05391,1.0502 14.29009,4.5655 2.5604,4.0251 -0.8264,8.8197 -8.19716,10.1991 -3.6531,0.6837 -7.53383,0.324 -10.63099,-0.9701 -2.97811,-1.2446 -4.84188,-3.1931 -5.24652,-5.3316 0,0 0,0 0,0"
           style="opacity:1;fill:#e65100;fill-opacity:1;stroke:none;stroke-width:2;stroke-linecap:round;stroke-linejoin:round;stroke-miterlimit:4;stroke-dasharray:none;stroke-opacity:1" />
      </g>
    </g>
  </g>
</svg>
