<?xml version="1.0" encoding="UTF-8" standalone="no"?>
<!-- Created with Inkscape (http://www.inkscape.org/) -->

<svg
   xmlns:dc="http://purl.org/dc/elements/1.1/"
   xmlns:cc="http://creativecommons.org/ns#"
   xmlns:rdf="http://www.w3.org/1999/02/22-rdf-syntax-ns#"
   xmlns:svg="http://www.w3.org/2000/svg"
   xmlns="http://www.w3.org/2000/svg"
   xmlns:sodipodi="http://sodipodi.sourceforge.net/DTD/sodipodi-0.dtd"
   xmlns:inkscape="http://www.inkscape.org/namespaces/inkscape"
   width="459.99997"
   height="384.99997"
   viewBox="0 0 459.99999 384.99996"
   id="svg2"
   version="1.1"
   inkscape:version="0.91 r13725"
   sodipodi:docname="vocal-tract-neutral.svg">
  <defs
     id="defs4" />
  <sodipodi:namedview
     id="base"
     pagecolor="#ffffff"
     bordercolor="#666666"
     borderopacity="1.0"
     inkscape:pageopacity="0.0"
     inkscape:pageshadow="2"
     inkscape:zoom="0.96773362"
     inkscape:cx="211.39278"
     inkscape:cy="124.71676"
     inkscape:document-units="px"
     inkscape:current-layer="svg2"
     showgrid="true"
     fit-margin-top="5"
     fit-margin-left="5"
     fit-margin-right="5"
     fit-margin-bottom="5"
     units="px"
     inkscape:window-width="1366"
     inkscape:window-height="719"
     inkscape:window-x="0"
     inkscape:window-y="25"
     inkscape:window-maximized="1"
     inkscape:object-paths="false"
     inkscape:snap-intersection-paths="false"
     inkscape:object-nodes="true"
     inkscape:snap-midpoints="false"
     inkscape:snap-smooth-nodes="false"
     inkscape:snap-nodes="true"
     showguides="true"
     inkscape:guide-bbox="true"
     inkscape:snap-grids="false"
     inkscape:snap-page="true"
     inkscape:snap-to-guides="true"
     inkscape:snap-global="false">
    <sodipodi:guide
       position="-101.31367,5.4063918"
       orientation="0,1"
       id="guide4271" />
    <inkscape:grid
       type="xygrid"
       id="grid4273"
       empspacing="10"
       spacingx="5.0000002"
       spacingy="4.9999999"
       originx="-1.3136672"
       originy="5.4063918" />
  </sodipodi:namedview>
  <metadata
     id="metadata7">
    <rdf:RDF>
      <cc:Work
         rdf:about="">
        <dc:format>image/svg+xml</dc:format>
        <dc:type
           rdf:resource="http://purl.org/dc/dcmitype/StillImage" />
        <dc:title />
      </cc:Work>
    </rdf:RDF>
  </metadata>
  <path
     sodipodi:nodetypes="ssssssszcsscssss"
     inkscape:connector-curvature="0"
     id="tongue"
     d="M 171.53512,180.34565 C 167.49633,180.36519 163.30684,180.67288 158.86067,181.29484 C 135.14777,184.61198 117.02859,199.03807 117.09974,209.15975 C 117.17088,219.28144 126.92512,223.01117 132.66209,225.63011 C 138.39906,228.24907 141.97197,228.50976 144.44177,232.88335 C 146.91156,237.25695 146.30905,243.80375 142.25455,245.09626 C 138.20005,246.38877 116.96027,229.4302 114.59788,237.82954 C 112.2355,246.22886 127.25174,269.84622 125.70875,280.49902 C 124.16576,291.15182 118.67898,294.68609 110.84606,296.53879 C 122.50768,295.33717 148.37209,297.45243 160.09256,298.02949 C 184.77342,299.24468 210.70731,303.34881 224.45029,305.1707 C 237.74682,306.93341 273.39082,302.82323 277.66068,299.40991 C 277.54321,298.7002 282.73504,300.56307 282.39388,299.85762 C 274.11029,282.72859 290.06846,259.36163 279.18009,238.16976 C 268.2917,216.97791 249.13642,205.0475 224.06736,194.31589 C 203.69876,185.59645 189.03652,180.26097 171.53512,180.34565 Z"
     style="opacity:1;fill:#263238;fill-opacity:1;stroke:none;stroke-width:1;stroke-linecap:round;stroke-linejoin:round;stroke-miterlimit:4;stroke-dasharray:none;stroke-opacity:1" />
  <path
     sodipodi:nodetypes="zzzcczz"
     inkscape:connector-curvature="0"
     id="lowerGum"
     d="M 102.43968,232.25315 C 98.204611,232.25315 93.588963,233.76263 91.492253,237.30557 C 89.395543,240.84851 92.100205,240.06855 92.720769,250.37588 C 93.341332,260.68321 85.651516,285.499 94.966863,293.7001 C 105.41642,299.09625 123.19951,299.13376 126.43367,287.28408 C 130.53412,270.19455 116.42857,236.20746 113.34382,233.58291 C 110.25907,230.95836 106.67474,232.25315 102.43968,232.25315 Z"
     style="opacity:1;fill:#9e9e9e;fill-opacity:1;stroke:none;stroke-width:1;stroke-linecap:round;stroke-linejoin:round;stroke-miterlimit:4;stroke-dasharray:none;stroke-opacity:1" />
  <path
     sodipodi:nodetypes="zzzzzzzzzzzzcczzzzzzz"
     inkscape:connector-curvature="0"
     id="jaw"
     d="M 79.34998,205.06626 C 88.401553,207.49782 91.040901,216.52371 92.330242,226.71535 C 93.619582,236.90699 92.705213,235.22854 93.516901,247.32825 C 94.328589,259.42796 86.659208,276.22736 93.805428,290.20052 C 100.95165,304.17368 135.27899,291.15941 158.39679,290.25447 C 181.51459,289.34953 215.3919,301.56786 237.79281,300.3377 C 260.19372,299.10754 272.90659,288.91973 277.30786,288.40571 C 281.70913,287.89169 280.12461,296.34112 283.15524,293.16282 C 286.18587,289.98452 293.46154,272.53589 297.74898,266.13134 C 302.03641,259.72679 307.64527,253.24557 311.20617,255.20142 C 314.76707,257.15727 313.96412,265.6438 310.56493,271.66231 C 307.16574,277.68082 288.54774,309.84097 288.47397,328.31201 C 288.40018,346.78305 295.23126,354.2886 305.63845,374.46329 C 283.76153,374.06385 280.04017,374.06385 260.60087,374.06385 C 263.38263,358.17131 221.58565,324.72381 212.05258,319.23753 C 202.51951,313.75125 176.70141,308.50363 163.22042,309.77054 C 149.73941,311.03746 92.552056,319.44308 78.651793,304.94413 C 64.751531,290.44517 74.110785,271.92962 74.286356,260.41971 C 74.461928,248.90981 71.84729,240.74175 69.836963,235.66436 C 67.826636,230.58697 59.610941,225.08256 61.021676,217.07155 C 62.432411,209.06054 70.298408,202.63469 79.34998,205.06626 Z"
     style="opacity:1;fill:#607d8b;fill-opacity:1;stroke:none;stroke-width:1;stroke-linecap:round;stroke-linejoin:round;stroke-miterlimit:4;stroke-dasharray:none;stroke-opacity:1" />
  <path
     sodipodi:nodetypes="zzzccz"
     inkscape:connector-curvature="0"
     id="esophagealWall"
     d="M 328.11919,331.0423 C 327.2248,325.3725 327.51966,321.04954 331.45367,319.6487 C 335.38768,318.24787 338.46502,320.32924 341.86343,327.83677 C 345.26184,335.34431 352.11454,355.21021 362.68574,374.46329 C 352.55713,374.44154 355.0053,374.4937 346.36713,374.46329 C 343.56545,355.7042 329.01358,336.7121 328.11919,331.0423 Z"
     style="opacity:1;fill:#607d8b;fill-opacity:1;stroke:none;stroke-width:1;stroke-linecap:round;stroke-linejoin:round;stroke-miterlimit:4;stroke-dasharray:none;stroke-opacity:1" />
  <path
     sodipodi:nodetypes="zzsssszz"
     inkscape:connector-curvature="0"
     id="velum"
     d="M 184.15989,114.97788 C 188.54236,121.92861 249.28208,131.03306 256.36425,137.16964 C 263.44643,143.30621 268.40381,148.27789 272.6704,159.73351 C 276.937,171.18913 278.06241,182.11211 281.72021,182.1483 C 288.26484,182.21305 288.1687,168.52983 288.6884,156.66541 C 289.20811,144.80099 286.00523,130.7746 278.74568,126.80001 C 271.48614,122.82542 265.20206,117.87831 246.33616,116.6576 C 227.47026,115.43689 179.77742,108.02715 184.15989,114.97788 Z"
     style="display:inline;fill:#263238;fill-rule:evenodd;stroke:none;stroke-width:1px;stroke-linecap:round;stroke-linejoin:round;stroke-opacity:1" />
  <path
     sodipodi:nodetypes="zszzzzcccscczz"
     inkscape:connector-curvature="0"
     id="upperHead"
     d="M 29.29594,112.42452 C 28.492456,100.98157 25.400021,94.993415 32.379011,84.459555 C 45.523302,64.619981 69.07731,43.401901 104.36701,33.199776 C 139.6567,22.99765 189.45091,31.349583 209.25263,36.459638 C 229.05435,41.569692 232.14117,75.715145 250.74896,85.697725 C 269.35676,95.680295 283.55934,103.58614 306.25908,132.96394 C 328.95881,162.34172 327.53364,203.2183 340.9344,252.01852 C 350.88318,288.09649 397.95424,374.06385 397.95424,374.06385 L 455.28033,374.06385 C 424.67469,286.85865 378.53344,235.50083 415.75433,187.76953 C 452.97522,140.03823 464.2333,59.256641 427.06846,11.473088 L 69.496244,11.473088 C 55.546888,28.97883 3.8369697,91.653565 5.3112209,109.81732 C 6.7854719,127.98107 30.099424,123.86747 29.29594,112.42452 Z"
     style="display:inline;fill:#607d8b;fill-rule:evenodd;stroke:none;stroke-width:1px;stroke-linecap:round;stroke-linejoin:round;stroke-opacity:1" />
  <path
     style="fill:#cfd8dc;fill-rule:evenodd;stroke:none;stroke-width:1px;stroke-linecap:butt;stroke-linejoin:miter;stroke-opacity:1"
     d="M 110.90133,268.42009 C 107.53546,270.48082 94.977187,241.91251 93.882465,236.17178 C 92.787731,230.43107 96.831701,205.66725 101.24979,205.93181 C 105.66791,206.19639 111.07351,225.36996 112.14582,231.27825 C 113.21812,237.18655 114.2672,266.35936 110.90133,268.42009 Z"
     id="lowerTeeth"
     inkscape:connector-curvature="0"
     sodipodi:nodetypes="zzzzz" />
  <path
     sodipodi:nodetypes="zsszzzssszsz"
     inkscape:connector-curvature="0"
     id="upperLip"
     d="M 88.021585,109.97663 C 85.089326,107.56678 64.169004,113.17418 54.235532,115.38119 C 42.819949,117.91748 39.390919,128.23662 47.22589,132.76509 C 55.060872,137.29358 60.332628,136.0039 63.689198,139.99216 C 67.045768,143.98042 67.754887,148.80106 67.17884,153.5057 C 66.602792,158.21035 65.364182,170.94352 63.721115,176.05632 C 62.078047,181.16913 58.386428,184.48527 58.55774,191.40087 C 58.729055,198.31649 65.181873,205.05853 73.639257,205.38386 C 82.096642,205.70918 87.698674,197.59907 87.740464,192.18303 C 87.778809,187.21457 88.358033,173.90448 87.025055,165.00369 C 85.692077,156.1029 90.095297,147.32462 90.129566,133.50532 C 90.159292,121.51398 90.953844,112.38648 88.021585,109.97663 Z"
     style="display:inline;fill:#607d8b;fill-rule:evenodd;stroke:none;stroke-width:1px;stroke-linecap:round;stroke-linejoin:round;stroke-opacity:1" />
  <path
     style="display:inline;fill:#9e9e9e;fill-rule:evenodd;stroke:none;stroke-width:1px;stroke-linecap:round;stroke-linejoin:round;stroke-opacity:1"
     d="M 87.180707,169.5854 C 90.354429,180.004 105.46937,179.95997 109.24899,170.63206 C 113.02861,161.30416 113.989,152.74754 124.52491,144.87184 C 135.06082,136.99614 146.19071,129.59034 161.07198,124.93708 C 175.36653,120.46729 189.86954,123.68534 204.67125,124.90088 C 219.47296,126.11642 262.70346,128.2597 261.61406,122.82194 C 260.52466,117.38418 234.38253,115.37464 218.78205,113.51882 C 207.48767,112.15947 195.99807,110.91185 179.37033,110.12092 C 150.11711,108.72944 91.77274,105.66291 88.298941,109.67378 C 84.825142,113.68465 84.006985,159.1668 87.180707,169.5854 Z"
     id="pallette"
     inkscape:connector-curvature="0"
     sodipodi:nodetypes="zzzszzcszz" />
  <path
     sodipodi:nodetypes="zzzzz"
     inkscape:connector-curvature="0"
     id="upperTeeth"
     d="M 104.03385,136.90709 C 100.60402,134.95466 88.962537,163.90868 88.051303,169.68137 C 87.140078,175.45405 91.971142,200.07643 96.378576,199.67119 C 100.786,199.26596 105.57785,179.92987 106.46133,173.99041 C 107.34481,168.05093 107.46369,138.85952 104.03385,136.90709 Z"
     style="fill:#cfd8dc;fill-rule:evenodd;stroke:none;stroke-width:1px;stroke-linecap:butt;stroke-linejoin:miter;stroke-opacity:1" />
  <path
     sodipodi:nodetypes="sssss"
     inkscape:connector-curvature="0"
     id="larynx"
     d="M 338.61381,354.40757 C 338.61382,357.78762 330.15085,360.5277 317.77624,360.5277 C 305.40164,360.5277 295.37005,357.78762 295.37006,354.40757 C 295.37007,351.02752 305.40165,348.28745 317.77624,348.28745 C 330.15083,348.28745 338.6138,351.02752 338.61381,354.40757 Z"
     style="opacity:1;fill:#263238;fill-opacity:1;stroke:none;stroke-width:4;stroke-linecap:round;stroke-linejoin:round;stroke-miterlimit:4;stroke-dasharray:none;stroke-opacity:1" />
</svg>
