<?xml version="1.0" encoding="UTF-8" standalone="no"?>
<!-- Created with Inkscape (http://www.inkscape.org/) -->

<svg
   xmlns:dc="http://purl.org/dc/elements/1.1/"
   xmlns:cc="http://creativecommons.org/ns#"
   xmlns:rdf="http://www.w3.org/1999/02/22-rdf-syntax-ns#"
   xmlns:svg="http://www.w3.org/2000/svg"
   xmlns="http://www.w3.org/2000/svg"
   xmlns:sodipodi="http://sodipodi.sourceforge.net/DTD/sodipodi-0.dtd"
   xmlns:inkscape="http://www.inkscape.org/namespaces/inkscape"
   width="512"
   height="512"
   viewBox="0 0 512 512"
   id="svg2"
   version="1.1"
   inkscape:version="0.91 r13725"
   sodipodi:docname="icon.svg"
   inkscape:export-filename="/home/mwibrow/Pictures/CALVin/icon.png"
   inkscape:export-xdpi="90"
   inkscape:export-ydpi="90">
  <defs
     id="defs4">
    <filter
       inkscape:collect="always"
       style="color-interpolation-filters:sRGB"
       id="filter5019"
       x="-0.029804419"
       width="1.0596088"
       y="-0.030196865"
       height="1.0603937">
      <feGaussianBlur
         inkscape:collect="always"
         stdDeviation="3.2114228"
         id="feGaussianBlur5021" />
    </filter>
  </defs>
  <sodipodi:namedview
     id="base"
     pagecolor="#ffffff"
     bordercolor="#666666"
     borderopacity="1.0"
     inkscape:pageopacity="0.0"
     inkscape:pageshadow="2"
     inkscape:zoom="0.85881057"
     inkscape:cx="261.72355"
     inkscape:cy="208.03863"
     inkscape:document-units="px"
     inkscape:current-layer="text4157"
     showgrid="true"
     units="px"
     inkscape:window-width="1920"
     inkscape:window-height="1031"
     inkscape:window-x="0"
     inkscape:window-y="25"
     inkscape:window-maximized="1">
    <inkscape:grid
       type="xygrid"
       id="grid4973" />
  </sodipodi:namedview>
  <metadata
     id="metadata7">
    <rdf:RDF>
      <cc:Work
         rdf:about="">
        <dc:format>image/svg+xml</dc:format>
        <dc:type
           rdf:resource="http://purl.org/dc/dcmitype/StillImage" />
        <dc:title></dc:title>
      </cc:Work>
    </rdf:RDF>
  </metadata>
  <g
     inkscape:label="Layer 1"
     inkscape:groupmode="layer"
     id="layer1"
     transform="translate(0,-540.36216)">
    <g
       style="font-style:normal;font-variant:normal;font-weight:normal;font-stretch:normal;font-size:40px;line-height:125%;font-family:'Crafty Girls';-inkscape-font-specification:'Crafty Girls';letter-spacing:0px;word-spacing:0px;fill:#000000;fill-opacity:1;stroke:#000000;stroke-width:3.21142268;stroke-linecap:round;stroke-linejoin:round;stroke-miterlimit:4;stroke-dasharray:none;stroke-opacity:1"
       id="text4157"
       transform="matrix(1.8561505,0,0,1.8805911,-913.77661,277.07196)">
      <ellipse
         ry="127.61945"
         rx="129.29987"
         cy="276.13138"
         cx="630.21649"
         id="ellipse5001"
         style="color:#000000;clip-rule:nonzero;display:inline;overflow:visible;visibility:visible;opacity:0.507;isolation:auto;mix-blend-mode:normal;color-interpolation:sRGB;color-interpolation-filters:linearRGB;solid-color:#000000;solid-opacity:1;fill:#263238;fill-opacity:1;fill-rule:nonzero;stroke:none;stroke-width:8.56379379;stroke-linecap:butt;stroke-linejoin:round;stroke-miterlimit:4;stroke-dasharray:none;stroke-dashoffset:36;stroke-opacity:1;color-rendering:auto;image-rendering:auto;shape-rendering:auto;text-rendering:auto;enable-background:accumulate;filter:url(#filter5019)" />
      <ellipse
         style="color:#000000;clip-rule:nonzero;display:inline;overflow:visible;visibility:visible;opacity:1;isolation:auto;mix-blend-mode:normal;color-interpolation:sRGB;color-interpolation-filters:linearRGB;solid-color:#000000;solid-opacity:1;fill:#b71c1c;fill-opacity:1;fill-rule:nonzero;stroke:none;stroke-width:8.56379414;stroke-linecap:butt;stroke-linejoin:round;stroke-miterlimit:4;stroke-dasharray:none;stroke-dashoffset:36;stroke-opacity:1;color-rendering:auto;image-rendering:auto;shape-rendering:auto;text-rendering:auto;enable-background:accumulate"
         id="path4975"
         cx="630.21649"
         cy="271.87735"
         rx="129.29987"
         ry="127.61945" />
      <text
         xml:space="preserve"
         style="font-style:normal;font-variant:normal;font-weight:normal;font-stretch:normal;font-size:2.10893798px;line-height:125%;font-family:'Crafty Girls';-inkscape-font-specification:'Crafty Girls';text-align:center;letter-spacing:0px;word-spacing:0px;text-anchor:middle;fill:#000000;fill-opacity:1;stroke:#000000;stroke-width:1.07047427;stroke-linecap:butt;stroke-linejoin:miter;stroke-miterlimit:4;stroke-dasharray:none;stroke-opacity:1"
         x="-1143.6205"
         y="57.374107"
         id="text4193"
         sodipodi:linespacing="125%"
         transform="scale(-1.0927675,-0.91510773)"><tspan
           sodipodi:role="line"
           id="tspan4195"
           x="-1143.6205"
           y="57.374107"
           style="stroke-width:1.07047427">Computer Assisted Vowel</tspan><tspan
           sodipodi:role="line"
           x="-1143.6205"
           y="60.010281"
           id="tspan4197"
           style="stroke-width:1.07047427">Learning interface</tspan></text>
      <path
         style="font-style:normal;font-variant:normal;font-weight:normal;font-stretch:normal;font-size:medium;line-height:125%;font-family:'Crafty Girls';-inkscape-font-specification:'Crafty Girls';letter-spacing:0px;word-spacing:0px;fill:#ffffff;fill-opacity:1;stroke:none;stroke-width:10;stroke-linecap:butt;stroke-linejoin:miter;stroke-miterlimit:4;stroke-dasharray:none;stroke-opacity:1"
         d="M 652.99021,186.79671 C 651.03977,186.79671 649.08968,186.95786 647.14499,187.27756 L 647.13446,187.27964 L 647.125,187.28068 C 636.70006,189.06908 627.39149,191.00962 619.18894,193.10705 C 619.18649,193.10767 619.18403,193.1085 619.18158,193.10913 C 610.99027,195.09425 602.96525,198.21846 595.12094,202.46665 C 584.12985,208.42201 575.14998,216.18919 568.29291,225.72022 C 561.5758,235.05667 555.77655,245.07012 550.89614,255.7515 L 550.78355,255.99765 L 550.72252,256.26144 C 548.72971,264.8804 547.72257,273.01274 547.72257,280.6616 C 547.72257,283.57399 547.87841,286.34867 548.19292,288.98574 C 549.12595,299.17326 551.6063,308.38308 555.66807,316.55041 L 555.67754,316.56807 L 555.68701,316.5878 C 559.88853,324.72319 565.35907,331.81531 572.06416,337.81409 L 572.08836,337.8359 L 572.11361,337.85771 C 578.9689,343.69776 586.77073,348.23573 595.46713,351.45259 L 595.55868,351.48582 L 595.65444,351.51386 C 605.61562,354.38606 615.81158,356.12616 626.22847,356.7306 L 626.24951,356.73267 L 626.27371,356.73267 C 629.91633,356.88239 633.4848,356.95701 636.9803,356.95701 C 643.54033,356.95701 650.1003,356.58169 656.65834,355.83016 C 656.66432,355.82952 656.67024,355.82873 656.67622,355.82808 C 666.4488,354.77262 675.70904,352.88627 684.44918,350.16372 C 693.17981,347.44412 700.95711,344.10728 707.77324,340.13425 L 708.49613,339.71259 L 708.84969,338.95652 C 709.8967,336.71879 710.45541,334.38355 710.45541,332.0386 C 710.45541,331.23141 710.35282,330.40647 710.17972,329.54292 C 709.58411,326.2663 707.22683,323.56418 704.05881,322.58762 L 703.98411,322.56477 L 703.91045,322.54711 C 703.15818,322.3616 702.43551,322.24593 701.69126,322.24593 C 700.49606,322.24593 699.3309,322.43537 698.25358,322.9667 C 696.813,323.67721 695.51382,324.58722 694.40026,325.68568 C 693.43158,326.64119 692.54361,327.67657 691.73281,328.78165 C 691.13946,329.47931 690.51447,330.03293 689.8493,330.47036 C 688.71465,331.21652 687.23969,331.9513 685.44565,332.63475 C 683.54565,333.2126 681.51196,333.85902 679.34158,334.57167 C 677.14776,335.14823 674.95549,335.65357 672.764,336.08591 C 670.5127,336.53006 668.48373,336.97589 666.65256,337.42566 C 661.70113,338.43067 656.19931,339.0842 650.15441,339.37506 L 650.15231,339.37506 C 647.19202,339.52107 644.15354,339.59316 641.03881,339.59316 C 637.92408,339.59316 634.8856,339.52107 631.92532,339.37506 L 631.92426,339.37506 L 631.92006,339.37506 C 625.67998,339.08195 619.82411,338.56904 614.35177,337.84006 C 608.92909,336.9701 604.42862,335.88642 600.89882,334.63295 L 600.88304,334.62672 L 600.86515,334.62257 C 592.99595,331.94103 586.43042,327.68731 581.01981,321.79311 C 575.4808,315.60855 571.37448,309.26417 568.65067,302.75925 L 568.63909,302.73224 L 568.62647,302.70316 C 567.12175,299.32978 566.12495,295.25198 565.69386,290.44908 C 565.54964,288.3011 565.47605,286.07901 565.47605,283.77731 C 565.47605,281.20884 565.62127,278.48078 565.91378,275.59546 L 565.91589,275.57572 L 565.91589,275.55703 C 566.35333,270.52291 567.22869,265.56344 568.54124,260.67224 C 569.84231,255.82383 571.56455,251.51748 573.69303,247.73582 C 579.22625,238.11547 586.23779,230.35579 594.77686,224.35969 C 603.40458,218.30133 612.69392,213.18225 622.63715,208.9764 C 625.67626,208.93042 628.63228,208.68959 631.43707,208.10712 C 634.44187,207.51423 637.37445,206.9212 640.23069,206.32805 L 640.29487,206.31454 L 640.35906,206.29897 C 643.12002,205.58227 645.95593,205.00724 648.87067,204.57598 L 648.96327,204.56248 L 649.05271,204.54274 C 650.20305,204.29058 651.43681,204.16055 652.76398,204.16055 C 654.09115,204.16055 655.41923,204.2904 656.75619,204.55417 L 656.89404,204.58221 L 657.03504,204.59364 C 658.21427,204.69938 659.44863,205.12006 660.81049,205.97493 L 660.85364,206.00193 L 660.89888,206.02686 C 662.82602,207.13575 664.83591,208.08734 666.92193,208.87877 L 667.04715,208.92759 L 667.17552,208.96082 C 669.08439,209.47434 671.12453,209.72106 673.2817,209.72106 C 674.82668,209.72106 675.98091,209.9289 676.77515,210.21126 C 678.40951,210.96938 679.84407,211.93867 681.09778,213.17534 C 682.53743,214.59543 683.9877,216.16714 685.44355,217.89045 L 685.48037,217.93302 L 685.51931,217.97665 C 687.01973,219.60469 688.44296,221.15968 689.79248,222.63878 L 689.84193,222.68968 L 689.89033,222.74056 C 691.11769,223.95124 692.4492,224.89678 693.82994,225.70672 L 693.82994,225.94871 C 693.82994,228.21588 694.28106,230.39766 695.19365,232.3868 C 695.65767,233.41666 695.85971,234.35811 695.85972,235.29064 C 695.85972,236.07019 695.74889,236.73563 695.54931,237.32624 C 695.38729,237.80568 694.44862,239.17804 692.52937,240.80233 C 690.71625,242.31514 688.59577,243.7832 686.16434,245.19548 C 683.83502,246.48722 681.58702,247.62986 679.41944,248.62899 C 677.45169,249.45293 675.9122,249.74026 676.21325,249.74026 L 675.53666,249.74026 C 673.55456,249.74026 671.64553,249.13993 669.60937,247.76179 C 667.49516,246.28937 665.63459,244.9023 663.84412,243.54104 C 663.92068,242.31069 664.00827,241.06131 664.00827,239.96109 C 664.00827,238.52615 663.92936,237.21863 663.75573,236.01972 C 663.37348,233.38032 662.14263,230.8618 660.26754,228.50774 L 659.62672,227.70078 L 658.6092,227.53461 C 657.58989,227.36703 656.6231,227.27704 655.69553,227.27704 C 653.03016,227.27704 650.58901,227.90551 648.76018,229.484 L 648.7465,229.49646 L 648.73283,229.50788 C 646.7243,231.291 645.57303,233.84928 645.37301,236.61482 C 645.22124,237.57906 645.12678,238.54833 645.12678,239.51762 C 645.12678,241.27105 645.28914,243.02277 645.60345,244.76863 C 645.90357,247.42963 646.20275,249.8771 646.50417,252.10716 L 646.56415,252.55687 L 646.76934,252.95879 C 647.55359,254.50595 648.69012,255.8383 650.09548,256.8285 L 650.26594,256.94897 L 650.45325,257.04141 C 651.6161,257.61496 652.69994,258.1856 653.70469,258.75193 L 653.76992,258.78724 L 653.83411,258.82048 C 654.91762,259.35487 655.92483,259.95047 656.85931,260.60889 C 657.6074,261.13599 658.26166,261.82409 658.84595,262.74627 L 659.55306,263.86169 L 660.86732,263.97801 C 663.95151,264.25459 666.43859,264.87507 668.32984,265.74566 L 668.39613,265.77682 L 668.46663,265.80486 C 671.04244,266.8212 674.06259,267.44647 677.55276,267.75945 L 678.08941,267.80826 L 678.60501,267.64209 C 683.8941,265.95415 688.95541,263.729 693.77733,260.9672 L 693.80469,260.95058 L 693.83205,260.93397 C 698.7185,257.97972 702.80198,254.51772 706.02546,250.54308 L 706.04124,250.52335 L 706.05702,250.50361 C 709.31094,246.33097 711.4589,241.60701 712.43784,236.45695 L 712.45362,236.37698 L 712.46309,236.29494 C 712.6274,234.99837 712.71143,233.69954 712.71143,232.4003 C 712.71143,228.22319 711.61286,223.84475 709.53891,219.28109 L 709.53154,219.26343 L 709.52102,219.2437 C 708.36447,216.79906 706.86392,214.58088 705.04477,212.61347 C 703.44803,210.72907 701.69555,208.99546 699.78354,207.42374 C 698.00619,205.81885 696.15957,204.21499 694.24242,202.61308 C 694.24143,202.61218 694.24131,202.60983 694.24032,202.60893 C 692.61222,201.13631 691.0972,199.37922 689.70304,197.31638 L 689.06432,196.37128 L 687.93947,196.1781 C 684.65016,195.61381 681.43483,194.76919 678.28723,193.64296 C 675.11241,192.30444 671.86374,191.11573 668.54344,190.07028 C 665.24952,188.83538 661.87371,187.90393 658.4219,187.28483 C 656.61587,186.96094 654.80368,186.79671 652.99021,186.79671 Z"
         id="path4273"
         inkscape:connector-curvature="0" />
    </g>
  </g>
</svg>
