<?xml version="1.0" encoding="UTF-8" standalone="no"?>
<!-- Created with Inkscape (http://www.inkscape.org/) -->

<svg
   xmlns:dc="http://purl.org/dc/elements/1.1/"
   xmlns:cc="http://creativecommons.org/ns#"
   xmlns:rdf="http://www.w3.org/1999/02/22-rdf-syntax-ns#"
   xmlns:svg="http://www.w3.org/2000/svg"
   xmlns="http://www.w3.org/2000/svg"
   xmlns:sodipodi="http://sodipodi.sourceforge.net/DTD/sodipodi-0.dtd"
   xmlns:inkscape="http://www.inkscape.org/namespaces/inkscape"
   width="512"
   height="512"
   viewBox="0 0 512 512"
   id="svg2"
   version="1.1"
   inkscape:version="0.91 r13725"
   sodipodi:docname="icon-16.svg"
   inkscape:export-filename="/home/mwibrow/Pictures/CALVin/icon.png"
   inkscape:export-xdpi="90"
   inkscape:export-ydpi="90">
  <defs
     id="defs4" />
  <sodipodi:namedview
     id="base"
     pagecolor="#ffffff"
     bordercolor="#666666"
     borderopacity="1.0"
     inkscape:pageopacity="0.0"
     inkscape:pageshadow="2"
     inkscape:zoom="0.85881057"
     inkscape:cx="261.72355"
     inkscape:cy="357.22355"
     inkscape:document-units="px"
     inkscape:current-layer="text4157"
     showgrid="true"
     units="px"
     inkscape:window-width="1920"
     inkscape:window-height="1031"
     inkscape:window-x="0"
     inkscape:window-y="25"
     inkscape:window-maximized="1">
    <inkscape:grid
       type="xygrid"
       id="grid4973" />
  </sodipodi:namedview>
  <metadata
     id="metadata7">
    <rdf:RDF>
      <cc:Work
         rdf:about="">
        <dc:format>image/svg+xml</dc:format>
        <dc:type
           rdf:resource="http://purl.org/dc/dcmitype/StillImage" />
        <dc:title></dc:title>
      </cc:Work>
    </rdf:RDF>
  </metadata>
  <g
     inkscape:label="Layer 1"
     inkscape:groupmode="layer"
     id="layer1"
     transform="translate(0,-540.36216)">
    <g
       style="font-style:normal;font-variant:normal;font-weight:normal;font-stretch:normal;font-size:40px;line-height:125%;font-family:'Crafty Girls';-inkscape-font-specification:'Crafty Girls';letter-spacing:0px;word-spacing:0px;fill:#000000;fill-opacity:1;stroke:#000000;stroke-width:3.21142268;stroke-linecap:round;stroke-linejoin:round;stroke-miterlimit:4;stroke-dasharray:none;stroke-opacity:1"
       id="text4157"
       transform="matrix(1.8561505,0,0,1.8805911,-913.77661,277.07196)">
      <rect
         style="color:#000000;clip-rule:nonzero;display:inline;overflow:visible;visibility:visible;opacity:1;isolation:auto;mix-blend-mode:normal;color-interpolation:sRGB;color-interpolation-filters:linearRGB;solid-color:#000000;solid-opacity:1;fill:#b71c1c;fill-opacity:1;fill-rule:nonzero;stroke:none;stroke-width:10;stroke-linecap:butt;stroke-linejoin:round;stroke-miterlimit:4;stroke-dasharray:none;stroke-dashoffset:36;stroke-opacity:1;color-rendering:auto;image-rendering:auto;shape-rendering:auto;text-rendering:auto;enable-background:accumulate"
         id="rect5042"
         width="275.83969"
         height="272.25482"
         x="492.29663"
         y="140.00397" />
      <text
         xml:space="preserve"
         style="font-style:normal;font-variant:normal;font-weight:normal;font-stretch:normal;font-size:2.10893798px;line-height:125%;font-family:'Crafty Girls';-inkscape-font-specification:'Crafty Girls';text-align:center;letter-spacing:0px;word-spacing:0px;text-anchor:middle;fill:#000000;fill-opacity:1;stroke:#000000;stroke-width:1.07047427;stroke-linecap:butt;stroke-linejoin:miter;stroke-miterlimit:4;stroke-dasharray:none;stroke-opacity:1"
         x="-1143.6205"
         y="57.374107"
         id="text4193"
         sodipodi:linespacing="125%"
         transform="scale(-1.0927675,-0.91510773)"><tspan
           sodipodi:role="line"
           id="tspan4195"
           x="-1143.6205"
           y="57.374107"
           style="stroke-width:1.07047427">Computer Assisted Vowel</tspan><tspan
           sodipodi:role="line"
           x="-1143.6205"
           y="60.010281"
           id="tspan4197"
           style="stroke-width:1.07047427">Learning interface</tspan></text>
      <path
         style="font-style:normal;font-weight:normal;font-size:278.32330322px;line-height:125%;font-family:sans-serif;letter-spacing:0px;word-spacing:0px;fill:#ffffff;fill-opacity:1;stroke:none;stroke-width:20;stroke-linecap:butt;stroke-linejoin:miter;stroke-miterlimit:4;stroke-dasharray:none;stroke-opacity:1"
         d="M 307.29102 57.855469 C 302.67293 57.855469 298.05271 58.241885 293.45703 59.007812 L 293.42383 59.011719 L 293.38867 59.019531 C 269.8669 63.110268 248.83944 67.550153 230.25781 72.363281 C 211.4226 76.983235 192.98994 84.262589 175.01562 94.130859 C 149.78326 107.99085 129.0677 126.14366 113.27539 148.39648 C 97.999068 169.92222 84.811481 193.00757 73.720703 217.61523 L 73.308594 218.52344 L 73.085938 219.49805 C 68.543919 239.41296 66.236328 258.26484 66.236328 276.05859 C 66.236328 282.80869 66.59596 289.25678 67.316406 295.41406 C 69.454395 319.06746 75.144231 340.56649 84.521484 359.68164 L 84.554688 359.75 L 84.591797 359.81641 C 94.256754 378.78834 106.87456 395.3865 122.33008 409.4043 L 122.41797 409.48438 L 122.51172 409.56445 C 138.30619 423.20513 156.3095 433.81503 176.31836 441.31836 L 176.66406 441.44922 L 177.02148 441.55664 C 199.74667 448.19938 223.0203 452.22143 246.78125 453.61914 L 246.86523 453.62305 L 246.94922 453.62695 C 255.20697 453.97103 263.30299 454.14453 271.23438 454.14453 C 286.15732 454.14453 301.07891 453.27865 315.99414 451.54688 L 316.01562 451.54297 C 338.27599 449.10685 359.40324 444.75042 379.36328 438.44727 C 399.27398 432.15968 417.0746 424.42583 432.72852 415.17578 L 435.41406 413.58984 L 436.7207 410.75781 C 439.28345 405.2052 440.6875 399.30279 440.6875 393.36328 C 440.6875 391.22717 440.42458 389.12626 440.00391 386.98438 C 438.46325 378.42782 431.81599 370.67259 423.51367 368.07812 L 423.23633 367.99023 L 422.95508 367.92188 C 421.03023 367.44065 419.10135 367.11523 416.97461 367.11523 C 413.83226 367.11523 410.5688 367.61208 407.42578 369.18359 C 403.82303 370.98496 400.53566 373.31785 397.71875 376.13477 C 395.42811 378.4254 393.32493 380.90322 391.40625 383.53906 C 390.3115 384.82945 389.20783 385.81001 388.07031 386.56836 C 385.83012 388.06179 382.76821 389.61495 378.95508 391.08984 C 374.74969 392.38852 370.26794 393.82793 365.49414 395.41602 C 360.66895 396.69929 355.84956 397.82971 351.0332 398.79297 C 345.97941 399.80373 341.41987 400.81797 337.26367 401.84961 C 326.34661 404.09725 314.15453 405.56864 300.70703 406.22461 L 300.70117 406.22461 L 300.69727 406.22852 C 294.10077 406.55835 287.32563 406.7207 280.375 406.7207 C 273.42435 406.7207 266.64923 406.55835 260.05273 406.22852 L 260.04297 406.22461 L 260.03125 406.22461 C 246.11664 405.562 233.08195 404.40186 220.91406 402.76172 C 208.87819 400.80378 198.96361 398.38058 191.3418 395.63672 L 191.2793 395.61328 L 191.2168 395.5918 C 174.09253 389.67615 159.9339 380.37038 148.18359 367.39648 C 135.96378 353.56007 126.97086 339.45368 121.02344 325.05469 L 120.98047 324.94922 L 120.93555 324.84375 C 117.75641 317.61841 115.58818 308.72005 114.64453 298.0918 C 114.32819 293.29463 114.16211 288.32338 114.16211 283.16797 C 114.16211 277.4446 114.48334 271.34248 115.13086 264.86719 L 115.13672 264.79492 L 115.14453 264.72461 C 116.11103 253.4489 118.03944 242.3462 120.93945 231.39062 C 123.79906 220.58764 127.57137 211.06081 132.18945 202.74219 C 144.39628 181.23479 159.77829 163.99021 178.51758 150.65039 C 197.46227 137.16435 217.84095 125.75413 239.64844 116.33203 C 246.49958 116.19102 253.16376 115.55225 259.54688 114.21094 C 266.327 112.85469 272.94375 111.49982 279.39062 110.14258 L 279.63086 110.0918 L 279.87109 110.02539 C 285.94427 108.42719 292.19294 107.14723 298.61719 106.18359 L 298.95898 106.13281 L 299.30273 106.05469 C 301.58396 105.54776 304.06054 105.27734 306.7793 105.27734 C 309.49806 105.27734 312.21971 105.54824 314.97656 106.09961 L 315.50195 106.20508 L 316.03125 106.25195 C 317.95933 106.42722 320.10808 107.11798 322.74023 108.79297 L 322.9043 108.89453 L 323.07031 108.99219 C 327.59529 111.63175 332.31471 113.89928 337.21289 115.7832 L 337.6875 115.96289 L 338.17383 116.09766 C 342.86256 117.3764 347.82192 117.97266 352.99219 117.97266 C 356.10777 117.97266 358.20324 118.40497 359.4043 118.82812 C 362.56857 120.34949 365.31632 122.25187 367.75586 124.69141 C 370.90556 127.8411 374.09223 131.34076 377.30273 135.19336 L 377.44141 135.36133 L 377.58594 135.51758 C 380.9612 139.23037 384.16465 142.77673 387.19922 146.14844 L 387.37695 146.3418 L 387.5625 146.52734 C 390.02353 148.98838 392.69534 151.04758 395.47461 152.88086 C 395.68528 157.94819 396.66534 162.91532 398.73242 167.46289 L 398.69727 167.38477 C 399.54898 169.30114 399.86719 170.89946 399.86719 172.46484 C 399.86719 173.88226 399.67337 174.97786 399.36523 175.90234 C 399.40355 175.78736 397.78058 178.63484 393.74414 182.10547 C 389.86417 185.3871 385.27725 188.61175 379.98047 191.73242 C 374.85606 194.61174 369.91614 197.15386 365.17188 199.37305 C 360.8987 201.17591 357.31471 201.56641 359.59375 201.56641 L 358.07227 201.56641 C 354.47759 201.56641 351.03712 200.52696 346.98828 197.74609 C 346.98416 197.74327 346.98264 197.7411 346.97852 197.73828 C 342.87188 194.83768 339.33998 192.1385 335.79297 189.4375 C 335.89333 187.32774 336.07812 185.08185 336.07812 183.12695 C 336.07812 179.70971 335.89212 176.55362 335.46875 173.58984 C 334.49468 166.77137 331.37455 160.38879 326.83203 154.60742 L 324.4375 151.55859 L 320.61328 150.92188 C 318.1377 150.50929 315.74023 150.2793 313.38086 150.2793 C 306.74718 150.2793 300.15651 151.89726 295.11719 156.30664 L 295.06641 156.35156 L 295.01562 156.39844 C 289.80519 161.08782 286.77529 167.92982 286.20703 174.93555 C 285.83877 177.31773 285.60742 179.7132 285.60742 182.11328 C 285.60742 186.25617 285.98288 190.39799 286.69922 194.51562 C 287.37815 200.61875 288.05849 206.23758 288.74219 211.36523 L 288.96484 213.02148 L 289.71289 214.51367 C 291.73788 218.56366 294.74228 222.14598 298.43164 224.78125 L 299.07031 225.23828 L 299.76953 225.58789 C 302.32879 226.86752 304.7048 228.13823 306.89648 229.39062 L 307.13672 229.52539 L 307.38477 229.65039 C 309.64587 230.78095 311.73606 232.03749 313.66602 233.41602 C 314.8995 234.29707 316.01053 235.45398 317.08789 237.17773 L 319.71875 241.38867 L 324.66406 241.83789 C 331.26845 242.43831 336.41777 243.77984 340.12891 245.51172 L 340.38477 245.62891 L 340.64648 245.73438 C 346.93414 248.24944 354.10042 249.73054 362.24219 250.4707 L 364.2793 250.6582 L 366.22656 250.02734 C 378.41002 246.08564 390.075 240.88034 401.17773 234.43359 L 401.2793 234.37109 L 401.38281 234.31055 C 412.72675 227.35781 422.28998 219.15607 429.86328 209.68945 L 429.92188 209.61328 L 429.98047 209.53906 C 437.66547 199.54854 442.77615 188.15937 445.08789 175.83008 L 445.14258 175.53125 L 445.18164 175.22656 C 445.57106 172.11114 445.76562 168.98826 445.76562 165.86328 C 445.76562 155.6664 443.12884 145.14608 438.28906 134.34961 L 438.25586 134.28125 L 438.22656 134.21094 C 435.47712 128.31933 431.88986 122.94405 427.55664 118.17773 C 423.88569 113.792 419.8586 109.74323 415.47656 106.06836 C 411.44764 102.37865 407.25391 98.696266 402.91406 95.017578 C 399.50062 91.888594 396.28989 88.115518 393.30273 83.634766 L 390.92383 80.066406 L 386.69922 79.333984 C 379.52119 78.085612 372.51028 76.215779 365.63867 73.722656 C 358.45646 70.660973 351.11133 67.932408 343.60742 65.535156 C 336.00918 62.657739 328.21242 60.481277 320.24805 59.033203 C 315.94688 58.251178 311.62101 57.855469 307.29102 57.855469 z "
         transform="matrix(0.53874942,0,0,0.5317477,492.29662,140.00396)"
         id="text5044" />
    </g>
  </g>
</svg>
