<?xml version="1.0" encoding="UTF-8" standalone="no"?>
<!-- Created with Inkscape (http://www.inkscape.org/) -->

<svg
   xmlns:dc="http://purl.org/dc/elements/1.1/"
   xmlns:cc="http://creativecommons.org/ns#"
   xmlns:rdf="http://www.w3.org/1999/02/22-rdf-syntax-ns#"
   xmlns:svg="http://www.w3.org/2000/svg"
   xmlns="http://www.w3.org/2000/svg"
   xmlns:sodipodi="http://sodipodi.sourceforge.net/DTD/sodipodi-0.dtd"
   xmlns:inkscape="http://www.inkscape.org/namespaces/inkscape"
   width="2732"
   height="2732"
   viewBox="0 0 2732 2732"
   id="svg2"
   version="1.1"
   inkscape:version="0.91 r13725"
   sodipodi:docname="splash.svg"
   inkscape:export-filename="/home/mwibrow/github/kau/CALVin/resources/splash.png"
   inkscape:export-xdpi="90"
   inkscape:export-ydpi="90">
  <defs
     id="defs4" />
  <sodipodi:namedview
     id="base"
     pagecolor="#ffffff"
     bordercolor="#666666"
     borderopacity="1.0"
     inkscape:pageopacity="0.0"
     inkscape:pageshadow="2"
     inkscape:zoom="0.24822695"
     inkscape:cx="1882.0177"
     inkscape:cy="1561.3192"
     inkscape:document-units="px"
     inkscape:current-layer="layer1"
     showgrid="true"
     units="px"
     inkscape:object-paths="true"
     inkscape:object-nodes="true"
     inkscape:window-width="1920"
     inkscape:window-height="1031"
     inkscape:window-x="0"
     inkscape:window-y="25"
     inkscape:window-maximized="1">
    <inkscape:grid
       type="xygrid"
       id="grid4136"
       empspacing="683"
       visible="false" />
    <inkscape:grid
       type="xygrid"
       id="grid4229"
       empspacing="6" />
  </sodipodi:namedview>
  <metadata
     id="metadata7">
    <rdf:RDF>
      <cc:Work
         rdf:about="">
        <dc:format>image/svg+xml</dc:format>
        <dc:type
           rdf:resource="http://purl.org/dc/dcmitype/StillImage" />
        <dc:title></dc:title>
      </cc:Work>
    </rdf:RDF>
  </metadata>
  <g
     inkscape:label="Layer 1"
     inkscape:groupmode="layer"
     id="layer1"
     transform="translate(0,1679.6378)">
    <rect
       style="color:#000000;clip-rule:nonzero;display:inline;overflow:visible;visibility:visible;opacity:1;isolation:auto;mix-blend-mode:normal;color-interpolation:sRGB;color-interpolation-filters:linearRGB;solid-color:#000000;solid-opacity:1;fill:#ffeb3b;fill-opacity:1;fill-rule:nonzero;stroke:none;stroke-width:32;stroke-linecap:round;stroke-linejoin:round;stroke-miterlimit:4;stroke-dasharray:none;stroke-dashoffset:36;stroke-opacity:1;color-rendering:auto;image-rendering:auto;shape-rendering:auto;text-rendering:auto;enable-background:accumulate"
       id="rect4227"
       width="2732"
       height="2732"
       x="0"
       y="-1679.6378" />
    <g
       id="g4271"
       transform="translate(94,146.00001)">
      <path
         sodipodi:nodetypes="ccccc"
         inkscape:connector-curvature="0"
         id="rect4266"
         d="M 672,-699.63782 L 1872,-663.6378 L 1836,-219.6378 L 708,-255.6378 Z"
         style="color:#000000;clip-rule:nonzero;display:inline;overflow:visible;visibility:visible;opacity:1;isolation:auto;mix-blend-mode:normal;color-interpolation:sRGB;color-interpolation-filters:linearRGB;solid-color:#000000;solid-opacity:1;fill:#ff6f00;fill-opacity:1;fill-rule:nonzero;stroke:none;stroke-width:32;stroke-linecap:round;stroke-linejoin:round;stroke-miterlimit:4;stroke-dasharray:none;stroke-dashoffset:36;stroke-opacity:1;color-rendering:auto;image-rendering:auto;shape-rendering:auto;text-rendering:auto;enable-background:accumulate" />
      <rect
         style="color:#000000;clip-rule:nonzero;display:inline;overflow:visible;visibility:visible;opacity:1;isolation:auto;mix-blend-mode:normal;color-interpolation:sRGB;color-interpolation-filters:linearRGB;solid-color:#000000;solid-opacity:1;fill:#000000;fill-opacity:1;fill-rule:nonzero;stroke:#ffffff;stroke-width:8;stroke-linecap:round;stroke-linejoin:round;stroke-miterlimit:4;stroke-dasharray:none;stroke-dashoffset:36;stroke-opacity:1;color-rendering:auto;image-rendering:auto;shape-rendering:auto;text-rendering:auto;enable-background:accumulate"
         id="rect4233"
         width="1056"
         height="336.00003"
         x="744"
         y="-627.63782" />
      <g
         id="g4258">
        <path
           inkscape:connector-curvature="0"
           id="path4240"
           style="font-style:normal;font-variant:normal;font-weight:normal;font-stretch:normal;font-size:medium;line-height:125%;font-family:'Crafty Girls';-inkscape-font-specification:'Crafty Girls';letter-spacing:0px;word-spacing:0px;fill:#f44336;fill-opacity:1;stroke:#f44336;stroke-width:8;stroke-linecap:butt;stroke-linejoin:miter;stroke-miterlimit:4;stroke-dasharray:none;stroke-opacity:1"
           d="M 976.41591,-540.49549 Q 979.91392,-532.65941 979.91392,-525.90417 Q 979.91392,-523.74249 979.64485,-521.58082 Q 978.03038,-512.93412 972.64881,-505.90867 Q 967.26723,-499.15343 958.92579,-494.01944 Q 950.58437,-489.15567 941.43569,-486.18337 Q 935.51596,-486.72379 931.47978,-488.34505 Q 927.4436,-490.23652 921.52387,-490.77693 Q 920.17848,-492.93861 918.29493,-494.28966 Q 916.41138,-495.6407 914.25875,-496.72154 Q 912.3752,-497.80238 910.22258,-498.88322 Q 908.33902,-500.23426 907.26271,-502.39594 Q 906.72455,-506.44908 906.1864,-511.31285 Q 905.64824,-514.28516 905.64824,-517.25746 Q 905.64824,-518.87872 905.91731,-520.49998 Q 906.1864,-524.55312 908.87718,-526.98501 Q 911.02981,-528.87647 915.06599,-528.87647 Q 916.41138,-528.87647 918.02586,-528.60627 Q 920.98572,-524.82333 921.52387,-521.0404 Q 921.79296,-519.14894 921.79296,-516.71704 Q 921.79296,-514.01495 921.52387,-510.77244 Q 925.29097,-507.80013 929.86531,-504.55762 Q 934.17056,-501.58531 938.7449,-501.58531 L 939.55214,-501.58531 Q 940.89753,-501.58531 944.66463,-503.20657 Q 948.70081,-505.09804 953.00607,-507.52993 Q 957.58041,-510.23202 961.07843,-513.20432 Q 964.84553,-516.44684 965.65276,-518.87872 Q 966.19092,-520.49998 966.19092,-522.39145 Q 966.19092,-524.82333 965.1146,-527.25522 Q 963.76921,-530.22752 963.76921,-533.74024 L 963.76921,-535.90192 Q 960.80935,-537.25297 958.11856,-539.95506 Q 955.69685,-542.65716 953.00607,-545.62946 Q 950.31528,-548.87198 947.6245,-551.57407 Q 944.93371,-554.27616 941.43569,-555.89743 Q 939.28306,-556.70806 936.05412,-556.70806 Q 932.55609,-556.70806 929.59624,-557.51869 Q 926.09821,-558.86973 922.86927,-560.7612 Q 919.9094,-562.65266 916.94953,-562.92287 Q 914.25875,-563.46329 911.56796,-563.46329 Q 908.87718,-563.46329 906.45547,-562.92287 Q 901.0739,-562.11224 895.9614,-560.7612 Q 890.84892,-559.68036 885.46734,-558.59952 Q 880.35485,-557.51869 874.7042,-557.51869 Q 856.40686,-549.68261 840.53122,-538.33381 Q 824.65559,-526.98501 814.4306,-508.88097 Q 810.39442,-501.58531 807.97271,-492.39819 Q 805.551,-483.21107 804.74377,-473.75373 Q 804.20562,-468.34955 804.20562,-463.48577 Q 804.20562,-459.16242 804.47469,-455.10928 Q 805.28193,-445.92215 808.24179,-439.16691 Q 813.35428,-426.73727 823.57927,-415.11826 Q 833.80426,-403.76947 848.60358,-398.63548 Q 855.33054,-396.2036 865.28645,-394.58234 Q 875.24236,-393.23129 886.54366,-392.69088 Q 891.92523,-392.42066 897.57588,-392.42066 Q 903.22653,-392.42066 908.60811,-392.69088 Q 919.64033,-393.23129 928.789,-395.12276 Q 932.01794,-395.93339 936.05412,-396.74402 Q 940.0903,-397.55465 944.12647,-398.63548 Q 948.16265,-399.98653 951.66068,-401.06737 Q 955.15869,-402.41842 957.58041,-404.03967 Q 959.19488,-405.12052 960.54027,-406.74177 Q 961.88566,-408.63324 963.50013,-410.25449 Q 965.1146,-411.87575 967.26723,-412.95659 Q 968.34354,-413.49701 969.95801,-413.49701 Q 970.76525,-413.49701 971.84157,-413.2268 Q 976.14682,-411.87575 976.95406,-407.28219 Q 977.22314,-405.93115 977.22314,-404.8503 Q 977.22314,-401.33758 975.60867,-397.82485 Q 963.76921,-390.79941 948.43173,-385.93564 Q 933.09425,-381.07187 915.87322,-379.18041 Q 904.30284,-377.82936 892.73246,-377.82936 Q 886.54366,-377.82936 880.08577,-378.09956 Q 861.78843,-379.18041 844.29832,-384.31438 Q 829.22992,-389.98878 817.39046,-400.25674 Q 805.82009,-410.79492 798.55496,-425.11602 Q 791.55892,-439.43713 789.94445,-457.54116 Q 789.40629,-462.13473 789.40629,-467.2687 Q 789.40629,-480.77918 792.90431,-496.18112 Q 801.51483,-515.366 813.35428,-532.11899 Q 825.19375,-548.87198 844.29832,-559.41015 Q 858.02133,-566.97602 872.28249,-570.48874 Q 886.81274,-574.27167 905.37915,-577.51419 Q 908.60811,-578.05461 911.83705,-578.05461 Q 914.79691,-578.05461 917.75677,-577.51419 Q 923.6765,-576.43335 929.32715,-574.27167 Q 935.24688,-572.38021 940.89753,-569.94832 Q 946.81726,-567.78665 953.00607,-566.7058 Q 955.69685,-562.65266 958.92579,-559.68036 Q 962.42382,-556.70806 965.65276,-553.73575 Q 968.8817,-551.03365 971.5725,-547.79114 Q 974.53235,-544.54863 976.41591,-540.49549 Z" />
        <path
           inkscape:connector-curvature="0"
           id="path4242"
           style="font-style:normal;font-variant:normal;font-weight:normal;font-stretch:normal;font-size:medium;line-height:125%;font-family:'Crafty Girls';-inkscape-font-specification:'Crafty Girls';letter-spacing:0px;word-spacing:0px;fill:#8bc34a;fill-opacity:1;stroke:#8bc34a;stroke-width:8;stroke-linecap:butt;stroke-linejoin:miter;stroke-miterlimit:4;stroke-dasharray:none;stroke-opacity:1"
           d="M 1200.5584,-472.13247 Q 1201.3656,-470.51121 1201.3656,-468.88996 Q 1201.3656,-467.53892 1200.8274,-466.18787 Q 1199.482,-462.94536 1197.0603,-460.51347 Q 1195.1768,-460.24325 1193.8314,-460.24325 Q 1191.6788,-460.24325 1190.3333,-460.78368 Q 1187.3735,-461.3241 1184.9518,-462.40493 Q 1182.7991,-463.48577 1180.3774,-464.56661 Q 1177.9557,-465.64745 1174.7268,-465.91765 Q 1172.5742,-454.83906 1170.9597,-444.3009 Q 1169.6143,-434.03294 1167.7308,-424.03518 Q 1166.1163,-414.30763 1163.1565,-404.8503 Q 1160.4656,-395.39297 1155.6222,-386.47606 Q 1154.2768,-387.28669 1152.9315,-387.28669 Q 1151.8551,-387.28669 1151.0479,-387.01648 Q 1149.9716,-386.47606 1148.8953,-386.47606 Q 1147.5498,-386.47606 1145.9354,-387.28669 Q 1143.2446,-390.25899 1143.2446,-393.50151 L 1143.2446,-394.31214 Q 1143.5137,-397.82485 1145.1281,-401.60779 Q 1146.7426,-405.66093 1148.8953,-409.71408 Q 1151.3169,-414.03743 1152.1242,-418.09057 Q 1154.815,-430.25 1155.6222,-442.67964 Q 1156.6985,-455.10928 1158.3131,-465.91765 Q 1147.5498,-467.2687 1136.2486,-467.2687 Q 1132.4815,-467.2687 1128.4454,-466.9985 Q 1112.8387,-466.45807 1096.9631,-464.2964 Q 1081.0875,-462.40493 1065.4809,-458.8922 Q 1050.1434,-455.64969 1036.1513,-451.59655 Q 1037.2276,-441.05838 1038.573,-431.87126 Q 1040.1875,-422.95434 1043.1474,-412.68638 Q 1044.2238,-408.90345 1046.1073,-404.5801 Q 1048.2599,-400.25674 1049.3362,-396.74402 Q 1049.6053,-395.12276 1049.6053,-393.77171 Q 1049.6053,-391.88025 1048.7981,-390.25899 Q 1047.4527,-387.55689 1042.3401,-387.28669 L 1041.5329,-387.28669 Q 1039.1112,-387.28669 1037.2276,-388.90794 Q 1035.0751,-390.79941 1033.7297,-393.50151 Q 1032.3842,-396.47381 1031.8461,-399.98653 Q 1031.577,-402.14821 1031.577,-404.03967 L 1031.577,-406.20135 Q 1029.1553,-410.25449 1027.2717,-415.11826 Q 1025.6573,-420.25225 1024.3119,-425.65644 Q 1023.2356,-431.06063 1022.4283,-436.46482 Q 1021.8901,-442.13922 1021.6211,-447.00299 Q 1015.1632,-444.84131 1009.2435,-442.40942 Q 1003.3238,-439.97754 998.2113,-436.19461 Q 992.5606,-438.6265 991.4843,-441.32859 Q 990.9461,-442.13922 990.9461,-443.22005 Q 990.9461,-444.84131 992.0225,-446.46258 Q 993.6369,-448.89446 997.404,-451.05613 Q 1001.1711,-453.48802 1005.4764,-455.37949 Q 1009.7817,-457.54116 1013.8178,-459.16242 Q 1017.854,-461.05388 1020.0066,-462.40493 Q 1019.4685,-468.07933 1019.4685,-473.48352 Q 1019.4685,-484.2919 1021.3521,-494.83007 Q 1024.0428,-510.50222 1029.6935,-524.55312 Q 1035.6132,-538.60401 1043.9546,-550.76345 Q 1052.2961,-563.19308 1062.252,-573.46104 Q 1068.7099,-579.94607 1075.975,-583.72901 Q 1083.5092,-587.78215 1092.1197,-589.67362 Q 1100.7302,-591.83529 1110.6861,-592.37571 L 1132.2124,-592.37571 Q 1143.5137,-583.72901 1150.7789,-571.56958 Q 1158.3131,-559.68036 1162.8874,-545.35925 Q 1167.4617,-531.30836 1169.8834,-515.366 Q 1172.3051,-499.69385 1173.6506,-483.21107 Q 1176.3413,-481.04939 1180.1084,-480.23876 Q 1184.1445,-479.42814 1187.9117,-478.61751 Q 1191.9478,-477.80688 1195.4459,-476.45583 Q 1198.9439,-475.10478 1200.5584,-472.13247 Z M 1156.6985,-481.3196 Q 1157.7749,-485.37274 1157.7749,-489.42589 L 1157.7749,-491.31735 Q 1157.5057,-496.18112 1156.4295,-501.04489 Q 1155.6222,-506.17888 1154.2768,-511.04264 Q 1152.9315,-516.17663 1152.1242,-521.0404 Q 1151.8551,-522.39145 1151.8551,-523.74249 Q 1151.8551,-525.09354 1152.1242,-526.44459 Q 1152.3933,-527.79564 1152.3933,-529.14668 Q 1152.3933,-530.49773 1152.1242,-531.84878 Q 1150.2407,-540.49549 1146.7426,-548.87198 Q 1143.5137,-557.51869 1138.4013,-564.27392 Q 1133.2887,-571.02916 1126.2927,-575.0823 Q 1119.5657,-578.86524 1110.9552,-578.86524 L 1109.8789,-578.86524 Q 1094.5414,-578.32481 1081.8947,-570.21853 Q 1069.5171,-562.11224 1060.3685,-551.84428 Q 1055.2559,-543.19758 1050.1434,-534.01046 Q 1045.031,-525.09354 1041.2639,-514.55537 Q 1037.4968,-504.28741 1035.6132,-492.39819 Q 1034.5369,-485.37274 1034.5369,-477.80688 Q 1034.5369,-472.40269 1035.0751,-466.72828 Q 1051.2198,-470.24101 1066.0191,-472.9431 Q 1080.8184,-475.91541 1095.3486,-477.80688 Q 1110.148,-479.69834 1125.2163,-480.77918 Q 1137.0558,-481.3196 1149.4334,-481.3196 L 1156.6985,-481.3196 Z" />
        <path
           inkscape:connector-curvature="0"
           id="path4244"
           style="font-style:normal;font-variant:normal;font-weight:normal;font-stretch:normal;font-size:medium;line-height:125%;font-family:'Crafty Girls';-inkscape-font-specification:'Crafty Girls';letter-spacing:0px;word-spacing:0px;fill:#2196f3;fill-opacity:1;stroke:#2196f3;stroke-width:8;stroke-linecap:butt;stroke-linejoin:miter;stroke-miterlimit:4;stroke-dasharray:none;stroke-opacity:1"
           d="M 1350.9733,-383.23355 Q 1350.9733,-381.8825 1349.897,-380.26124 Q 1349.0898,-378.36977 1347.4752,-376.74851 Q 1346.1299,-375.12725 1343.9773,-374.31663 Q 1342.0937,-373.23579 1339.9411,-373.23579 Q 1336.174,-373.506 1332.1378,-378.09956 Q 1328.3707,-382.42292 1323.7964,-385.12501 Q 1317.6075,-388.36752 1309.5352,-390.5292 Q 1301.4628,-392.69088 1293.1215,-393.50151 Q 1284.78,-394.58234 1276.9766,-394.85256 L 1274.555,-394.85256 Q 1268.0971,-394.85256 1262.7155,-394.04193 Q 1259.7557,-388.09732 1255.9886,-380.80166 Q 1252.4905,-373.506 1247.6471,-367.02097 Q 1242.8037,-360.26573 1236.0767,-355.13176 Q 1229.6189,-349.99777 1221.2774,-348.10631 Q 1217.5103,-347.29568 1214.2814,-347.29568 Q 1203.7873,-347.29568 1199.7512,-357.02322 L 1199.7512,-358.37427 Q 1199.7512,-369.45286 1204.3255,-377.01873 Q 1208.8998,-385.12501 1216.434,-391.06962 Q 1223.9682,-397.01423 1233.1169,-401.06737 Q 1242.2655,-405.39072 1250.876,-409.44386 Q 1257.8722,-432.95209 1259.7557,-460.24325 Q 1260.2938,-468.61975 1260.2938,-476.99625 Q 1260.2938,-496.45133 1257.334,-516.98726 Q 1256.2576,-524.01271 1254.3741,-532.11899 Q 1252.7596,-540.49549 1250.876,-548.60177 Q 1249.7998,-553.46554 1248.4543,-558.0591 Q 1247.1089,-562.92287 1246.0326,-567.24623 Q 1244.9564,-571.56958 1244.9564,-575.35251 Q 1244.9564,-579.13544 1246.5708,-582.10775 Q 1247.6471,-583.99921 1249.2616,-584.80984 L 1250.3379,-584.80984 Q 1252.2214,-584.80984 1253.5669,-584.26943 Q 1254.6431,-583.4588 1256.2576,-583.4588 Q 1257.0648,-583.4588 1258.1412,-583.72901 Q 1263.2537,-564.54413 1267.5589,-543.46779 Q 1272.1333,-522.66166 1274.0169,-501.04489 Q 1275.0931,-487.26421 1275.0931,-473.48352 Q 1275.0931,-465.37724 1274.8241,-457.54116 Q 1273.7477,-435.38398 1268.0971,-414.03743 Q 1278.5912,-411.06512 1289.6234,-409.44386 Q 1300.6556,-407.82261 1312.2259,-406.74177 Q 1317.0694,-404.5801 1321.9128,-401.33758 Q 1326.7562,-398.36528 1332.9451,-395.93339 Q 1335.6358,-394.85256 1338.8647,-393.77171 Q 1342.0937,-392.96109 1344.5155,-391.61003 Q 1347.2062,-390.5292 1349.0898,-388.63774 Q 1350.9733,-386.47606 1350.9733,-383.23355 Z M 1241.9965,-385.93564 Q 1232.0406,-385.93564 1224.5064,-379.45061 Q 1217.2412,-372.69537 1215.8959,-361.61678 Q 1226.3899,-363.77846 1232.0406,-370.80391 Q 1237.6912,-377.55914 1241.9965,-385.93564 Z" />
        <path
           inkscape:connector-curvature="0"
           id="path4246"
           style="font-style:normal;font-variant:normal;font-weight:normal;font-stretch:normal;font-size:medium;line-height:125%;font-family:'Crafty Girls';-inkscape-font-specification:'Crafty Girls';letter-spacing:0px;word-spacing:0px;fill:#ffc107;fill-opacity:1;stroke:#ffc107;stroke-width:8;stroke-linecap:butt;stroke-linejoin:miter;stroke-miterlimit:4;stroke-dasharray:none;stroke-opacity:1"
           d="M 1540.1355,-583.99921 Q 1545.7861,-583.99921 1547.6697,-581.02691 Q 1549.0151,-578.86524 1549.0151,-576.43335 Q 1549.0151,-575.35251 1548.746,-574.27167 Q 1547.6697,-570.48874 1544.4408,-567.51643 Q 1541.4809,-565.08455 1537.4447,-565.08455 L 1535.8302,-565.08455 Q 1525.8743,-559.41015 1518.071,-551.84428 Q 1510.2678,-544.27842 1503.5408,-535.3615 Q 1496.8138,-526.7148 1490.356,-517.52767 Q 1484.1672,-508.34055 1477.1711,-499.96406 Q 1472.5968,-488.61525 1466.408,-477.53666 Q 1460.4882,-466.72828 1454.8376,-454.83906 Q 1453.4922,-451.86676 1451.8778,-448.89446 Q 1450.2633,-446.19236 1448.9179,-443.22005 Q 1447.8415,-440.24776 1447.0343,-436.73503 Q 1446.4962,-434.57335 1446.4962,-432.14146 Q 1446.4962,-430.52021 1446.7652,-428.62875 Q 1447.0343,-423.22455 1448.6488,-417.55016 Q 1450.5323,-411.87575 1452.4158,-405.93115 Q 1454.5685,-399.98653 1456.4521,-393.77171 Q 1458.3356,-387.82711 1459.412,-381.61229 Q 1460.7573,-373.506 1460.7573,-364.85929 Q 1460.7573,-355.94238 1460.2192,-347.29568 Q 1458.0666,-345.134 1455.9139,-342.43191 Q 1453.7613,-339.4596 1451.3396,-336.7575 Q 1449.1869,-334.05541 1446.227,-332.43416 Q 1443.8054,-331.08311 1440.5764,-331.08311 L 1439.5002,-331.08311 Q 1432.7732,-331.62353 1428.4679,-339.18939 Q 1424.4317,-346.75526 1422.2791,-357.29343 Q 1420.3956,-367.8316 1420.3956,-379.45061 Q 1420.1264,-380.26124 1420.1264,-381.34207 Q 1420.1264,-391.61003 1421.4718,-398.9057 Q 1423.8935,-405.39072 1427.1225,-412.14597 Q 1430.6205,-419.17141 1430.6205,-425.92664 Q 1430.3515,-431.06063 1426.0462,-437.54566 Q 1422.01,-444.03068 1418.7811,-450.2455 Q 1415.8212,-456.46032 1412.8614,-462.40493 Q 1410.1705,-468.61975 1407.2106,-473.75373 Q 1403.9817,-479.42814 1400.4838,-484.2919 Q 1397.2547,-489.15567 1394.0258,-493.74924 Q 1391.0659,-498.3428 1388.1062,-502.93636 Q 1385.4153,-507.80013 1382.7245,-513.47453 Q 1381.9173,-515.63621 1379.7647,-516.71704 Q 1377.8811,-518.06809 1376.5357,-519.95956 Q 1374.9212,-525.09354 1371.9613,-529.4169 Q 1369.2706,-534.01046 1365.7725,-538.33381 Q 1362.5436,-542.65716 1359.0457,-546.7103 Q 1355.5476,-550.76345 1352.3187,-555.08679 Q 1349.897,-558.32932 1347.2062,-561.57183 Q 1344.7845,-564.81434 1342.3628,-568.59728 Q 1340.2101,-572.38021 1338.5957,-576.70356 Q 1336.9812,-581.02691 1336.9812,-585.89068 Q 1338.8647,-586.70131 1340.7483,-586.70131 Q 1343.17,-586.70131 1345.8607,-585.08006 Q 1350.4351,-582.10775 1354.4713,-576.70356 Q 1358.7765,-571.56958 1362.5436,-565.62497 Q 1366.3107,-559.68036 1369.2706,-555.89743 Q 1374.9212,-550.76345 1379.4956,-545.08905 Q 1384.339,-539.41464 1387.2988,-531.57857 Q 1401.8291,-513.74474 1413.1304,-492.6684 Q 1424.7008,-471.86227 1436.8093,-451.32634 Q 1442.7291,-461.86451 1449.9942,-474.83457 Q 1457.2593,-487.80462 1465.0626,-501.31511 Q 1472.8658,-515.09579 1481.4763,-528.33605 Q 1490.0869,-541.57632 1498.9665,-552.3847 Q 1501.3882,-555.35701 1505.1553,-558.59952 Q 1508.9224,-562.11224 1512.9586,-565.35476 Q 1516.9948,-568.59728 1521.0309,-571.29937 Q 1525.3362,-574.27167 1528.5651,-576.70356 Q 1531.7941,-579.13544 1534.2158,-581.56733 Q 1536.6374,-583.99921 1540.1355,-583.99921 Z M 1442.1909,-348.37651 Q 1445.689,-353.24028 1446.227,-359.99553 L 1446.227,-363.50824 Q 1446.227,-368.64223 1445.4198,-374.04642 Q 1444.0745,-381.34207 1441.6527,-388.36752 Q 1439.5002,-395.12276 1437.6166,-400.52695 Q 1436.0021,-395.12276 1434.6567,-387.82711 Q 1433.3114,-380.26124 1433.3114,-372.96559 Q 1433.3114,-365.39972 1435.1949,-358.91469 Q 1437.3475,-352.15945 1442.1909,-348.37651 Z" />
        <path
           inkscape:connector-curvature="0"
           id="path4248"
           style="font-style:normal;font-variant:normal;font-weight:normal;font-stretch:normal;font-size:medium;line-height:125%;font-family:'Crafty Girls';-inkscape-font-specification:'Crafty Girls';letter-spacing:0px;word-spacing:0px;fill:#9c27b0;fill-opacity:1;stroke:#9c27b0;stroke-width:8;stroke-linecap:butt;stroke-linejoin:miter;stroke-miterlimit:4;stroke-dasharray:none;stroke-opacity:1"
           d="M 1578.702,-565.35476 Q 1584.0835,-568.59728 1587.5816,-568.59728 L 1588.927,-568.59728 Q 1592.425,-567.78665 1593.7704,-564.81434 Q 1594.3086,-562.92287 1594.3086,-560.49098 L 1594.3086,-558.0591 Q 1593.5013,-554.00596 1591.3487,-551.57407 Q 1589.196,-549.4124 1586.2362,-549.4124 Q 1585.698,-549.4124 1585.4289,-549.68261 Q 1581.6618,-549.95282 1577.0875,-555.35701 Q 1576.8184,-556.43784 1576.8184,-557.24847 Q 1576.8184,-559.41015 1577.8947,-560.7612 Q 1578.702,-562.11224 1578.702,-564.27392 L 1578.702,-565.35476 Z M 1600.2282,-375.66768 Q 1597.5375,-374.58684 1595.3848,-374.58684 Q 1593.7704,-374.58684 1592.694,-375.39747 Q 1589.7342,-376.74851 1587.8506,-380.26124 Q 1585.9671,-383.50375 1584.8907,-387.82711 Q 1583.8145,-391.88025 1582.4691,-395.39297 Q 1577.8947,-407.01198 1574.6658,-421.8735 Q 1571.4369,-436.73503 1570.0915,-452.67739 Q 1569.0152,-465.91765 1569.0152,-479.42814 L 1569.0152,-484.83233 Q 1569.2842,-500.77468 1571.7059,-514.55537 Q 1575.204,-517.79789 1579.2401,-517.79789 L 1580.3164,-517.79789 Q 1584.8907,-517.25746 1586.7744,-512.93412 Q 1587.5816,-511.31285 1587.5816,-509.42139 Q 1587.5816,-507.52993 1587.0434,-505.36825 Q 1585.698,-500.77468 1585.1599,-495.6407 Q 1584.6217,-489.6961 1584.6217,-482.40044 L 1584.6217,-477.53666 Q 1584.8907,-467.2687 1585.1599,-460.51347 Q 1585.1599,-454.83906 1585.4289,-447.81362 Q 1585.9671,-441.05838 1587.0434,-434.03294 Q 1588.1198,-427.00749 1589.4651,-420.25225 Q 1591.0795,-413.49701 1593.2322,-408.09281 Q 1594.8467,-403.49926 1597.5375,-399.1759 Q 1600.2282,-395.12276 1601.8427,-391.33983 Q 1603.7263,-387.55689 1603.7263,-383.77396 Q 1603.7263,-379.72082 1600.2282,-375.66768 Z" />
        <path
           inkscape:connector-curvature="0"
           id="path4250"
           style="font-style:normal;font-variant:normal;font-weight:normal;font-stretch:normal;font-size:medium;line-height:125%;font-family:'Crafty Girls';-inkscape-font-specification:'Crafty Girls';letter-spacing:0px;word-spacing:0px;fill:#9c27b0;fill-opacity:1;stroke:#9c27b0;stroke-width:8;stroke-linecap:butt;stroke-linejoin:miter;stroke-miterlimit:4;stroke-dasharray:none;stroke-opacity:1"
           d="M 1761.4064,-486.72379 Q 1761.1372,-474.83457 1760.5991,-462.40493 Q 1760.061,-450.2455 1758.4465,-438.35628 Q 1756.832,-426.73727 1753.8722,-415.9289 Q 1750.9123,-405.39072 1746.0689,-396.47381 Q 1746.3379,-394.85256 1746.3379,-393.23129 Q 1746.3379,-389.98878 1745.2617,-387.55689 Q 1743.3781,-383.50375 1740.4182,-381.61229 Q 1737.9965,-379.72082 1735.0366,-379.72082 Q 1734.4985,-379.72082 1733.9603,-379.99103 Q 1730.1932,-380.26124 1727.2334,-383.77396 Q 1726.9643,-385.93564 1726.9643,-387.55689 Q 1726.9643,-389.17815 1727.2334,-390.79941 Q 1727.7715,-393.50151 1728.8478,-395.93339 Q 1730.1932,-398.36528 1731.5386,-400.25674 Q 1732.884,-402.41842 1734.2294,-404.5801 Q 1738.8037,-416.73953 1741.7636,-432.41168 Q 1744.7235,-448.35404 1744.9925,-464.02619 L 1744.9925,-465.10702 Q 1744.9925,-480.23876 1741.4946,-493.47903 Q 1737.7274,-507.25971 1728.8478,-515.63621 Q 1727.5024,-516.98726 1724.8117,-517.79789 Q 1722.1208,-518.60851 1719.161,-518.87872 L 1717.0084,-518.87872 Q 1714.8558,-518.87872 1712.9722,-518.60851 Q 1709.7432,-518.3383 1707.3215,-517.52767 Q 1696.5584,-513.74474 1686.8715,-504.82782 Q 1677.4538,-496.18112 1670.4578,-484.0217 Q 1663.4618,-472.13247 1659.9637,-458.08158 Q 1656.7348,-446.46258 1656.7348,-434.30314 Q 1656.7348,-431.60105 1657.0038,-428.89895 Q 1657.273,-422.68413 1658.8874,-416.73953 Q 1660.5019,-411.06512 1662.1163,-405.39072 Q 1663.9999,-399.71633 1665.6144,-393.77171 Q 1667.2289,-388.09732 1667.7669,-381.8825 Q 1665.6144,-378.91019 1662.6545,-377.01873 Q 1660.2328,-375.39747 1656.7348,-375.39747 Q 1655.1203,-375.39747 1653.5058,-375.66768 Q 1648.6625,-385.66543 1647.0479,-397.01423 Q 1645.7026,-408.36303 1643.5499,-419.98204 Q 1641.6663,-429.97979 1639.2446,-441.05838 Q 1637.092,-452.13697 1634.4013,-462.67514 Q 1631.9796,-473.48352 1629.0197,-483.48128 Q 1626.3289,-493.74924 1623.6381,-502.12573 Q 1622.5617,-505.36825 1621.2164,-508.07034 Q 1620.1401,-510.77244 1619.602,-513.20432 Q 1619.3328,-514.55537 1619.3328,-515.63621 Q 1619.3328,-516.71704 1619.602,-518.06809 Q 1620.1401,-520.22977 1622.8309,-522.93186 Q 1624.9835,-523.74249 1626.867,-523.74249 Q 1629.2887,-523.74249 1631.1723,-522.66166 Q 1634.1322,-520.49998 1635.7467,-516.71704 Q 1637.3611,-512.93412 1638.1684,-508.34055 Q 1638.9756,-503.74699 1639.7828,-500.23426 Q 1642.2045,-491.58756 1644.6262,-484.0217 Q 1647.317,-476.72603 1647.8551,-471.32184 Q 1653.2368,-482.13023 1659.4256,-491.85777 Q 1665.8834,-501.85552 1673.6867,-509.96181 Q 1681.49,-518.3383 1691.1768,-524.55312 Q 1701.1327,-530.76794 1713.7795,-534.55087 L 1715.1248,-534.55087 Q 1726.4261,-534.55087 1733.6913,-530.49773 Q 1741.2254,-526.17438 1746.0689,-519.14894 Q 1751.1813,-512.39369 1754.4103,-503.74699 Q 1757.9083,-495.10029 1761.4064,-486.72379 Z" />
      </g>
    </g>
    <text
       xml:space="preserve"
       style="font-style:normal;font-weight:normal;font-size:40px;line-height:125%;font-family:sans-serif;letter-spacing:0px;word-spacing:0px;fill:#000000;fill-opacity:1;stroke:none;stroke-width:1px;stroke-linecap:butt;stroke-linejoin:miter;stroke-opacity:1"
       x="960"
       y="188.3622"
       id="text4282"
       sodipodi:linespacing="125%"><tspan
         sodipodi:role="line"
         id="tspan4284"
         x="960"
         y="188.3622" /></text>
  </g>
</svg>
