<svg
  xmlns="http://www.w3.org/2000/svg"
  class="calvin-svg" viewBox="0 0 512 512">
<g class="calvin-wave">
    <path
       d="M 428,312 L 400,268 L 400,256 L 404,248 L 416,248 L 424,256 L 424,248 L 424,216 L 428,208 L 440,208 L 444,216 L 444,208 L 448,200 L 460,200 L 464,208 L 464,220 L 468,212 L 480,212 L 484,220 L 484,232 L 484,240 L 488,232 L 496,232 L 500,240 L 500,268 L 488,304 L 484,320 L 484,328 L 436,328 L 436,320 Z"
       class="calvin-hand"
       />
    <path
       d="M 256,328 L 213.14258,333.14258 L 135.42969,350.0625 L 118.75,417.59961 L 101.71484,496 L 264.57227,496 L 360,496 L 388,496 L 392,468 L 415.36719,496 L 448,496 L 472,480 L 480,448 L 484,328 L 436,328 L 424,408 L 376,352 L 298.85742,333.14258 Z"
       class="calvin-arms"
       />
    <path
       d="M 155.04696,496.00001 L 170.28572,401.71426 L 187.42857,367.42854 L 213.14286,333.14283 L 264.57143,319.6262 L 298.85714,333.14283 L 324.57142,367.42854 L 341.71428,401.71426 L 358.85713,496.00001 L 265.52348,496.00001 Z"
       class="calvin-chest"
       />
    <path
       d="M 213.14286,294.57141 L 298.85714,294.57141 L 298.85714,341.71426 L 256,410.28568 L 213.14286,341.71426 Z"
       class="calvin-neck"
       />
    <path
       d="M 367.42856,204.57147 L 350.2857,256.00004 L 324.57142,281.71432 L 303.14285,315.71432 L 277.42856,324.28575 L 230.28571,324.28575 L 208.85714,315.71432 L 187.42857,281.71432 L 161.71429,251.71432 L 144.57143,204.57151 L 153.14286,153.1429 L 170.28571,101.71433 L 255.99999,84.57148 L 341.71427,101.71433 L 358.85713,153.1429 Z"
       class="calvin-head"
       />
    <path
       d="M 230.28571,172.42859 A 17.142853,19.285721 0 0 1 213.14285,191.71431 A 17.142853,19.285721 0 0 1 196,172.42859 A 17.142853,19.285721 0 0 1 213.14285,153.14287 A 17.142853,19.285721 0 0 1 230.28571,172.42859 Z"
       class="calvin-eye-right"
       />
    <path
       d="M 196,234.28516 L 187.42773,242.85742 L 226,290 L 230.28516,285.71484 L 243.14258,281.42773 L 268.85742,281.42773 L 281.71484,285.71484 L 286,290 L 324.57227,242.85742 L 316,234.28516 L 290.28516,260 L 273.14258,268.57227 L 238.85742,268.57227 L 217.42773,260 L 196,234.28516 Z"
       class="calvin-mouth"
       />
    <path
       d="M 196,234.28575 L 217.42857,260.00004 L 238.85714,268.57147 L 273.14285,268.57147 L 290.28571,260.00004 L 315.99999,234.28575 L 281.71428,255.71432 L 264.57142,260.00004 L 247.42857,260.00004 L 230.28571,255.71432 Z"
       class="calvin-teeth"
       />
    <path
       d="M 226,290.00004 L 230.28571,285.71432 L 243.14285,281.42861 L 268.85714,281.42861 L 281.71428,285.71432 L 285.99999,290.00004 L 268.85714,298.57146 L 243.14285,298.57146 Z"
       class="calvin-tongue"
       />
    <path
       d="M 316,172.42859 A 17.142853,19.285721 0 0 1 298.85715,191.71431 A 17.142853,19.285721 0 0 1 281.71429,172.42859 A 17.142853,19.285721 0 0 1 298.85715,153.14287 A 17.142853,19.285721 0 0 1 316,172.42859 Z"
       class="calvin-eye-left"
       />
    <path
       d="M 110.28572,178.85713 L 118.85715,221.71427 L 144.57143,247.42856 L 153.14286,247.42856 L 170.28572,195.99998 L 144.57143,161.71427 L 118.85715,161.71427 Z"
       class="calvin-ear-right"
       />
    <path
       d="M 136.00001,221.71427 L 144.57143,213.14284 L 144.57143,195.99998 L 144.57143,187.42855 L 136.00001,178.85713 L 127.42858,195.99998 Z"
       class="calvin-ear-right-inner"
       />
    <path
       class="calvin-ear-left"
       d="M 401.71427,178.85713 L 393.14285,221.71427 L 367.42856,247.42856 L 358.85713,247.42856 L 341.71428,195.99998 L 367.42856,161.71427 L 393.14285,161.71427 Z"
       />
    <path
       class="calvin-ear-left-inner"
       d="M 375.99999,221.71427 L 367.42856,213.14284 L 367.42856,195.99998 L 367.42856,187.42855 L 375.99999,178.85713 L 384.57141,195.99998 Z"
       />
    <path
       d="M 153.14286,204.57141 L 153.14286,161.71427 L 161.71429,135.99999 L 178.85715,110.2857 L 213.14286,118.85713 L 228.69261,101.71428 L 256,118.85713 L 281.71428,101.71428 L 298.85714,118.85713 L 333.14285,110.2857 L 350.28571,135.99999 L 358.85713,161.71427 L 359.42856,204.57141 L 384.57142,118.85713 L 358.85713,33.142853 L 333.14285,67.428565 L 315.99999,15.999997 L 290.28571,41.714281 L 256,15.999997 L 221.71429,41.714281 L 196,15.999997 L 178.85715,67.428565 L 153.14286,33.142853 L 127.42858,118.85713 Z"
       class="calvin-hair"
       />
  </g>
  </svg>
