<?xml version="1.0" encoding="UTF-8" standalone="no"?>
<!-- Created with Inkscape (http://www.inkscape.org/) -->

<svg
   xmlns:dc="http://purl.org/dc/elements/1.1/"
   xmlns:cc="http://creativecommons.org/ns#"
   xmlns:rdf="http://www.w3.org/1999/02/22-rdf-syntax-ns#"
   xmlns:svg="http://www.w3.org/2000/svg"
   xmlns="http://www.w3.org/2000/svg"
   xmlns:sodipodi="http://sodipodi.sourceforge.net/DTD/sodipodi-0.dtd"
   xmlns:inkscape="http://www.inkscape.org/namespaces/inkscape"
   width="512"
   height="512"
   viewBox="0 0 512.00001 512.00001"
   class="calvin-svg2"
   version="1.1"
   inkscape:version="0.91 r13725"
   sodipodi:docname="calvin-mouths.svg"
   inkscape:export-filename="/home/mwibrow/Pictures/CALVin/calvin-front-cheer.png"
   inkscape:export-xdpi="180"
   inkscape:export-ydpi="180"
   id="svg3336">
  <defs
     class="calvin-defs4"
     id="defs3338" />
  <sodipodi:namedview
     class="calvin-base"
     pagecolor="#ffffff"
     bordercolor="#666666"
     borderopacity="1.0"
     inkscape:pageopacity="0.0"
     inkscape:pageshadow="2"
     inkscape:zoom="0.19520443"
     inkscape:cx="1693.3803"
     inkscape:cy="-52.723055"
     inkscape:document-units="px"
     inkscape:current-layer="calvin-neutral"
     showgrclass="calvin-true"
     units="px"
     fit-margin-top="0"
     fit-margin-left="0"
     fit-margin-right="0"
     fit-margin-bottom="0"
     inkscape:snap-global="true"
     inkscape:snap-page="true"
     inkscape:snap-bbox="true"
     inkscape:snap-object-midpoints="false"
     inkscape:snap-center="false"
     inkscape:window-width="1366"
     inkscape:window-height="719"
     inkscape:window-x="0"
     inkscape:window-y="25"
     inkscape:window-maximized="1"
     showguides="false"
     inkscape:object-paths="true"
     inkscape:snap-intersection-paths="true"
     inkscape:object-nodes="true"
     inkscape:snap-smooth-nodes="true"
     inkscape:bbox-paths="true"
     inkscape:bbox-nodes="false"
     inkscape:snap-bbox-midpoints="false"
     inkscape:snap-nodes="true"
     id="namedview3340"
     showgrid="true">
    <inkscape:grid
       type="xygrid"
       class="calvin-grid4136"
       empspacing="4"
       id="grid3342" />
    <inkscape:grid
       type="xygrid"
       id="grid4237"
       spacingx="512.00001"
       spacingy="512.00001"
       empspacing="1"
       color="#ff3f3f"
       opacity="0.1254902"
       empcolor="#ff3f3f"
       empopacity="0.25098039" />
  </sodipodi:namedview>
  <metadata
     class="calvin-metadata7"
     id="metadata3344">
    <rdf:RDF>
      <cc:Work
         rdf:about="">
        <dc:format>image/svg+xml</dc:format>
        <dc:type
           rdf:resource="http://purl.org/dc/dcmitype/StillImage" />
        <dc:title></dc:title>
      </cc:Work>
    </rdf:RDF>
  </metadata>
  <g
     inkscape:label="Calvin"
     inkscape:groupmode="layer"
     class="calvin-neutral"
     style="display:inline"
     id="calvin-neutral">
    <path
       sodipodi:nodetypes="ccccccccccc"
       inkscape:connector-curvature="0"
       class="calvin-arms"
       d="M 101.71429,496.3622 L 118.74903,417.96242 L 135.42995,350.42384 L 213.14286,333.50499 L 264.57143,324.93356 L 298.85714,333.50499 L 375.99999,350.64785 L 393.14285,419.21927 L 410.2857,496.3622 L 264.57143,496.3622 Z"
       style="opacity:1;fill:#f44336;fill-opacity:1;stroke:none;stroke-width:4;stroke-linecap:round;stroke-linejoin:round;stroke-miterlimit:4;stroke-dasharray:none;stroke-opacity:1"
       id="path3348" />
    <path
       sodipodi:nodetypes="ccccccccccc"
       inkscape:connector-curvature="0"
       class="calvin-chest"
       d="M 155.04696,496.3622 L 170.28572,402.07641 L 187.42857,367.7907 L 213.14286,333.50499 L 264.57143,319.98836 L 298.85714,333.50499 L 324.57142,367.7907 L 341.71428,402.07641 L 358.85713,496.3622 L 265.52348,496.3622 Z"
       style="opacity:1;fill:#b71c1c;fill-opacity:1;stroke:none;stroke-width:4;stroke-linecap:round;stroke-linejoin:round;stroke-miterlimit:4;stroke-dasharray:none;stroke-opacity:1"
       id="path3350" />
    <path
       sodipodi:nodetypes="cccccc"
       inkscape:connector-curvature="0"
       class="calvin-neck"
       d="M 213.14286,294.93356 L 298.85714,294.93356 L 298.85714,342.07642 L 256,410.64784 L 213.14286,342.07642 Z"
       style="opacity:1;fill:#ff9800;fill-opacity:1;stroke:none;stroke-width:2;stroke-linecap:round;stroke-linejoin:round;stroke-miterlimit:4;stroke-dasharray:none;stroke-opacity:1"
       id="path3352" />
    <path
       sodipodi:nodetypes="cccccccccccccccc"
       inkscape:connector-curvature="0"
       class="calvin-head"
       d="M 367.42856,204.93357 L 350.28571,256.36214 L 324.57142,282.07642 L 303.14285,303.50499 L 281.71428,312.07642 L 230.28571,312.07642 L 208.85714,303.50499 L 187.42857,282.07642 L 161.71429,252.07642 L 144.57143,204.93361 L 153.14286,153.505 L 170.28572,102.07643 L 256,84.93358 L 341.71428,102.07643 L 358.85713,153.505 Z"
       style="opacity:1;fill:#ffc107;fill-opacity:1;stroke:none;stroke-width:2;stroke-linecap:round;stroke-linejoin:round;stroke-miterlimit:4;stroke-dasharray:none;stroke-opacity:1"
       id="path3354" />
    <path
       style="opacity:1;fill:#3e2723;fill-opacity:1;stroke:none;stroke-width:4;stroke-linecap:round;stroke-linejoin:round;stroke-miterlimit:4;stroke-dasharray:none;stroke-opacity:1"
       d="M 230.28571,172.79071 A 17.142853,19.285721 0 0 1 213.14285,192.07643 A 17.142853,19.285721 0 0 1 196,172.79071 A 17.142853,19.285721 0 0 1 213.14285,153.50499 A 17.142853,19.285721 0 0 1 230.28571,172.79071 Z"
       class="calvin-eye-right"
       inkscape:connector-curvature="0"
       id="path3356" />
    <path
       style="opacity:1;fill:#3e2723;fill-opacity:1;stroke:none;stroke-width:4;stroke-linecap:round;stroke-linejoin:round;stroke-miterlimit:4;stroke-dasharray:none;stroke-opacity:1"
       d="M 316,172.79071 A 17.142853,19.285721 0 0 1 298.85715,192.07643 A 17.142853,19.285721 0 0 1 281.71429,172.79071 A 17.142853,19.285721 0 0 1 298.85715,153.50499 A 17.142853,19.285721 0 0 1 316,172.79071 Z"
       class="calvin-eye-left"
       inkscape:connector-curvature="0"
       id="path3358" />
    <path
       sodipodi:nodetypes="cccccccc"
       inkscape:connector-curvature="0"
       class="calvin-ear-right"
       d="M 110.28572,179.21929 L 118.85715,222.07643 L 144.57143,247.79071 L 153.14286,247.79071 L 170.28572,196.36214 L 144.57143,162.07643 L 118.85715,162.07643 Z"
       style="opacity:1;fill:#ffc107;fill-opacity:1;stroke:none;stroke-width:4;stroke-linecap:round;stroke-linejoin:round;stroke-miterlimit:4;stroke-dasharray:none;stroke-opacity:1"
       id="path3360" />
    <path
       sodipodi:nodetypes="ccccccc"
       inkscape:connector-curvature="0"
       class="calvin-ear-right-inner"
       d="M 136.00001,222.07643 L 144.57143,213.505 L 144.57143,196.36214 L 144.57143,187.79071 L 136.00001,179.21929 L 127.42858,196.36214 Z"
       style="opacity:1;fill:#ff9800;fill-opacity:1;stroke:none;stroke-width:4;stroke-linecap:round;stroke-linejoin:round;stroke-miterlimit:4;stroke-dasharray:none;stroke-opacity:1"
       id="path3362" />
    <path
       style="opacity:1;fill:#ffc107;fill-opacity:1;stroke:none;stroke-width:4;stroke-linecap:round;stroke-linejoin:round;stroke-miterlimit:4;stroke-dasharray:none;stroke-opacity:1"
       d="M 401.71427,179.21929 L 393.14285,222.07643 L 367.42856,247.79071 L 358.85713,247.79071 L 341.71428,196.36214 L 367.42856,162.07643 L 393.14285,162.07643 Z"
       class="calvin-ear-left"
       inkscape:connector-curvature="0"
       sodipodi:nodetypes="cccccccc"
       id="path3364" />
    <path
       style="opacity:1;fill:#ff9800;fill-opacity:1;stroke:none;stroke-width:4;stroke-linecap:round;stroke-linejoin:round;stroke-miterlimit:4;stroke-dasharray:none;stroke-opacity:1"
       d="M 375.99999,222.07643 L 367.42856,213.505 L 367.42856,196.36214 L 367.42856,187.79071 L 375.99999,179.21929 L 384.57142,196.36214 Z"
       class="calvin-ear-left-inner"
       inkscape:connector-curvature="0"
       sodipodi:nodetypes="ccccccc"
       id="path3366" />
    <path
       sodipodi:nodetypes="ccccccccccccccccccccccccc"
       inkscape:connector-curvature="0"
       class="calvin-hair"
       d="M 153.14286,204.93357 L 153.14286,162.07643 L 161.71429,136.36215 L 178.85715,110.64786 L 213.14286,119.21929 L 228.69261,102.07643 L 256,119.21929 L 281.71428,102.07643 L 298.85714,119.21929 L 333.14285,110.64786 L 350.28571,136.36215 L 358.85713,162.07643 L 359.42856,204.93357 L 384.57142,119.21929 L 358.85713,33.50501 L 333.14285,67.79072 L 315.99999,16.36215 L 290.28571,42.07644 L 256,16.36215 L 221.71429,42.07644 L 196,16.36215 L 178.85715,67.79072 L 153.14286,33.50501 L 127.42858,119.21929 Z"
       style="fill:#3e2723;fill-rule:evenodd;stroke:none;stroke-width:1px;stroke-linecap:butt;stroke-linejoin:miter;stroke-opacity:1"
       id="path3368" />
    <path
       id="path5435"
       sodipodi:nodetypes="cccccccc"
       inkscape:connector-curvature="0"
       class="calvin-lips"
       d="M -138.28571,416.36214 L -134,407.79071 L -104,412.07642 L -74,407.79071 L -69.71429,416.36214 L -92.57143,433.50502 L -115.42858,433.50502 Z"
       style="opacity:1;fill:#ff9800;fill-opacity:1;stroke:none;stroke-width:8;stroke-linecap:round;stroke-linejoin:round;stroke-miterlimit:4;stroke-dasharray:none;stroke-opacity:1" />
    <path
       id="path5439"
       sodipodi:nodetypes="ccccccccc"
       inkscape:connector-curvature="0"
       class="calvin-lips"
       d="M -148,252 L -144,244 L -120,248 L -88,248 L -64,244 L -60,252 L -88,296 L -120,296 Z"
       style="opacity:1;fill:#263238;fill-opacity:1;stroke:none;stroke-width:8;stroke-linecap:round;stroke-linejoin:round;stroke-miterlimit:4;stroke-dasharray:none;stroke-opacity:1" />
    <path
       id="path5441"
       sodipodi:nodetypes="ccccccccc"
       inkscape:connector-curvature="0"
       class="calvin-lips"
       d="M -160,324 L -156,316 L -120,320 L -88,320 L -52,316 L -48,324 L -80,356 L -128,356 Z"
       style="opacity:1;fill:#263238;fill-opacity:1;stroke:none;stroke-width:8;stroke-linecap:round;stroke-linejoin:round;stroke-miterlimit:4;stroke-dasharray:none;stroke-opacity:1" />
    <path
       style="opacity:1;fill:#263238;fill-opacity:1;stroke:none;stroke-width:8;stroke-linecap:round;stroke-linejoin:round;stroke-miterlimit:4;stroke-dasharray:none;stroke-opacity:1"
       d="M -128,188 L -128,168 L -116,148 L -92,148 L -80,168 L -80,188 L -92,208 L -116,208 Z"
       class="calvin-lips"
       inkscape:connector-curvature="0"
       sodipodi:nodetypes="ccccccccc"
       id="path5443" />
    <path
       id="path5447"
       sodipodi:nodetypes="ccccccccc"
       inkscape:connector-curvature="0"
       class="calvin-lips"
       d="M -116,380 L -116,376 L -108,368 L -100,368 L -92,376 L -92,380 L -100,392 L -108,392 Z"
       style="opacity:1;fill:#263238;fill-opacity:1;stroke:none;stroke-width:8;stroke-linecap:round;stroke-linejoin:round;stroke-miterlimit:4;stroke-dasharray:none;stroke-opacity:1" />
    <path
       id="path5449"
       sodipodi:nodetypes="ccccccccc"
       inkscape:connector-curvature="0"
       class="calvin-lips"
       d="M -144,424 L -148,416 L -108,424 L -100,424 L -60,416 L -64,424 L -100,432 L -108,432 Z"
       style="opacity:1;fill:#263238;fill-opacity:1;stroke:none;stroke-width:8;stroke-linecap:round;stroke-linejoin:round;stroke-miterlimit:4;stroke-dasharray:none;stroke-opacity:1" />
    <path
       id="path5451"
       sodipodi:nodetypes="ccccccccc"
       inkscape:connector-curvature="0"
       class="calvin-lips"
       d="M -144,468 L -148,456 L -120,460 L -88,460 L -60,456 L -64,468 L -92,480 L -116,480 Z"
       style="opacity:1;fill:#263238;fill-opacity:1;stroke:none;stroke-width:8;stroke-linecap:round;stroke-linejoin:round;stroke-miterlimit:4;stroke-dasharray:none;stroke-opacity:1" />
    <path
       id="path4239"
       style="opacity:1;fill:#f44336;fill-opacity:1;stroke:none;stroke-width:4;stroke-linecap:round;stroke-linejoin:round;stroke-miterlimit:4;stroke-dasharray:none;stroke-opacity:1"
       d="M 613.71429,496.3622 L 630.74903,417.96242 L 647.42995,350.42384 L 725.14286,333.50499 L 776.57143,324.93356 L 810.85714,333.50499 L 887.99999,350.64785 L 905.14285,419.21927 L 922.2857,496.3622 L 776.57143,496.3622 Z"
       class="calvin-arms"
       inkscape:connector-curvature="0"
       sodipodi:nodetypes="ccccccccccc" />
    <path
       id="path4241"
       style="opacity:1;fill:#b71c1c;fill-opacity:1;stroke:none;stroke-width:4;stroke-linecap:round;stroke-linejoin:round;stroke-miterlimit:4;stroke-dasharray:none;stroke-opacity:1"
       d="M 667.04696,496.3622 L 682.28572,402.07641 L 699.42857,367.7907 L 725.14286,333.50499 L 776.57143,319.98836 L 810.85714,333.50499 L 836.57142,367.7907 L 853.71428,402.07641 L 870.85713,496.3622 L 777.52348,496.3622 Z"
       class="calvin-chest"
       inkscape:connector-curvature="0"
       sodipodi:nodetypes="ccccccccccc" />
    <path
       id="path4243"
       style="opacity:1;fill:#ff9800;fill-opacity:1;stroke:none;stroke-width:2;stroke-linecap:round;stroke-linejoin:round;stroke-miterlimit:4;stroke-dasharray:none;stroke-opacity:1"
       d="M 725.14286,294.93356 L 810.85714,294.93356 L 810.85714,342.07642 L 768,410.64784 L 725.14286,342.07642 Z"
       class="calvin-neck"
       inkscape:connector-curvature="0"
       sodipodi:nodetypes="cccccc" />
    <path
       id="path4245"
       style="opacity:1;fill:#ffc107;fill-opacity:1;stroke:none;stroke-width:2;stroke-linecap:round;stroke-linejoin:round;stroke-miterlimit:4;stroke-dasharray:none;stroke-opacity:1"
       d="M 879.42856,204.93357 L 862.28571,256.36214 L 836.57142,282.07642 L 815.14285,319.50499 L 793.71428,328.07642 L 742.28571,328.07642 L 720.85714,319.50499 L 699.42857,282.07642 L 673.71429,252.07642 L 656.57143,204.93361 L 665.14286,153.505 L 682.28572,102.07643 L 768,84.93358 L 853.71428,102.07643 L 870.85713,153.505 Z"
       class="calvin-head"
       inkscape:connector-curvature="0"
       sodipodi:nodetypes="cccccccccccccccc" />
    <path
       id="path4247"
       inkscape:connector-curvature="0"
       class="calvin-eye-right"
       d="M 742.28571,172.79071 A 17.142853,19.285721 0 0 1 725.14285,192.07643 A 17.142853,19.285721 0 0 1 708,172.79071 A 17.142853,19.285721 0 0 1 725.14285,153.50499 A 17.142853,19.285721 0 0 1 742.28571,172.79071 Z"
       style="opacity:1;fill:#3e2723;fill-opacity:1;stroke:none;stroke-width:4;stroke-linecap:round;stroke-linejoin:round;stroke-miterlimit:4;stroke-dasharray:none;stroke-opacity:1" />
    <path
       id="path4249"
       inkscape:connector-curvature="0"
       class="calvin-eye-left"
       d="M 828,172.79071 A 17.142853,19.285721 0 0 1 810.85715,192.07643 A 17.142853,19.285721 0 0 1 793.71429,172.79071 A 17.142853,19.285721 0 0 1 810.85715,153.50499 A 17.142853,19.285721 0 0 1 828,172.79071 Z"
       style="opacity:1;fill:#3e2723;fill-opacity:1;stroke:none;stroke-width:4;stroke-linecap:round;stroke-linejoin:round;stroke-miterlimit:4;stroke-dasharray:none;stroke-opacity:1" />
    <path
       id="path4251"
       style="opacity:1;fill:#ffc107;fill-opacity:1;stroke:none;stroke-width:4;stroke-linecap:round;stroke-linejoin:round;stroke-miterlimit:4;stroke-dasharray:none;stroke-opacity:1"
       d="M 622.28572,179.21929 L 630.85715,222.07643 L 656.57143,247.79071 L 665.14286,247.79071 L 682.28572,196.36214 L 656.57143,162.07643 L 630.85715,162.07643 Z"
       class="calvin-ear-right"
       inkscape:connector-curvature="0"
       sodipodi:nodetypes="cccccccc" />
    <path
       id="path4253"
       style="opacity:1;fill:#ff9800;fill-opacity:1;stroke:none;stroke-width:4;stroke-linecap:round;stroke-linejoin:round;stroke-miterlimit:4;stroke-dasharray:none;stroke-opacity:1"
       d="M 648.00001,222.07643 L 656.57143,213.505 L 656.57143,196.36214 L 656.57143,187.79071 L 648.00001,179.21929 L 639.42858,196.36214 Z"
       class="calvin-ear-right-inner"
       inkscape:connector-curvature="0"
       sodipodi:nodetypes="ccccccc" />
    <path
       id="path4255"
       sodipodi:nodetypes="cccccccc"
       inkscape:connector-curvature="0"
       class="calvin-ear-left"
       d="M 913.71427,179.21929 L 905.14285,222.07643 L 879.42856,247.79071 L 870.85713,247.79071 L 853.71428,196.36214 L 879.42856,162.07643 L 905.14285,162.07643 Z"
       style="opacity:1;fill:#ffc107;fill-opacity:1;stroke:none;stroke-width:4;stroke-linecap:round;stroke-linejoin:round;stroke-miterlimit:4;stroke-dasharray:none;stroke-opacity:1" />
    <path
       id="path4257"
       sodipodi:nodetypes="ccccccc"
       inkscape:connector-curvature="0"
       class="calvin-ear-left-inner"
       d="M 887.99999,222.07643 L 879.42856,213.505 L 879.42856,196.36214 L 879.42856,187.79071 L 887.99999,179.21929 L 896.57142,196.36214 Z"
       style="opacity:1;fill:#ff9800;fill-opacity:1;stroke:none;stroke-width:4;stroke-linecap:round;stroke-linejoin:round;stroke-miterlimit:4;stroke-dasharray:none;stroke-opacity:1" />
    <path
       id="path4259"
       style="fill:#3e2723;fill-rule:evenodd;stroke:none;stroke-width:1px;stroke-linecap:butt;stroke-linejoin:miter;stroke-opacity:1"
       d="M 665.14286,204.93357 L 665.14286,162.07643 L 673.71429,136.36215 L 690.85715,110.64786 L 725.14286,119.21929 L 740.69261,102.07643 L 768,119.21929 L 793.71428,102.07643 L 810.85714,119.21929 L 845.14285,110.64786 L 862.28571,136.36215 L 870.85713,162.07643 L 871.42856,204.93357 L 896.57142,119.21929 L 870.85713,33.50501 L 845.14285,67.79072 L 827.99999,16.36215 L 802.28571,42.07644 L 768,16.36215 L 733.71429,42.07644 L 708,16.36215 L 690.85715,67.79072 L 665.14286,33.50501 L 639.42858,119.21929 Z"
       class="calvin-hair"
       inkscape:connector-curvature="0"
       sodipodi:nodetypes="ccccccccccccccccccccccccc" />
    <path
       id="path4271"
       sodipodi:nodetypes="ccccccccc"
       inkscape:connector-curvature="0"
       class="calvin-lips"
       d="M 224,268 L 220,256 L 240,260 L 272,260 L 292,256 L 288,268 L 268,280 L 244,280 Z"
       style="opacity:1;fill:#263238;fill-opacity:1;stroke:none;stroke-width:8;stroke-linecap:round;stroke-linejoin:round;stroke-miterlimit:4;stroke-dasharray:none;stroke-opacity:1" />
    <path
       sodipodi:nodetypes="ccccccccccc"
       inkscape:connector-curvature="0"
       class="calvin-arms"
       d="M 1125.7143,496.3622 L 1142.749,417.96242 L 1159.4299,350.42384 L 1237.1429,333.50499 L 1288.5714,324.93356 L 1322.8571,333.50499 L 1400,350.64785 L 1417.1429,419.21927 L 1434.2857,496.3622 L 1288.5714,496.3622 Z"
       style="opacity:1;fill:#f44336;fill-opacity:1;stroke:none;stroke-width:4;stroke-linecap:round;stroke-linejoin:round;stroke-miterlimit:4;stroke-dasharray:none;stroke-opacity:1"
       id="path4279" />
    <path
       sodipodi:nodetypes="ccccccccccc"
       inkscape:connector-curvature="0"
       class="calvin-chest"
       d="M 1179.047,496.3622 L 1194.2857,402.07641 L 1211.4286,367.7907 L 1237.1429,333.50499 L 1288.5714,319.98836 L 1322.8571,333.50499 L 1348.5714,367.7907 L 1365.7143,402.07641 L 1382.8571,496.3622 L 1289.5235,496.3622 Z"
       style="opacity:1;fill:#b71c1c;fill-opacity:1;stroke:none;stroke-width:4;stroke-linecap:round;stroke-linejoin:round;stroke-miterlimit:4;stroke-dasharray:none;stroke-opacity:1"
       id="path4281" />
    <path
       sodipodi:nodetypes="cccccc"
       inkscape:connector-curvature="0"
       class="calvin-neck"
       d="M 1237.1429,294.93356 L 1322.8571,294.93356 L 1322.8571,342.07642 L 1280,410.64784 L 1237.1429,342.07642 Z"
       style="opacity:1;fill:#ff9800;fill-opacity:1;stroke:none;stroke-width:2;stroke-linecap:round;stroke-linejoin:round;stroke-miterlimit:4;stroke-dasharray:none;stroke-opacity:1"
       id="path4283" />
    <path
       id="path4427"
       style="opacity:1;fill:#ffc107;fill-opacity:1;stroke:none;stroke-width:2;stroke-linecap:round;stroke-linejoin:round;stroke-miterlimit:4;stroke-dasharray:none;stroke-opacity:1"
       d="M 1391.4286,204.93357 L 1374.2857,256.36214 L 1348.5714,282.07642 L 1327.1428,303.50499 L 1305.7143,312.07642 L 1254.2857,312.07642 L 1232.8571,303.50499 L 1211.4286,282.07642 L 1185.7143,252.07642 L 1168.5714,204.93361 L 1177.1429,153.505 L 1194.2857,102.07643 L 1280,84.93358 L 1365.7143,102.07643 L 1382.8571,153.505 Z"
       class="calvin-head"
       inkscape:connector-curvature="0"
       sodipodi:nodetypes="cccccccccccccccc" />
    <path
       sodipodi:nodetypes="cccccccc"
       inkscape:connector-curvature="0"
       class="calvin-ear-right"
       d="M 1134.2857,179.21929 L 1142.8572,222.07643 L 1168.5714,247.79071 L 1177.1429,247.79071 L 1194.2857,196.36214 L 1168.5714,162.07643 L 1142.8572,162.07643 Z"
       style="opacity:1;fill:#ffc107;fill-opacity:1;stroke:none;stroke-width:4;stroke-linecap:round;stroke-linejoin:round;stroke-miterlimit:4;stroke-dasharray:none;stroke-opacity:1"
       id="path4321" />
    <path
       style="opacity:1;fill:#3e2723;fill-opacity:1;stroke:none;stroke-width:4;stroke-linecap:round;stroke-linejoin:round;stroke-miterlimit:4;stroke-dasharray:none;stroke-opacity:1"
       d="M 1254.2857,172.79071 A 17.142853,19.285721 0 0 1 1237.1428,192.07643 A 17.142853,19.285721 0 0 1 1220,172.79071 A 17.142853,19.285721 0 0 1 1237.1428,153.50499 A 17.142853,19.285721 0 0 1 1254.2857,172.79071 Z"
       class="calvin-eye-right"
       inkscape:connector-curvature="0"
       id="path4287" />
    <path
       style="opacity:1;fill:#3e2723;fill-opacity:1;stroke:none;stroke-width:4;stroke-linecap:round;stroke-linejoin:round;stroke-miterlimit:4;stroke-dasharray:none;stroke-opacity:1"
       d="M 1340,172.79071 A 17.142853,19.285721 0 0 1 1322.8572,192.07643 A 17.142853,19.285721 0 0 1 1305.7143,172.79071 A 17.142853,19.285721 0 0 1 1322.8572,153.50499 A 17.142853,19.285721 0 0 1 1340,172.79071 Z"
       class="calvin-eye-left"
       inkscape:connector-curvature="0"
       id="path4289" />
    <path
       sodipodi:nodetypes="ccccccc"
       inkscape:connector-curvature="0"
       class="calvin-ear-right-inner"
       d="M 1160,222.07643 L 1168.5714,213.505 L 1168.5714,196.36214 L 1168.5714,187.79071 L 1160,179.21929 L 1151.4286,196.36214 Z"
       style="opacity:1;fill:#ff9800;fill-opacity:1;stroke:none;stroke-width:4;stroke-linecap:round;stroke-linejoin:round;stroke-miterlimit:4;stroke-dasharray:none;stroke-opacity:1"
       id="path4293" />
    <path
       style="opacity:1;fill:#ffc107;fill-opacity:1;stroke:none;stroke-width:4;stroke-linecap:round;stroke-linejoin:round;stroke-miterlimit:4;stroke-dasharray:none;stroke-opacity:1"
       d="M 1425.7143,179.21929 L 1417.1429,222.07643 L 1391.4286,247.79071 L 1382.8571,247.79071 L 1365.7143,196.36214 L 1391.4286,162.07643 L 1417.1429,162.07643 Z"
       class="calvin-ear-left"
       inkscape:connector-curvature="0"
       sodipodi:nodetypes="cccccccc"
       id="path4295" />
    <path
       style="opacity:1;fill:#ff9800;fill-opacity:1;stroke:none;stroke-width:4;stroke-linecap:round;stroke-linejoin:round;stroke-miterlimit:4;stroke-dasharray:none;stroke-opacity:1"
       d="M 1400,222.07643 L 1391.4286,213.505 L 1391.4286,196.36214 L 1391.4286,187.79071 L 1400,179.21929 L 1408.5714,196.36214 Z"
       class="calvin-ear-left-inner"
       inkscape:connector-curvature="0"
       sodipodi:nodetypes="ccccccc"
       id="path4297" />
    <path
       sodipodi:nodetypes="ccccccccccccccccccccccccc"
       inkscape:connector-curvature="0"
       class="calvin-hair"
       d="M 1177.1429,204.93357 L 1177.1429,162.07643 L 1185.7143,136.36215 L 1202.8572,110.64786 L 1237.1429,119.21929 L 1252.6926,102.07643 L 1280,119.21929 L 1305.7143,102.07643 L 1322.8571,119.21929 L 1357.1428,110.64786 L 1374.2857,136.36215 L 1382.8571,162.07643 L 1383.4286,204.93357 L 1408.5714,119.21929 L 1382.8571,33.50501 L 1357.1428,67.79072 L 1340,16.36215 L 1314.2857,42.07644 L 1280,16.36215 L 1245.7143,42.07644 L 1220,16.36215 L 1202.8572,67.79072 L 1177.1429,33.50501 L 1151.4286,119.21929 Z"
       style="fill:#3e2723;fill-rule:evenodd;stroke:none;stroke-width:1px;stroke-linecap:butt;stroke-linejoin:miter;stroke-opacity:1"
       id="path4299" />
    <path
       style="opacity:1;fill:#263238;fill-opacity:1;stroke:none;stroke-width:8;stroke-linecap:round;stroke-linejoin:round;stroke-miterlimit:4;stroke-dasharray:none;stroke-opacity:1"
       d="M 724,256 L 728,248 L 752,252 L 784,252 L 808,248 L 812,256 L 784,300 L 752,300 Z"
       class="calvin-lips"
       inkscape:connector-curvature="0"
       sodipodi:nodetypes="ccccccccc"
       id="path4319" />
    <path
       style="opacity:1;fill:#263238;fill-opacity:1;stroke:none;stroke-width:8;stroke-linecap:round;stroke-linejoin:round;stroke-miterlimit:4;stroke-dasharray:none;stroke-opacity:1"
       d="M 1220,256 L 1224,248 L 1264,252 L 1296,252 L 1336,248 L 1340,256 L 1304,284 L 1256,284 Z"
       class="calvin-lips"
       inkscape:connector-curvature="0"
       sodipodi:nodetypes="ccccccccc"
       id="path4323" />
    <path
       id="path4325"
       style="opacity:1;fill:#f44336;fill-opacity:1;stroke:none;stroke-width:4;stroke-linecap:round;stroke-linejoin:round;stroke-miterlimit:4;stroke-dasharray:none;stroke-opacity:1"
       d="M 101.71429,1008.3622 L 118.74903,929.96242 L 135.42995,862.42384 L 213.14286,845.50499 L 264.57143,836.93356 L 298.85714,845.50499 L 375.99999,862.64785 L 393.14285,931.21927 L 410.2857,1008.3622 L 264.57143,1008.3622 Z"
       class="calvin-arms"
       inkscape:connector-curvature="0"
       sodipodi:nodetypes="ccccccccccc" />
    <path
       id="path4327"
       style="opacity:1;fill:#b71c1c;fill-opacity:1;stroke:none;stroke-width:4;stroke-linecap:round;stroke-linejoin:round;stroke-miterlimit:4;stroke-dasharray:none;stroke-opacity:1"
       d="M 155.04696,1008.3622 L 170.28572,914.07641 L 187.42857,879.7907 L 213.14286,845.50499 L 264.57143,831.98836 L 298.85714,845.50499 L 324.57142,879.7907 L 341.71428,914.07641 L 358.85713,1008.3622 L 265.52348,1008.3622 Z"
       class="calvin-chest"
       inkscape:connector-curvature="0"
       sodipodi:nodetypes="ccccccccccc" />
    <path
       id="path4329"
       style="opacity:1;fill:#ff9800;fill-opacity:1;stroke:none;stroke-width:2;stroke-linecap:round;stroke-linejoin:round;stroke-miterlimit:4;stroke-dasharray:none;stroke-opacity:1"
       d="M 213.14286,806.93356 L 298.85714,806.93356 L 298.85714,854.07642 L 256,922.64784 L 213.14286,854.07642 Z"
       class="calvin-neck"
       inkscape:connector-curvature="0"
       sodipodi:nodetypes="cccccc" />
    <path
       id="path4331"
       style="opacity:1;fill:#ffc107;fill-opacity:1;stroke:none;stroke-width:2;stroke-linecap:round;stroke-linejoin:round;stroke-miterlimit:4;stroke-dasharray:none;stroke-opacity:1"
       d="M 367.42856,716.93357 L 350.28571,768.36214 L 324.57142,794.07642 L 303.14285,827.50499 L 281.71428,836.07642 L 230.28571,836.07642 L 208.85714,827.50499 L 187.42857,794.07642 L 161.71429,764.07642 L 144.57143,716.93361 L 153.14286,665.505 L 170.28572,614.07643 L 256,596.93358 L 341.71428,614.07643 L 358.85713,665.505 Z"
       class="calvin-head"
       inkscape:connector-curvature="0"
       sodipodi:nodetypes="cccccccccccccccc" />
    <path
       id="path4333"
       inkscape:connector-curvature="0"
       class="calvin-eye-right"
       d="M 230.28571,684.79071 A 17.142853,19.285721 0 0 1 213.14285,704.07643 A 17.142853,19.285721 0 0 1 196,684.79071 A 17.142853,19.285721 0 0 1 213.14285,665.50499 A 17.142853,19.285721 0 0 1 230.28571,684.79071 Z"
       style="opacity:1;fill:#3e2723;fill-opacity:1;stroke:none;stroke-width:4;stroke-linecap:round;stroke-linejoin:round;stroke-miterlimit:4;stroke-dasharray:none;stroke-opacity:1" />
    <path
       id="path4335"
       inkscape:connector-curvature="0"
       class="calvin-eye-left"
       d="M 316,684.79071 A 17.142853,19.285721 0 0 1 298.85715,704.07643 A 17.142853,19.285721 0 0 1 281.71429,684.79071 A 17.142853,19.285721 0 0 1 298.85715,665.50499 A 17.142853,19.285721 0 0 1 316,684.79071 Z"
       style="opacity:1;fill:#3e2723;fill-opacity:1;stroke:none;stroke-width:4;stroke-linecap:round;stroke-linejoin:round;stroke-miterlimit:4;stroke-dasharray:none;stroke-opacity:1" />
    <path
       id="path4337"
       style="opacity:1;fill:#ffc107;fill-opacity:1;stroke:none;stroke-width:4;stroke-linecap:round;stroke-linejoin:round;stroke-miterlimit:4;stroke-dasharray:none;stroke-opacity:1"
       d="M 110.28572,691.21929 L 118.85715,734.07643 L 144.57143,759.79071 L 153.14286,759.79071 L 170.28572,708.36214 L 144.57143,674.07643 L 118.85715,674.07643 Z"
       class="calvin-ear-right"
       inkscape:connector-curvature="0"
       sodipodi:nodetypes="cccccccc" />
    <path
       id="path4339"
       style="opacity:1;fill:#ff9800;fill-opacity:1;stroke:none;stroke-width:4;stroke-linecap:round;stroke-linejoin:round;stroke-miterlimit:4;stroke-dasharray:none;stroke-opacity:1"
       d="M 136.00001,734.07643 L 144.57143,725.505 L 144.57143,708.36214 L 144.57143,699.79071 L 136.00001,691.21929 L 127.42858,708.36214 Z"
       class="calvin-ear-right-inner"
       inkscape:connector-curvature="0"
       sodipodi:nodetypes="ccccccc" />
    <path
       id="path4341"
       sodipodi:nodetypes="cccccccc"
       inkscape:connector-curvature="0"
       class="calvin-ear-left"
       d="M 401.71427,691.21929 L 393.14285,734.07643 L 367.42856,759.79071 L 358.85713,759.79071 L 341.71428,708.36214 L 367.42856,674.07643 L 393.14285,674.07643 Z"
       style="opacity:1;fill:#ffc107;fill-opacity:1;stroke:none;stroke-width:4;stroke-linecap:round;stroke-linejoin:round;stroke-miterlimit:4;stroke-dasharray:none;stroke-opacity:1" />
    <path
       id="path4343"
       sodipodi:nodetypes="ccccccc"
       inkscape:connector-curvature="0"
       class="calvin-ear-left-inner"
       d="M 375.99999,734.07643 L 367.42856,725.505 L 367.42856,708.36214 L 367.42856,699.79071 L 375.99999,691.21929 L 384.57142,708.36214 Z"
       style="opacity:1;fill:#ff9800;fill-opacity:1;stroke:none;stroke-width:4;stroke-linecap:round;stroke-linejoin:round;stroke-miterlimit:4;stroke-dasharray:none;stroke-opacity:1" />
    <path
       id="path4345"
       style="fill:#3e2723;fill-rule:evenodd;stroke:none;stroke-width:1px;stroke-linecap:butt;stroke-linejoin:miter;stroke-opacity:1"
       d="M 153.14286,716.93357 L 153.14286,674.07643 L 161.71429,648.36215 L 178.85715,622.64786 L 213.14286,631.21929 L 228.69261,614.07643 L 256,631.21929 L 281.71428,614.07643 L 298.85714,631.21929 L 333.14285,622.64786 L 350.28571,648.36215 L 358.85713,674.07643 L 359.42856,716.93357 L 384.57142,631.21929 L 358.85713,545.50501 L 333.14285,579.79072 L 315.99999,528.36215 L 290.28571,554.07644 L 256,528.36215 L 221.71429,554.07644 L 196,528.36215 L 178.85715,579.79072 L 153.14286,545.50501 L 127.42858,631.21929 Z"
       class="calvin-hair"
       inkscape:connector-curvature="0"
       sodipodi:nodetypes="ccccccccccccccccccccccccc" />
    <path
       id="path4349"
       sodipodi:nodetypes="ccccccccc"
       inkscape:connector-curvature="0"
       class="calvin-lips"
       d="M 232,788 L 232,768 L 244,748 L 268,748 L 280,768 L 280,788 L 268,808 L 244,808 Z"
       style="opacity:1;fill:#263238;fill-opacity:1;stroke:none;stroke-width:8;stroke-linecap:round;stroke-linejoin:round;stroke-miterlimit:4;stroke-dasharray:none;stroke-opacity:1" />
    <path
       sodipodi:nodetypes="ccccccccccc"
       inkscape:connector-curvature="0"
       class="calvin-arms"
       d="M 613.71429,1008.3622 L 630.74903,929.96242 L 647.42995,862.42384 L 725.14286,845.50499 L 776.57143,836.93356 L 810.85714,845.50499 L 887.99999,862.64785 L 905.14285,931.21927 L 922.2857,1008.3622 L 776.57143,1008.3622 Z"
       style="opacity:1;fill:#f44336;fill-opacity:1;stroke:none;stroke-width:4;stroke-linecap:round;stroke-linejoin:round;stroke-miterlimit:4;stroke-dasharray:none;stroke-opacity:1"
       id="path4351" />
    <path
       sodipodi:nodetypes="ccccccccccc"
       inkscape:connector-curvature="0"
       class="calvin-chest"
       d="M 667.04696,1008.3622 L 682.28572,914.07641 L 699.42857,879.7907 L 725.14286,845.50499 L 776.57143,831.98836 L 810.85714,845.50499 L 836.57142,879.7907 L 853.71428,914.07641 L 870.85713,1008.3622 L 777.52348,1008.3622 Z"
       style="opacity:1;fill:#b71c1c;fill-opacity:1;stroke:none;stroke-width:4;stroke-linecap:round;stroke-linejoin:round;stroke-miterlimit:4;stroke-dasharray:none;stroke-opacity:1"
       id="path4353" />
    <path
       sodipodi:nodetypes="cccccc"
       inkscape:connector-curvature="0"
       class="calvin-neck"
       d="M 725.14286,806.93356 L 810.85714,806.93356 L 810.85714,854.07642 L 768,922.64784 L 725.14286,854.07642 Z"
       style="opacity:1;fill:#ff9800;fill-opacity:1;stroke:none;stroke-width:2;stroke-linecap:round;stroke-linejoin:round;stroke-miterlimit:4;stroke-dasharray:none;stroke-opacity:1"
       id="path4355" />
    <path
       sodipodi:nodetypes="cccccccccccccccc"
       inkscape:connector-curvature="0"
       class="calvin-head"
       d="M 879.42856,716.93357 L 862.28571,768.36214 L 832.57142,794.07642 L 819.14285,815.50499 L 793.71428,824.07642 L 742.28571,824.07642 L 716.85714,815.50499 L 703.42857,794.07642 L 673.71429,764.07642 L 656.57143,716.93361 L 665.14286,665.505 L 682.28572,614.07643 L 768,596.93358 L 853.71428,614.07643 L 870.85713,665.505 Z"
       style="opacity:1;fill:#ffc107;fill-opacity:1;stroke:none;stroke-width:2;stroke-linecap:round;stroke-linejoin:round;stroke-miterlimit:4;stroke-dasharray:none;stroke-opacity:1"
       id="path4357" />
    <path
       id="path5437"
       sodipodi:nodetypes="ccccccccc"
       inkscape:connector-curvature="0"
       class="calvin-lips"
       d="M 748,784 L 748,772 L 756,760 L 780,760 L 788,772 L 788,784 L 780,796 L 756,796 Z"
       style="opacity:1;fill:#263238;fill-opacity:1;stroke:none;stroke-width:8;stroke-linecap:round;stroke-linejoin:round;stroke-miterlimit:4;stroke-dasharray:none;stroke-opacity:1" />
    <path
       style="opacity:1;fill:#3e2723;fill-opacity:1;stroke:none;stroke-width:4;stroke-linecap:round;stroke-linejoin:round;stroke-miterlimit:4;stroke-dasharray:none;stroke-opacity:1"
       d="M 742.28571,684.79071 A 17.142853,19.285721 0 0 1 725.14285,704.07643 A 17.142853,19.285721 0 0 1 708,684.79071 A 17.142853,19.285721 0 0 1 725.14285,665.50499 A 17.142853,19.285721 0 0 1 742.28571,684.79071 Z"
       class="calvin-eye-right"
       inkscape:connector-curvature="0"
       id="path4359" />
    <path
       style="opacity:1;fill:#3e2723;fill-opacity:1;stroke:none;stroke-width:4;stroke-linecap:round;stroke-linejoin:round;stroke-miterlimit:4;stroke-dasharray:none;stroke-opacity:1"
       d="M 828,684.79071 A 17.142853,19.285721 0 0 1 810.85715,704.07643 A 17.142853,19.285721 0 0 1 793.71429,684.79071 A 17.142853,19.285721 0 0 1 810.85715,665.50499 A 17.142853,19.285721 0 0 1 828,684.79071 Z"
       class="calvin-eye-left"
       inkscape:connector-curvature="0"
       id="path4361" />
    <path
       sodipodi:nodetypes="cccccccc"
       inkscape:connector-curvature="0"
       class="calvin-ear-right"
       d="M 622.28572,691.21929 L 630.85715,734.07643 L 656.57143,759.79071 L 665.14286,759.79071 L 682.28572,708.36214 L 656.57143,674.07643 L 630.85715,674.07643 Z"
       style="opacity:1;fill:#ffc107;fill-opacity:1;stroke:none;stroke-width:4;stroke-linecap:round;stroke-linejoin:round;stroke-miterlimit:4;stroke-dasharray:none;stroke-opacity:1"
       id="path4363" />
    <path
       sodipodi:nodetypes="ccccccc"
       inkscape:connector-curvature="0"
       class="calvin-ear-right-inner"
       d="M 648.00001,734.07643 L 656.57143,725.505 L 656.57143,708.36214 L 656.57143,699.79071 L 648.00001,691.21929 L 639.42858,708.36214 Z"
       style="opacity:1;fill:#ff9800;fill-opacity:1;stroke:none;stroke-width:4;stroke-linecap:round;stroke-linejoin:round;stroke-miterlimit:4;stroke-dasharray:none;stroke-opacity:1"
       id="path4365" />
    <path
       style="opacity:1;fill:#ffc107;fill-opacity:1;stroke:none;stroke-width:4;stroke-linecap:round;stroke-linejoin:round;stroke-miterlimit:4;stroke-dasharray:none;stroke-opacity:1"
       d="M 913.71427,691.21929 L 905.14285,734.07643 L 879.42856,759.79071 L 870.85713,759.79071 L 853.71428,708.36214 L 879.42856,674.07643 L 905.14285,674.07643 Z"
       class="calvin-ear-left"
       inkscape:connector-curvature="0"
       sodipodi:nodetypes="cccccccc"
       id="path4367" />
    <path
       style="opacity:1;fill:#ff9800;fill-opacity:1;stroke:none;stroke-width:4;stroke-linecap:round;stroke-linejoin:round;stroke-miterlimit:4;stroke-dasharray:none;stroke-opacity:1"
       d="M 887.99999,734.07643 L 879.42856,725.505 L 879.42856,708.36214 L 879.42856,699.79071 L 887.99999,691.21929 L 896.57142,708.36214 Z"
       class="calvin-ear-left-inner"
       inkscape:connector-curvature="0"
       sodipodi:nodetypes="ccccccc"
       id="path4369" />
    <path
       sodipodi:nodetypes="ccccccccccccccccccccccccc"
       inkscape:connector-curvature="0"
       class="calvin-hair"
       d="M 665.14286,716.93357 L 665.14286,674.07643 L 673.71429,648.36215 L 690.85715,622.64786 L 725.14286,631.21929 L 740.69261,614.07643 L 768,631.21929 L 793.71428,614.07643 L 810.85714,631.21929 L 845.14285,622.64786 L 862.28571,648.36215 L 870.85713,674.07643 L 871.42856,716.93357 L 896.57142,631.21929 L 870.85713,545.50501 L 845.14285,579.79072 L 827.99999,528.36215 L 802.28571,554.07644 L 768,528.36215 L 733.71429,554.07644 L 708,528.36215 L 690.85715,579.79072 L 665.14286,545.50501 L 639.42858,631.21929 Z"
       style="fill:#3e2723;fill-rule:evenodd;stroke:none;stroke-width:1px;stroke-linecap:butt;stroke-linejoin:miter;stroke-opacity:1"
       id="path4371" />
    <path
       id="path4375"
       style="opacity:1;fill:#f44336;fill-opacity:1;stroke:none;stroke-width:4;stroke-linecap:round;stroke-linejoin:round;stroke-miterlimit:4;stroke-dasharray:none;stroke-opacity:1"
       d="M 1121.7143,1008.3622 L 1138.749,929.96242 L 1155.4299,862.42384 L 1233.1429,845.50499 L 1284.5714,836.93356 L 1318.8571,845.50499 L 1396,862.64785 L 1413.1429,931.21927 L 1430.2857,1008.3622 L 1284.5714,1008.3622 Z"
       class="calvin-arms"
       inkscape:connector-curvature="0"
       sodipodi:nodetypes="ccccccccccc" />
    <path
       id="path4377"
       style="opacity:1;fill:#b71c1c;fill-opacity:1;stroke:none;stroke-width:4;stroke-linecap:round;stroke-linejoin:round;stroke-miterlimit:4;stroke-dasharray:none;stroke-opacity:1"
       d="M 1175.047,1008.3622 L 1190.2857,914.07641 L 1207.4286,879.7907 L 1233.1429,845.50499 L 1284.5714,831.98836 L 1318.8571,845.50499 L 1344.5714,879.7907 L 1361.7143,914.07641 L 1378.8571,1008.3622 L 1285.5235,1008.3622 Z"
       class="calvin-chest"
       inkscape:connector-curvature="0"
       sodipodi:nodetypes="ccccccccccc" />
    <path
       id="path4379"
       style="opacity:1;fill:#ff9800;fill-opacity:1;stroke:none;stroke-width:2;stroke-linecap:round;stroke-linejoin:round;stroke-miterlimit:4;stroke-dasharray:none;stroke-opacity:1"
       d="M 1233.1429,806.93356 L 1318.8571,806.93356 L 1318.8571,854.07642 L 1276,922.64784 L 1233.1429,854.07642 Z"
       class="calvin-neck"
       inkscape:connector-curvature="0"
       sodipodi:nodetypes="cccccc" />
    <path
       id="path4381"
       style="opacity:1;fill:#ffc107;fill-opacity:1;stroke:none;stroke-width:2;stroke-linecap:round;stroke-linejoin:round;stroke-miterlimit:4;stroke-dasharray:none;stroke-opacity:1"
       d="M 1387.4286,716.93357 L 1370.2857,768.36214 L 1336.5714,794.07642 L 1323.1428,815.50499 L 1301.7143,824.07642 L 1250.2857,824.07642 L 1228.8571,815.50499 L 1215.4286,794.07642 L 1181.7143,764.07642 L 1164.5714,716.93361 L 1173.1429,665.505 L 1190.2857,614.07643 L 1276,596.93358 L 1361.7143,614.07643 L 1378.8571,665.505 Z"
       class="calvin-head"
       inkscape:connector-curvature="0"
       sodipodi:nodetypes="cccccccccccccccc" />
    <path
       id="path4385"
       inkscape:connector-curvature="0"
       class="calvin-eye-right"
       d="M 1250.2857,684.79071 A 17.142853,19.285721 0 0 1 1233.1428,704.07643 A 17.142853,19.285721 0 0 1 1216,684.79071 A 17.142853,19.285721 0 0 1 1233.1428,665.50499 A 17.142853,19.285721 0 0 1 1250.2857,684.79071 Z"
       style="opacity:1;fill:#3e2723;fill-opacity:1;stroke:none;stroke-width:4;stroke-linecap:round;stroke-linejoin:round;stroke-miterlimit:4;stroke-dasharray:none;stroke-opacity:1" />
    <path
       id="path4387"
       inkscape:connector-curvature="0"
       class="calvin-eye-left"
       d="M 1336,684.79071 A 17.142853,19.285721 0 0 1 1318.8572,704.07643 A 17.142853,19.285721 0 0 1 1301.7143,684.79071 A 17.142853,19.285721 0 0 1 1318.8572,665.50499 A 17.142853,19.285721 0 0 1 1336,684.79071 Z"
       style="opacity:1;fill:#3e2723;fill-opacity:1;stroke:none;stroke-width:4;stroke-linecap:round;stroke-linejoin:round;stroke-miterlimit:4;stroke-dasharray:none;stroke-opacity:1" />
    <path
       id="path4389"
       style="opacity:1;fill:#ffc107;fill-opacity:1;stroke:none;stroke-width:4;stroke-linecap:round;stroke-linejoin:round;stroke-miterlimit:4;stroke-dasharray:none;stroke-opacity:1"
       d="M 1130.2857,691.21929 L 1138.8572,734.07643 L 1164.5714,759.79071 L 1173.1429,759.79071 L 1190.2857,708.36214 L 1164.5714,674.07643 L 1138.8572,674.07643 Z"
       class="calvin-ear-right"
       inkscape:connector-curvature="0"
       sodipodi:nodetypes="cccccccc" />
    <path
       id="path4391"
       style="opacity:1;fill:#ff9800;fill-opacity:1;stroke:none;stroke-width:4;stroke-linecap:round;stroke-linejoin:round;stroke-miterlimit:4;stroke-dasharray:none;stroke-opacity:1"
       d="M 1156,734.07643 L 1164.5714,725.505 L 1164.5714,708.36214 L 1164.5714,699.79071 L 1156,691.21929 L 1147.4286,708.36214 Z"
       class="calvin-ear-right-inner"
       inkscape:connector-curvature="0"
       sodipodi:nodetypes="ccccccc" />
    <path
       id="path4393"
       sodipodi:nodetypes="cccccccc"
       inkscape:connector-curvature="0"
       class="calvin-ear-left"
       d="M 1421.7143,691.21929 L 1413.1429,734.07643 L 1387.4286,759.79071 L 1378.8571,759.79071 L 1361.7143,708.36214 L 1387.4286,674.07643 L 1413.1429,674.07643 Z"
       style="opacity:1;fill:#ffc107;fill-opacity:1;stroke:none;stroke-width:4;stroke-linecap:round;stroke-linejoin:round;stroke-miterlimit:4;stroke-dasharray:none;stroke-opacity:1" />
    <path
       id="path4395"
       sodipodi:nodetypes="ccccccc"
       inkscape:connector-curvature="0"
       class="calvin-ear-left-inner"
       d="M 1396,734.07643 L 1387.4286,725.505 L 1387.4286,708.36214 L 1387.4286,699.79071 L 1396,691.21929 L 1404.5714,708.36214 Z"
       style="opacity:1;fill:#ff9800;fill-opacity:1;stroke:none;stroke-width:4;stroke-linecap:round;stroke-linejoin:round;stroke-miterlimit:4;stroke-dasharray:none;stroke-opacity:1" />
    <path
       id="path4397"
       style="fill:#3e2723;fill-rule:evenodd;stroke:none;stroke-width:1px;stroke-linecap:butt;stroke-linejoin:miter;stroke-opacity:1"
       d="M 1173.1429,716.93357 L 1173.1429,674.07643 L 1181.7143,648.36215 L 1198.8572,622.64786 L 1233.1429,631.21929 L 1248.6926,614.07643 L 1276,631.21929 L 1301.7143,614.07643 L 1318.8571,631.21929 L 1353.1428,622.64786 L 1370.2857,648.36215 L 1378.8571,674.07643 L 1379.4286,716.93357 L 1404.5714,631.21929 L 1378.8571,545.50501 L 1353.1428,579.79072 L 1336,528.36215 L 1310.2857,554.07644 L 1276,528.36215 L 1241.7143,554.07644 L 1216,528.36215 L 1198.8572,579.79072 L 1173.1429,545.50501 L 1147.4286,631.21929 Z"
       class="calvin-hair"
       inkscape:connector-curvature="0"
       sodipodi:nodetypes="ccccccccccccccccccccccccc" />
    <path
       style="opacity:1;fill:#263238;fill-opacity:1;stroke:none;stroke-width:8;stroke-linecap:round;stroke-linejoin:round;stroke-miterlimit:4;stroke-dasharray:none;stroke-opacity:1"
       d="M 1268,780 L 1268,776 L 1276,768 L 1284,768 L 1292,776 L 1292,780 L 1284,792 L 1276,792 Z"
       class="calvin-lips"
       inkscape:connector-curvature="0"
       sodipodi:nodetypes="ccccccccc"
       id="path4399" />
  </g>
</svg>
