<?xml version="1.0" encoding="UTF-8" standalone="no"?>
<svg
   xmlns:dc="http://purl.org/dc/elements/1.1/"
   xmlns:cc="http://creativecommons.org/ns#"
   xmlns:rdf="http://www.w3.org/1999/02/22-rdf-syntax-ns#"
   xmlns:svg="http://www.w3.org/2000/svg"
   xmlns="http://www.w3.org/2000/svg"
   id="svg3336"
   version="1.1"
   class="calvin-svg2"
   viewBox="0 0 512.00001 512.00001"
   height="512"
   width="512">
  <defs
     id="defs3338"
     class="calvin-defs4" />
  <metadata
     id="metadata3344"
     class="calvin-metadata7">
    <rdf:RDF>
      <cc:Work
         rdf:about="">
        <dc:format>image/svg+xml</dc:format>
        <dc:type
           rdf:resource="http://purl.org/dc/dcmitype/StillImage" />
        <dc:title></dc:title>
      </cc:Work>
    </rdf:RDF>
  </metadata>
  <g
     id="calvin-neutral"
     style="display:inline"
     class="calvin-neutral">
    <path
       id="path3348"
       style="opacity:1;fill:#f44336;fill-opacity:1;stroke:none;stroke-width:4;stroke-linecap:round;stroke-linejoin:round;stroke-miterlimit:4;stroke-dasharray:none;stroke-opacity:1"
       d="M 101.71429,496.3622 L 118.74903,417.96242 L 135.42995,350.42384 L 213.14286,333.50499 L 264.57143,324.93356 L 298.85714,333.50499 L 375.99999,350.64785 L 393.14285,419.21927 L 410.2857,496.3622 L 264.57143,496.3622 Z"
       class="calvin-arms" />
    <path
       id="path3350"
       style="opacity:1;fill:#b71c1c;fill-opacity:1;stroke:none;stroke-width:4;stroke-linecap:round;stroke-linejoin:round;stroke-miterlimit:4;stroke-dasharray:none;stroke-opacity:1"
       d="M 155.04696,496.3622 L 170.28572,402.07641 L 187.42857,367.7907 L 213.14286,333.50499 L 264.57143,319.98836 L 298.85714,333.50499 L 324.57142,367.7907 L 341.71428,402.07641 L 358.85713,496.3622 L 265.52348,496.3622 Z"
       class="calvin-chest" />
    <path
       id="path3352"
       style="opacity:1;fill:#ff9800;fill-opacity:1;stroke:none;stroke-width:2;stroke-linecap:round;stroke-linejoin:round;stroke-miterlimit:4;stroke-dasharray:none;stroke-opacity:1"
       d="M 213.14286,294.93356 L 298.85714,294.93356 L 298.85714,342.07642 L 256,410.64784 L 213.14286,342.07642 Z"
       class="calvin-neck" />
    <path
       id="path3354"
       style="opacity:1;fill:#ffc107;fill-opacity:1;stroke:none;stroke-width:2;stroke-linecap:round;stroke-linejoin:round;stroke-miterlimit:4;stroke-dasharray:none;stroke-opacity:1"
       d="M 367.42856,204.93357 L 350.28571,256.36214 L 324.57142,282.07642 L 303.14285,303.50499 L 281.71428,312.07642 L 230.28571,312.07642 L 208.85714,303.50499 L 187.42857,282.07642 L 161.71429,252.07642 L 144.57143,204.93361 L 153.14286,153.505 L 170.28572,102.07643 L 256,84.93358 L 341.71428,102.07643 L 358.85713,153.505 Z"
       class="calvin-head" />
    <path
       id="path3356"
       class="calvin-eye-right"
       d="M 230.28571,172.79071 A 17.142853,19.285721 0 0 1 213.14285,192.07643 A 17.142853,19.285721 0 0 1 196,172.79071 A 17.142853,19.285721 0 0 1 213.14285,153.50499 A 17.142853,19.285721 0 0 1 230.28571,172.79071 Z"
       style="opacity:1;fill:#3e2723;fill-opacity:1;stroke:none;stroke-width:4;stroke-linecap:round;stroke-linejoin:round;stroke-miterlimit:4;stroke-dasharray:none;stroke-opacity:1" />
    <path
       id="path3358"
       class="calvin-eye-left"
       d="M 316,172.79071 A 17.142853,19.285721 0 0 1 298.85715,192.07643 A 17.142853,19.285721 0 0 1 281.71429,172.79071 A 17.142853,19.285721 0 0 1 298.85715,153.50499 A 17.142853,19.285721 0 0 1 316,172.79071 Z"
       style="opacity:1;fill:#3e2723;fill-opacity:1;stroke:none;stroke-width:4;stroke-linecap:round;stroke-linejoin:round;stroke-miterlimit:4;stroke-dasharray:none;stroke-opacity:1" />
    <path
       id="path3360"
       style="opacity:1;fill:#ffc107;fill-opacity:1;stroke:none;stroke-width:4;stroke-linecap:round;stroke-linejoin:round;stroke-miterlimit:4;stroke-dasharray:none;stroke-opacity:1"
       d="M 110.28572,179.21929 L 118.85715,222.07643 L 144.57143,247.79071 L 153.14286,247.79071 L 170.28572,196.36214 L 144.57143,162.07643 L 118.85715,162.07643 Z"
       class="calvin-ear-right" />
    <path
       id="path3362"
       style="opacity:1;fill:#ff9800;fill-opacity:1;stroke:none;stroke-width:4;stroke-linecap:round;stroke-linejoin:round;stroke-miterlimit:4;stroke-dasharray:none;stroke-opacity:1"
       d="M 136.00001,222.07643 L 144.57143,213.505 L 144.57143,196.36214 L 144.57143,187.79071 L 136.00001,179.21929 L 127.42858,196.36214 Z"
       class="calvin-ear-right-inner" />
    <path
       id="path3364"
       class="calvin-ear-left"
       d="M 401.71427,179.21929 L 393.14285,222.07643 L 367.42856,247.79071 L 358.85713,247.79071 L 341.71428,196.36214 L 367.42856,162.07643 L 393.14285,162.07643 Z"
       style="opacity:1;fill:#ffc107;fill-opacity:1;stroke:none;stroke-width:4;stroke-linecap:round;stroke-linejoin:round;stroke-miterlimit:4;stroke-dasharray:none;stroke-opacity:1" />
    <path
       id="path3366"
       class="calvin-ear-left-inner"
       d="M 375.99999,222.07643 L 367.42856,213.505 L 367.42856,196.36214 L 367.42856,187.79071 L 375.99999,179.21929 L 384.57142,196.36214 Z"
       style="opacity:1;fill:#ff9800;fill-opacity:1;stroke:none;stroke-width:4;stroke-linecap:round;stroke-linejoin:round;stroke-miterlimit:4;stroke-dasharray:none;stroke-opacity:1" />
    <path
       id="path3368"
       style="fill:#3e2723;fill-rule:evenodd;stroke:none;stroke-width:1px;stroke-linecap:butt;stroke-linejoin:miter;stroke-opacity:1"
       d="M 153.14286,204.93357 L 153.14286,162.07643 L 161.71429,136.36215 L 178.85715,110.64786 L 213.14286,119.21929 L 228.69261,102.07643 L 256,119.21929 L 281.71428,102.07643 L 298.85714,119.21929 L 333.14285,110.64786 L 350.28571,136.36215 L 358.85713,162.07643 L 359.42856,204.93357 L 384.57142,119.21929 L 358.85713,33.50501 L 333.14285,67.79072 L 315.99999,16.36215 L 290.28571,42.07644 L 256,16.36215 L 221.71429,42.07644 L 196,16.36215 L 178.85715,67.79072 L 153.14286,33.50501 L 127.42858,119.21929 Z"
       class="calvin-hair" />
    <path
       id="path3370"
       class="calvin-lips"
       d="M 221.71429,256.36214 L 226,247.79071 L 256,252.07642 L 286,247.79071 L 290.28571,256.36214 L 267.42857,273.50502 L 244.57142,273.50502 Z"
       style="opacity:1;fill:#ff9800;fill-opacity:1;stroke:none;stroke-width:8;stroke-linecap:round;stroke-linejoin:round;stroke-miterlimit:4;stroke-dasharray:none;stroke-opacity:1" />
  </g>
  <g
     id="calvin-wave"
     style="display:none"
     class="calvin-wave">
    <path
       id="path3374"
       class="calvin-hand"
       d="M 428,312 L 400,268 L 400,256 L 404,248 L 416,248 L 424,256 L 424,248 L 424,216 L 428,208 L 440,208 L 444,216 L 444,208 L 448,200 L 460,200 L 464,208 L 464,220 L 468,212 L 480,212 L 484,220 L 484,232 L 484,240 L 488,232 L 496,232 L 500,240 L 500,268 L 488,304 L 484,320 L 484,328 L 436,328 L 436,320 Z"
       style="fill:#ffc107;fill-rule:evenodd;stroke:none;stroke-width:1px;stroke-linecap:butt;stroke-linejoin:miter;stroke-opacity:1" />
    <path
       id="path3376"
       class="calvin-arms"
       d="M 256,328 L 213.14258,333.14258 L 135.42969,350.0625 L 118.75,417.59961 L 101.71484,496 L 264.57227,496 L 360,496 L 388,496 L 392,468 L 415.36719,496 L 448,496 L 472,480 L 480,448 L 484,328 L 436,328 L 424,408 L 376,352 L 298.85742,333.14258 Z"
       style="opacity:1;fill:#f44336;fill-opacity:1;stroke:none;stroke-width:4;stroke-linecap:round;stroke-linejoin:round;stroke-miterlimit:4;stroke-dasharray:none;stroke-opacity:1" />
    <path
       id="path3378"
       class="calvin-chest"
       d="M 155.04696,496.00001 L 170.28572,401.71426 L 187.42857,367.42854 L 213.14286,333.14283 L 264.57143,319.6262 L 298.85714,333.14283 L 324.57142,367.42854 L 341.71428,401.71426 L 358.85713,496.00001 L 265.52348,496.00001 Z"
       style="opacity:1;fill:#b71c1c;fill-opacity:1;stroke:none;stroke-width:4;stroke-linecap:round;stroke-linejoin:round;stroke-miterlimit:4;stroke-dasharray:none;stroke-opacity:1" />
    <path
       id="path3380"
       class="calvin-neck"
       d="M 213.14286,294.57141 L 298.85714,294.57141 L 298.85714,341.71426 L 256,410.28568 L 213.14286,341.71426 Z"
       style="opacity:1;fill:#ff9800;fill-opacity:1;stroke:none;stroke-width:2;stroke-linecap:round;stroke-linejoin:round;stroke-miterlimit:4;stroke-dasharray:none;stroke-opacity:1" />
    <path
       id="path3382"
       class="calvin-head"
       d="M 367.42856,204.57147 L 350.2857,256.00004 L 324.57142,281.71432 L 303.14285,315.71432 L 277.42856,324.28575 L 230.28571,324.28575 L 208.85714,315.71432 L 187.42857,281.71432 L 161.71429,251.71432 L 144.57143,204.57151 L 153.14286,153.1429 L 170.28571,101.71433 L 255.99999,84.57148 L 341.71427,101.71433 L 358.85713,153.1429 Z"
       style="opacity:1;fill:#ffc107;fill-opacity:1;stroke:none;stroke-width:2;stroke-linecap:round;stroke-linejoin:round;stroke-miterlimit:4;stroke-dasharray:none;stroke-opacity:1" />
    <path
       id="path3384"
       class="calvin-eye-right"
       d="M 230.28571,172.42859 A 17.142853,19.285721 0 0 1 213.14285,191.71431 A 17.142853,19.285721 0 0 1 196,172.42859 A 17.142853,19.285721 0 0 1 213.14285,153.14287 A 17.142853,19.285721 0 0 1 230.28571,172.42859 Z"
       style="opacity:1;fill:#3e2723;fill-opacity:1;stroke:none;stroke-width:4;stroke-linecap:round;stroke-linejoin:round;stroke-miterlimit:4;stroke-dasharray:none;stroke-opacity:1" />
    <path
       id="path3386"
       class="calvin-mouth"
       d="M 196,234.28516 L 187.42773,242.85742 L 226,290 L 230.28516,285.71484 L 243.14258,281.42773 L 268.85742,281.42773 L 281.71484,285.71484 L 286,290 L 324.57227,242.85742 L 316,234.28516 L 290.28516,260 L 273.14258,268.57227 L 238.85742,268.57227 L 217.42773,260 L 196,234.28516 Z"
       style="fill:#3e2723;fill-rule:evenodd;stroke:none;stroke-width:8;stroke-linecap:round;stroke-linejoin:round;stroke-miterlimit:4;stroke-dasharray:none;stroke-opacity:1" />
    <path
       id="path3388"
       class="calvin-teeth"
       d="M 196,234.28575 L 217.42857,260.00004 L 238.85714,268.57147 L 273.14285,268.57147 L 290.28571,260.00004 L 315.99999,234.28575 L 281.71428,255.71432 L 264.57142,260.00004 L 247.42857,260.00004 L 230.28571,255.71432 Z"
       style="fill:#f5f5f5;fill-rule:evenodd;stroke:none;stroke-width:1px;stroke-linecap:butt;stroke-linejoin:miter;stroke-opacity:1" />
    <path
       id="path3390"
       class="calvin-tongue"
       d="M 226,290.00004 L 230.28571,285.71432 L 243.14285,281.42861 L 268.85714,281.42861 L 281.71428,285.71432 L 285.99999,290.00004 L 268.85714,298.57146 L 243.14285,298.57146 Z"
       style="fill:#b71c1c;fill-rule:evenodd;stroke:none;stroke-width:1px;stroke-linecap:butt;stroke-linejoin:miter;stroke-opacity:1" />
    <path
       id="path3392"
       class="calvin-eye-left"
       d="M 316,172.42859 A 17.142853,19.285721 0 0 1 298.85715,191.71431 A 17.142853,19.285721 0 0 1 281.71429,172.42859 A 17.142853,19.285721 0 0 1 298.85715,153.14287 A 17.142853,19.285721 0 0 1 316,172.42859 Z"
       style="opacity:1;fill:#3e2723;fill-opacity:1;stroke:none;stroke-width:4;stroke-linecap:round;stroke-linejoin:round;stroke-miterlimit:4;stroke-dasharray:none;stroke-opacity:1" />
    <path
       id="path3394"
       class="calvin-ear-right"
       d="M 110.28572,178.85713 L 118.85715,221.71427 L 144.57143,247.42856 L 153.14286,247.42856 L 170.28572,195.99998 L 144.57143,161.71427 L 118.85715,161.71427 Z"
       style="opacity:1;fill:#ffc107;fill-opacity:1;stroke:none;stroke-width:4;stroke-linecap:round;stroke-linejoin:round;stroke-miterlimit:4;stroke-dasharray:none;stroke-opacity:1" />
    <path
       id="path3396"
       class="calvin-ear-right-inner"
       d="M 136.00001,221.71427 L 144.57143,213.14284 L 144.57143,195.99998 L 144.57143,187.42855 L 136.00001,178.85713 L 127.42858,195.99998 Z"
       style="opacity:1;fill:#ff9800;fill-opacity:1;stroke:none;stroke-width:4;stroke-linecap:round;stroke-linejoin:round;stroke-miterlimit:4;stroke-dasharray:none;stroke-opacity:1" />
    <path
       id="path3398"
       style="opacity:1;fill:#ffc107;fill-opacity:1;stroke:none;stroke-width:4;stroke-linecap:round;stroke-linejoin:round;stroke-miterlimit:4;stroke-dasharray:none;stroke-opacity:1"
       d="M 401.71427,178.85713 L 393.14285,221.71427 L 367.42856,247.42856 L 358.85713,247.42856 L 341.71428,195.99998 L 367.42856,161.71427 L 393.14285,161.71427 Z"
       class="calvin-ear-left" />
    <path
       id="path34"
       style="opacity:1;fill:#ff9800;fill-opacity:1;stroke:none;stroke-width:4;stroke-linecap:round;stroke-linejoin:round;stroke-miterlimit:4;stroke-dasharray:none;stroke-opacity:1"
       d="M 375.99999,221.71427 L 367.42856,213.14284 L 367.42856,195.99998 L 367.42856,187.42855 L 375.99999,178.85713 L 384.57141,195.99998 Z"
       class="calvin-ear-left-inner" />
    <path
       id="path3400"
       class="calvin-hair"
       d="M 153.14286,204.57141 L 153.14286,161.71427 L 161.71429,135.99999 L 178.85715,110.2857 L 213.14286,118.85713 L 228.69261,101.71428 L 256,118.85713 L 281.71428,101.71428 L 298.85714,118.85713 L 333.14285,110.2857 L 350.28571,135.99999 L 358.85713,161.71427 L 359.42856,204.57141 L 384.57142,118.85713 L 358.85713,33.142853 L 333.14285,67.428565 L 315.99999,15.999997 L 290.28571,41.714281 L 256,15.999997 L 221.71429,41.714281 L 196,15.999997 L 178.85715,67.428565 L 153.14286,33.142853 L 127.42858,118.85713 Z"
       style="fill:#3e2723;fill-rule:evenodd;stroke:none;stroke-width:1px;stroke-linecap:butt;stroke-linejoin:miter;stroke-opacity:1" />
  </g>
  <g
     id="calvin-cheer"
     style="display:none"
     class="calvin-cheer">
    <path
       id="path3404"
       style="fill:#ffc107;fill-rule:evenodd;stroke:none;stroke-width:1px;stroke-linecap:butt;stroke-linejoin:miter;stroke-opacity:1"
       d="M 428,120 L 400,76 L 400,64 L 404,56 L 416,56 L 424,64 L 424,56 L 424,24 L 428,16 L 440,16 L 444,24 L 444,16 L 448,8 L 460,8 L 464,16 L 464,28 L 468,20 L 480,20 L 484,28 L 484,40 L 484,48 L 488,40 L 496,40 L 500,48 L 500,76 L 488,112 L 484,128 L 484,136 L 436,136 L 436,128 Z"
       class="calvin-hand-left" />
    <path
       id="path3406"
       class="calvin-arms"
       d="M 28,136 L 32,288 L 112,408 L 124,496 L 144,496 L 152,496 L 264.57227,496 L 368,496 L 388,496 L 400,408 L 480,288 L 484,136 L 436,136 L 424,264 L 376,320 L 298.85742,333.14258 L 264.57227,324.57227 L 213.14258,333.14258 L 136,320 L 88,264 L 76,136 L 28,136 Z"
       style="opacity:1;fill:#f44336;fill-opacity:1;stroke:none;stroke-width:4;stroke-linecap:round;stroke-linejoin:round;stroke-miterlimit:4;stroke-dasharray:none;stroke-opacity:1" />
    <path
       id="path3408"
       style="opacity:1;fill:#b71c1c;fill-opacity:1;stroke:none;stroke-width:4;stroke-linecap:round;stroke-linejoin:round;stroke-miterlimit:4;stroke-dasharray:none;stroke-opacity:1"
       d="M 155.04696,496.00001 L 170.28572,401.71426 L 187.42857,367.42854 L 213.14286,333.14283 L 264.57143,319.6262 L 298.85714,333.14283 L 324.57142,367.42854 L 341.71428,401.71426 L 358.85713,496.00001 L 265.52348,496.00001 Z"
       class="calvin-chest" />
    <path
       id="path3410"
       style="opacity:1;fill:#ff9800;fill-opacity:1;stroke:none;stroke-width:2;stroke-linecap:round;stroke-linejoin:round;stroke-miterlimit:4;stroke-dasharray:none;stroke-opacity:1"
       d="M 213.14286,294.57141 L 298.85714,294.57141 L 298.85714,341.71426 L 256,410.28568 L 213.14286,341.71426 Z"
       class="calvin-neck" />
    <path
       id="path3412"
       style="opacity:1;fill:#ffc107;fill-opacity:1;stroke:none;stroke-width:2;stroke-linecap:round;stroke-linejoin:round;stroke-miterlimit:4;stroke-dasharray:none;stroke-opacity:1"
       d="M 367.42856,204.57147 L 350.2857,256.00004 L 324.57142,281.71432 L 303.14285,315.71432 L 277.42856,324.28575 L 230.28571,324.28575 L 208.85714,315.71432 L 187.42857,281.71432 L 161.71429,251.71432 L 144.57143,204.57151 L 153.14286,153.1429 L 170.28571,101.71433 L 255.99999,84.57148 L 341.71427,101.71433 L 358.85713,153.1429 Z"
       class="calvin-head" />
    <path
       id="path3414"
       class="calvin-eye-right"
       d="M 230.28571,172.42859 A 17.142853,19.285721 0 0 1 213.14285,191.71431 A 17.142853,19.285721 0 0 1 196,172.42859 A 17.142853,19.285721 0 0 1 213.14285,153.14287 A 17.142853,19.285721 0 0 1 230.28571,172.42859 Z"
       style="opacity:1;fill:#3e2723;fill-opacity:1;stroke:none;stroke-width:4;stroke-linecap:round;stroke-linejoin:round;stroke-miterlimit:4;stroke-dasharray:none;stroke-opacity:1" />
    <path
       id="path3416"
       style="fill:#3e2723;fill-rule:evenodd;stroke:none;stroke-width:8;stroke-linecap:round;stroke-linejoin:round;stroke-miterlimit:4;stroke-dasharray:none;stroke-opacity:1"
       d="M 196,234.28516 L 187.42773,242.85742 L 226,290 L 230.28516,285.71484 L 243.14258,281.42773 L 268.85742,281.42773 L 281.71484,285.71484 L 286,290 L 324.57227,242.85742 L 316,234.28516 L 290.28516,260 L 273.14258,268.57227 L 238.85742,268.57227 L 217.42773,260 L 196,234.28516 Z"
       class="calvin-mouth" />
    <path
       id="path3418"
       style="fill:#f5f5f5;fill-rule:evenodd;stroke:none;stroke-width:1px;stroke-linecap:butt;stroke-linejoin:miter;stroke-opacity:1"
       d="M 196,234.28575 L 217.42857,260.00004 L 238.85714,268.57147 L 273.14285,268.57147 L 290.28571,260.00004 L 315.99999,234.28575 L 281.71428,255.71432 L 264.57142,260.00004 L 247.42857,260.00004 L 230.28571,255.71432 Z"
       class="calvin-teeth" />
    <path
       id="path3420"
       style="fill:#b71c1c;fill-rule:evenodd;stroke:none;stroke-width:1px;stroke-linecap:butt;stroke-linejoin:miter;stroke-opacity:1"
       d="M 226,290.00004 L 230.28571,285.71432 L 243.14285,281.42861 L 268.85714,281.42861 L 281.71428,285.71432 L 285.99999,290.00004 L 268.85714,298.57146 L 243.14285,298.57146 Z"
       class="calvin-tongue" />
    <path
       id="path3422"
       class="calvin-eye-left"
       d="M 316,172.42859 A 17.142853,19.285721 0 0 1 298.85715,191.71431 A 17.142853,19.285721 0 0 1 281.71429,172.42859 A 17.142853,19.285721 0 0 1 298.85715,153.14287 A 17.142853,19.285721 0 0 1 316,172.42859 Z"
       style="opacity:1;fill:#3e2723;fill-opacity:1;stroke:none;stroke-width:4;stroke-linecap:round;stroke-linejoin:round;stroke-miterlimit:4;stroke-dasharray:none;stroke-opacity:1" />
    <path
       id="path3424"
       style="opacity:1;fill:#ffc107;fill-opacity:1;stroke:none;stroke-width:4;stroke-linecap:round;stroke-linejoin:round;stroke-miterlimit:4;stroke-dasharray:none;stroke-opacity:1"
       d="M 110.28572,178.85713 L 118.85715,221.71427 L 144.57143,247.42856 L 153.14286,247.42856 L 170.28572,195.99998 L 144.57143,161.71427 L 118.85715,161.71427 Z"
       class="calvin-ear-right" />
    <path
       id="path3426"
       style="opacity:1;fill:#ff9800;fill-opacity:1;stroke:none;stroke-width:4;stroke-linecap:round;stroke-linejoin:round;stroke-miterlimit:4;stroke-dasharray:none;stroke-opacity:1"
       d="M 136.00001,221.71427 L 144.57143,213.14284 L 144.57143,195.99998 L 144.57143,187.42855 L 136.00001,178.85713 L 127.42858,195.99998 Z"
       class="calvin-ear-right-inner" />
    <path
       id="path3428"
       class="calvin-ear-right"
       d="M 401.71427,178.85713 L 393.14285,221.71427 L 367.42856,247.42856 L 358.85713,247.42856 L 341.71428,195.99998 L 367.42856,161.71427 L 393.14285,161.71427 Z"
       style="opacity:1;fill:#ffc107;fill-opacity:1;stroke:none;stroke-width:4;stroke-linecap:round;stroke-linejoin:round;stroke-miterlimit:4;stroke-dasharray:none;stroke-opacity:1" />
    <path
       id="path3430"
       class="calvin-ear-right-inner"
       d="M 375.99999,221.71427 L 367.42856,213.14284 L 367.42856,195.99998 L 367.42856,187.42855 L 375.99999,178.85713 L 384.57141,195.99998 Z"
       style="opacity:1;fill:#ff9800;fill-opacity:1;stroke:none;stroke-width:4;stroke-linecap:round;stroke-linejoin:round;stroke-miterlimit:4;stroke-dasharray:none;stroke-opacity:1" />
    <path
       id="path3432"
       style="fill:#3e2723;fill-rule:evenodd;stroke:none;stroke-width:1px;stroke-linecap:butt;stroke-linejoin:miter;stroke-opacity:1"
       d="M 153.14286,204.57141 L 153.14286,161.71427 L 161.71429,135.99999 L 178.85715,110.2857 L 213.14286,118.85713 L 228.69261,101.71428 L 256,118.85713 L 281.71428,101.71428 L 298.85714,118.85713 L 333.14285,110.2857 L 350.28571,135.99999 L 358.85713,161.71427 L 359.42856,204.57141 L 384.57142,118.85713 L 358.85713,33.142853 L 333.14285,67.428565 L 315.99999,15.999997 L 290.28571,41.714281 L 256,15.999997 L 221.71429,41.714281 L 196,15.999997 L 178.85715,67.428565 L 153.14286,33.142853 L 127.42858,118.85713 Z"
       class="calvin-hair" />
    <path
       id="path3434"
       class="calvin-hand-right"
       d="M 84,120 L 112,76 L 112,64 L 108,56 L 96,56 L 88,64 L 88,56 L 88,24 L 84,16 L 72,16 L 68,24 L 68,16 L 64,8 L 52,8 L 48,16 L 48,28 L 44,20 L 32,20 L 28,28 L 28,40 L 28,48 L 24,40 L 16,40 L 12,48 L 12,76 L 24,112 L 28,128 L 28,136 L 76,136 L 76,128 Z"
       style="fill:#ffc107;fill-rule:evenodd;stroke:none;stroke-width:1px;stroke-linecap:butt;stroke-linejoin:miter;stroke-opacity:1" />
  </g>
  <g
     id="calvin-profile"
     style="display:none"
     class="calvin-profile">
    <path
       id="path3438"
       style="opacity:1;fill:#ffc107;fill-opacity:1;stroke:none;stroke-width:4;stroke-linecap:round;stroke-linejoin:round;stroke-miterlimit:4;stroke-dasharray:none;stroke-opacity:1"
       d="M 273.3191,59.32863 L 169.33042,76.66008 L 147.86564,143.375 L 100.02931,204.82242 L 128.22042,226.09956 L 136.17317,231.95146 L 134.80857,238.71945 L 131.58642,255.52197 L 192.00651,256.87484 L 136.38754,269.95904 L 145.40023,288.74817 L 148.12731,319.82926 L 225.65762,323.63321 L 273.3191,388.62614 L 316.24786,368.92939 L 388.22034,413.0683 L 351.31061,293.30318 L 394.63923,232.64311 L 411.97068,163.31732 L 359.97634,76.66008 Z"
       class="calvin-head" />
    <path
       id="path3440"
       class="calvin-chest"
       d="M 198.34045,495.99998 L 238.6562,384.29328 L 260.32051,371.29469 L 312.31485,340.96466 L 377,367 L 411.29815,495.99998 L 311.31859,495.99998 Z"
       style="opacity:1;fill:#b71c1c;fill-opacity:1;stroke:none;stroke-width:4;stroke-linecap:round;stroke-linejoin:round;stroke-miterlimit:4;stroke-dasharray:none;stroke-opacity:1" />
    <path
       id="path3442"
       class="calvin-arms"
       d="M 242.42069,495.99998 L 281.4864,381.13429 L 324.31717,366.0141 L 359.97634,423.28904 L 367.2179,495.99998 L 311.31859,495.99998 Z"
       style="opacity:1;fill:#f44336;fill-opacity:1;stroke:none;stroke-width:4;stroke-linecap:round;stroke-linejoin:round;stroke-miterlimit:4;stroke-dasharray:none;stroke-opacity:1" />
    <path
       id="path3444"
       class="calvin-neck"
       d="M 260.32051,371.29469 L 225.65762,323.63321 L 307.98199,310.63462 L 342.64489,262.97314 L 377,367 L 312.31485,340.96466 Z"
       style="fill:#ff9800;fill-rule:evenodd;stroke:none;stroke-width:1px;stroke-linecap:butt;stroke-linejoin:miter;stroke-opacity:1" />
    <path
       id="path3446"
       class="calvin-hair"
       d="M 351.31061,293.30318 L 394.63923,232.64311 L 411.97068,163.31732 L 377.30778,76.66008 L 359.97634,59.32863 L 333.97916,24.66573 L 290.65054,41.99718 L 273.3191,16.00001 L 221.32475,41.99718 L 186.66186,24.66573 L 134.66751,41.99718 L 169.33042,76.66008 L 186.66186,111.32297 L 203.99331,93.99152 L 212.65904,128.65442 L 244.00651,116.87484 L 260.00651,204.87484 L 268.00651,180.87484 L 333.97916,197.98021 L 333.97916,232.64311 Z"
       style="fill:#3e2723;fill-rule:evenodd;stroke:none;stroke-width:1px;stroke-linecap:butt;stroke-linejoin:miter;stroke-opacity:1" />
    <path
       id="path3448"
       class="calvin-eye-left"
       d="M 190.99473,156.81804 A 15.165015,19.497883 0 0 1 175.82971,176.31592 A 15.165015,19.497883 0 0 1 160.6647,156.81804 A 15.165015,19.497883 0 0 1 175.82971,137.32016 A 15.165015,19.497883 0 0 1 190.99473,156.81804 Z"
       style="opacity:1;fill:#3e2723;fill-opacity:1;stroke:none;stroke-width:4;stroke-linecap:round;stroke-linejoin:round;stroke-miterlimit:4;stroke-dasharray:none;stroke-opacity:1" />
    <path
       id="path3450"
       style="opacity:1;fill:#ffc107;fill-opacity:1;stroke:none;stroke-width:4;stroke-linecap:round;stroke-linejoin:round;stroke-miterlimit:4;stroke-dasharray:none;stroke-opacity:1"
       d="M 324.14564,170.80311 L 315.49897,214.99984 L 292.00651,240.52176 L 278.10965,239.47422 L 268.00651,180.87484 L 292.00651,148.87484 L 317.63544,151.51849 Z"
       class="calvin-ear-left" />
    <path
       id="path3452"
       style="opacity:1;fill:#ff9800;fill-opacity:1;stroke:none;stroke-width:4;stroke-linecap:round;stroke-linejoin:round;stroke-miterlimit:4;stroke-dasharray:none;stroke-opacity:1"
       d="M 298.02506,173.65157 L 286.49692,180.93207 L 292.8229,204.37427 L 288.18656,220.08989 L 299.74207,227.3704 L 315.90494,204.37427 Z"
       class="calvin-ear-left-inner" />
  </g>
  <g
     id="calvin-vocal-tract"
     style="display:none"
     class="calvin-vocal-tract">
    <path
       id="path3456"
       class="calvin-head"
       d="M 273.31836,16 L 221.32422,41.998047 L 186.66211,24.666016 L 134.66797,41.998047 L 169.33008,76.660156 L 147.86523,143.375 L 100.0293,204.82227 L 128.2207,226.09961 L 136.17383,231.95117 L 134.80859,238.71875 L 131.58594,255.52148 L 192.00586,256.875 L 136.38672,269.95898 L 145.40039,288.74805 L 148.12695,319.83008 L 225.6582,323.63281 L 260.32031,371.29492 L 238.65625,384.29297 L 198.33984,496 L 311.31836,496 L 411.29883,496 L 377,367 L 352.29492,291.92383 L 394.63867,232.64258 L 411.9707,163.31641 L 377.30859,76.660156 L 359.97656,59.328125 L 333.97852,24.666016 L 290.65039,41.998047 Z"
       style="opacity:1;fill:#ffc107;fill-opacity:1;stroke:none;stroke-width:4;stroke-linecap:round;stroke-linejoin:round;stroke-miterlimit:4;stroke-dasharray:none;stroke-opacity:1" />
    <path
       id="path3458"
       style="opacity:1;fill:#9e9e9e;fill-opacity:1;stroke:none;stroke-width:1;stroke-linecap:round;stroke-linejoin:round;stroke-miterlimit:4;stroke-dasharray:none;stroke-opacity:1"
       d="M 170.67339,277.91857 C 167.35862,278.06449 164.61005,279.08637 162.39936,280.76795 C 162.78143,282.36135 163.03063,284.20788 163.41142,287.59839 C 164.24243,294.99787 160.40692,306.20546 165.75817,310.28368 C 168.52239,312.39031 174.44139,311.87757 181.38214,310.90166 C 182.03169,309.57637 182.58841,308.00966 182.96266,306.15149 C 184.78927,297.08197 174.12412,283.25227 174.36542,278.28306 C 173.25957,277.98868 172.03379,277.85868 170.67339,277.91857 Z"
       class="calvin-vocal-tract-gum-lower" />
    <path
       id="path66"
       style="opacity:1;fill:#263238;fill-opacity:1;stroke:none;stroke-width:1;stroke-linecap:round;stroke-linejoin:round;stroke-miterlimit:4;stroke-dasharray:none;stroke-opacity:1"
       d="M 175.86593,262.72218 C 175.58782,257.4103 185.24972,249.43123 198.26209,247.15778 C 211.27446,244.88434 220.47441,247.45915 234.56693,252.53031 C 248.65947,257.60146 259.5155,263.434 266.02645,274.31454 C 272.53739,285.19509 262.17762,296.05774 263.40556,303.84785 C 264.63348,311.63797 265.76709,313.06529 265.76709,313.06529 L 174.55292,317.61065 C 174.55292,317.61065 181.07,315.55103 182.96316,306.15118 C 184.85631,296.75133 173.32721,282.23503 174.43315,277.77272 C 175.53912,273.3104 188.39228,281.79308 190.60006,281.02359 C 192.80784,280.2541 192.98601,276.80324 191.51936,274.5627 C 190.05272,272.32216 188.07453,272.26528 184.84566,271.01916 C 181.61678,269.77304 176.14403,268.03406 175.86593,262.72218 Z"
       class="calvin-vocal-tract-tongue" />
    <path
       id="path3460"
       style="display:inline;fill:#607d8b;fill-rule:evenodd;stroke:none;stroke-width:1px;stroke-linecap:round;stroke-linejoin:round;stroke-opacity:1"
       d="M 158.299,202.66137 C 147.48933,203.17539 145.11922,204.34149 139.63047,205.50114 C 133.32277,206.8338 131.42806,212.25587 135.75728,214.63531 C 140.08651,217.01475 144.33913,216.62479 145.86961,220.12264 C 147.4001,223.62048 147.01428,223.37974 146.68568,227.46284 C 146.35709,231.54594 145.04866,237.87283 143.8992,240.4743 C 142.74974,243.07577 140.55871,244.64342 140.32163,248.27126 C 140.08455,251.89911 143.31355,255.72233 147.95349,256.27801 C 152.59344,256.83368 156.06581,252.84364 156.34834,250.01047 C 156.60754,247.41143 156.40645,235.8738 157.74836,231.57471 C 157.35972,224.21891 159.44482,219.20348 159.46376,211.94228 C 159.48019,205.64157 157.19364,204.43963 158.299,202.66137 Z"
       class="calvin-vocal-tract-lip-upper" />
    <path
       id="path3462"
       style="opacity:1;fill:#607d8b;fill-opacity:1;stroke:none;stroke-width:1;stroke-linecap:round;stroke-linejoin:round;stroke-miterlimit:4;stroke-dasharray:none;stroke-opacity:1"
       d="M 149.96665,264.4855 C 155.14539,264.5061 157.56745,267.79525 159.95614,273.74166 C 162.34483,279.68807 162.51517,279.8059 163.32447,287.20756 C 164.13376,294.60921 160.26607,305.8073 165.60534,309.8997 C 170.94459,313.9921 188.04337,308.32693 201.69705,308.41105 C 215.35073,308.49518 229.76405,310.06808 237.39382,310.71613 C 245.0236,311.36418 262.56849,306.58931 263.77581,304.76919 C 264.98312,302.94907 270.12167,293.97992 272.19167,291.10247 C 274.26168,288.22502 277.75046,283.2122 280.44257,284.67049 C 283.13468,286.12878 283.77781,289.29609 281.26562,293.92253 C 278.75343,298.54898 269.09999,313.98307 269.05923,323.68847 C 269.01845,333.39387 288,364 288,380 C 288,396 264,388 252,416 C 241.70222,440.02816 239.43702,490.64478 236,496 C 224,496 216,496 208,496 C 216,464 236,400 244,392 C 252,384 264.06705,377.06874 264,372 C 263.93295,366.93126 235.92496,323.3645 230.58884,322.0709 C 225.2527,320.7773 210.80213,317.29588 203.39353,318.28842 C 195.98492,319.28094 164.63455,325.08238 156.59169,317.80997 C 148.54882,310.53755 153.24165,300.59177 153.04448,294.54622 C 152.84729,288.50068 150.17912,283.39159 149.2025,281.30635 C 148.22587,279.2211 143.20855,275.45851 142.854,272.79657 C 142.49944,270.13463 144.78791,264.46491 149.96665,264.4855 Z"
       class="calvin-vocal-tract-lip-lower" />
    <path
       id="path3464"
       style="opacity:1;fill:#607d8b;fill-opacity:1;stroke:none;stroke-width:1;stroke-linecap:round;stroke-linejoin:round;stroke-miterlimit:4;stroke-dasharray:none;stroke-opacity:1"
       d="M 291.83199,321.96358 C 292.06007,318.2976 292.51192,316.85037 294.68567,316.11431 C 296.85941,315.37826 299.28208,315.37293 301.15987,319.31768 C 303.03767,323.26243 320,360 324,376 C 328,392 332,464 328,496 L 308,496 C 308,476 316,400 312,380 C 308,360 291.60389,325.62956 291.83199,321.96358 Z"
       class="calvin-vocal-tract-laryngeal-wall" />
    <path
       id="path3466"
       style="display:inline;fill:#607d8b;fill-opacity:1;fill-rule:evenodd;stroke:none;stroke-width:1px;stroke-linecap:round;stroke-linejoin:round;stroke-opacity:1"
       d="M 125.85007,203.94759 C 125.40609,197.93502 123.69737,194.78861 127.55362,189.25371 C 134.81651,178.82923 147.83131,167.68044 167.33068,162.31984 C 186.83005,156.95925 214.3439,161.34768 225.28537,164.0327 C 236.22683,166.71772 237.93246,184.65906 248.21422,189.90429 C 258.49599,195.14952 266.34364,199.30356 278.88641,214.73979 C 291.42918,230.17601 290.6417,257.95941 298.04631,283.60093 C 303.54352,302.55768 324.71449,336.47647 338.06697,371.82475 C 351.41945,407.17303 352,496 352,496 L 400,496 C 400,496 378.19817,394.73524 369.74258,371.82475 C 361.28699,348.91426 330.82171,274.92189 351.38816,249.84203 C 371.95461,224.76216 385.30724,163.0968 376.79297,138.80732 C 368.27869,114.51783 355.1758,93.4091 325.70732,78.08361 C 296.23885,62.758127 211.90041,61.735233 190.45696,79.654671 C 169.01351,97.57411 162.909,131.93766 148.0628,150.9038 C 148.0628,150.9038 111.78267,193.03372 112.59727,202.57766 C 113.41188,212.1216 126.29403,209.96015 125.85007,203.94759 Z"
       class="calvin-vocal-tract-head" />
    <path
       id="path3468"
       class="calvin-vocal-tract-teeth-lower"
       d="M 174.65259,294.76849 C 172.94533,296.05865 164.13503,281.96334 163.14825,279.03947 C 162.16146,276.11561 162.71252,262.94181 165.15337,262.79701 C 167.59423,262.6522 171.8494,272.30572 172.83516,275.31841 C 173.82093,278.33111 176.35986,293.47834 174.65259,294.76849 Z"
       style="fill:#cfd8dc;fill-rule:evenodd;stroke:none;stroke-width:1px;stroke-linecap:butt;stroke-linejoin:miter;stroke-opacity:1" />
    <path
       id="path3470"
       style="display:inline;fill:#263238;fill-rule:evenodd;stroke:none;stroke-width:1px;stroke-linecap:round;stroke-linejoin:round;stroke-opacity:1"
       d="M 242.41173,205.84216 C 248.49744,206.63135 253.85617,207.69481 254.21762,209.41047 C 254.81957,212.26768 239.84714,211.54415 222.75436,210.50276 C 235.82921,212.67138 248.94326,214.79448 256.00172,219.85499 C 263.06019,224.9155 262.38985,226.98984 264.74735,233.00906 C 267.10487,239.02829 267.76107,245.14002 269.74784,244.78666 C 271.73461,244.4333 273.31096,237.63099 273.59812,231.39697 C 273.88529,225.16294 272.11553,213.58943 268.10426,211.50102 C 264.09299,209.41262 259.23732,207.40142 245.77592,206.17181 C 244.59471,206.06392 243.5093,205.95315 242.41173,205.84216 Z"
       class="calvin-vocal-tract-velum" />
    <path
       id="path3472"
       class="calvin-vocal-tract-alveolar-ridge"
       d="M 157.76228,231.90895 C 158.23488,239.45105 157.09562,237.97104 157.83437,240.28738 C 158.5731,242.60372 167.93979,245.73858 170.02822,240.83734 C 172.11666,235.9361 178.02536,224.28414 181.16979,217.91469 C 184.31422,211.54524 190.21642,212.08006 198.43908,210.99089 C 206.63556,209.90519 207.64992,208.896 222.75392,210.50315 C 237.85792,212.11029 254.81969,212.268 254.21775,209.41079 C 253.6158,206.55358 239.17093,205.49769 230.55086,204.52257 C 224.31014,203.80832 217.96155,203.15277 208.77386,202.73719 C 192.60996,202.00605 162.01577,199.17523 159.17454,201.67803 C 156.33329,204.18082 159.48294,204.57038 159.46372,211.94254 C 159.4445,219.31471 157.28968,224.36686 157.76228,231.90895 Z"
       style="display:inline;fill:#9e9e9e;fill-rule:evenodd;stroke:none;stroke-width:1px;stroke-linecap:round;stroke-linejoin:round;stroke-opacity:1" />
    <path
       id="path3474"
       style="fill:#cfd8dc;fill-rule:evenodd;stroke:none;stroke-width:1px;stroke-linecap:butt;stroke-linejoin:miter;stroke-opacity:1"
       d="M 169.54158,221.44989 C 167.77341,220.23618 159.65798,234.70384 158.81443,237.66797 C 157.97089,240.6321 159.16197,253.76758 161.60727,253.80489 C 164.05255,253.8422 167.83373,244.0119 168.67194,240.95908 C 169.51015,237.90625 171.30976,222.66359 169.54158,221.44989 Z"
       class="calvin-vocal-tract-teeth-upper" />
    <path
       id="path3476"
       style="opacity:1;fill:#263238;fill-opacity:1;stroke:none;stroke-width:4;stroke-linecap:round;stroke-linejoin:round;stroke-miterlimit:4;stroke-dasharray:none;stroke-opacity:1"
       d="M 297.63081,337.40008 A 12.380567,3.2157488 0 0 1 285.25024,340.61584 A 12.380567,3.2157488 0 0 1 272.86967,337.40008 A 12.380567,3.2157488 0 0 1 285.25024,334.18434 A 12.380567,3.2157488 0 0 1 297.63081,337.40008 Z"
       class="calvin-vocal-tract-pharynx" />
  </g>
  <g
     class="clavin-head-profile"
     style="display:none"
     id="calvin-head-profile">
    <path
       class="calvin-head"
       d="M 279.3516,74.420613 L 139.14214,97.788861 L 110.20086,187.74156 L 45.70244,270.59202 L 83.71293,299.2803 L 94.43574,307.1705 L 92.59583,316.29588 L 88.25135,338.95097 L 169.71665,340.77506 L 94.72477,358.41668 L 106.87672,383.75034 L 110.55368,425.65743 L 215.08893,430.78635 L 261.39326,496 L 336.89888,496 L 423.19102,496 L 384.5087,389.89193 L 442.92931,308.10306 L 466.29756,214.63009 L 396.19283,97.788861 Z"
       style="display:inline;opacity:1;fill:#ffc107;fill-opacity:1;stroke:none;stroke-width:4;stroke-linecap:round;stroke-linejoin:round;stroke-miterlimit:4;stroke-dasharray:none;stroke-opacity:1"
       id="path4227" />
    <path
       style="display:inline;fill:#ff9800;fill-rule:evenodd;stroke:none;stroke-width:1px;stroke-linecap:butt;stroke-linejoin:miter;stroke-opacity:1"
       d="M 261.39326,496 L 215.08893,430.78635 L 326.08808,413.26016 L 372.82458,348.99749 L 423.19102,496 L 331.50563,496 Z"
       class="calvin-neck"
       id="path4233" />
    <path
       style="display:inline;fill:#3e2723;fill-rule:evenodd;stroke:none;stroke-width:1px;stroke-linecap:butt;stroke-linejoin:miter;stroke-opacity:1"
       d="M 384.5087,389.89193 L 442.92931,308.10306 L 466.29756,214.63009 L 419.56106,97.788861 L 396.19283,74.420613 L 361.14045,27.684117 L 302.71984,51.052365 L 279.3516,16 L 209.24686,51.052365 L 162.51038,27.684117 L 92.40563,51.052365 L 139.14214,97.788861 L 162.51038,144.52534 L 185.87862,121.1571 L 197.56275,167.89359 L 239.82901,152.01101 L 261.40204,270.6627 L 272.18856,238.30315 L 361.14045,261.36657 L 361.14045,308.10306 Z"
       class="calvin-hair"
       id="path4235" />
    <path
       style="display:inline;opacity:1;fill:#3e2723;fill-opacity:1;stroke:none;stroke-width:4;stroke-linecap:round;stroke-linejoin:round;stroke-miterlimit:4;stroke-dasharray:none;stroke-opacity:1"
       d="M 168.35245,205.86701 A 20.447212,26.289281 0 0 1 147.90523,232.15629 A 20.447212,26.289281 0 0 1 127.45802,205.86701 A 20.447212,26.289281 0 0 1 147.90523,179.57773 A 20.447212,26.289281 0 0 1 168.35245,205.86701 Z"
       class="calvin-eye-left"
       id="path4237" />
    <path
       class="calvin-ear-left"
       d="M 347.88177,224.72329 L 336.22334,284.31439 L 304.54811,318.72596 L 285.81077,317.31355 L 272.18856,238.30315 L 304.54811,195.15708 L 339.10397,198.72155 Z"
       style="display:inline;opacity:1;fill:#ffc107;fill-opacity:1;stroke:none;stroke-width:4;stroke-linecap:round;stroke-linejoin:round;stroke-miterlimit:4;stroke-dasharray:none;stroke-opacity:1"
       id="path4239" />
    <path
       class="calvin-ear-left-inner"
       d="M 312.66301,228.56391 L 297.11945,238.38031 L 305.64886,269.98777 L 299.39762,291.17737 L 314.97808,300.99379 L 336.77071,269.98777 Z"
       style="display:inline;opacity:1;fill:#ff9800;fill-opacity:1;stroke:none;stroke-width:4;stroke-linecap:round;stroke-linejoin:round;stroke-miterlimit:4;stroke-dasharray:none;stroke-opacity:1"
       id="path4241" />
  </g>
  <g
     style="display:none"
     id="layer2">
    <path
       class="calvin-head"
       id="path4406"
       d="M 279.35156,16 L 209.24609,51.052734 L 162.50977,27.683594 L 92.40625,51.052734 L 139.14258,97.789062 L 110.20117,187.74219 L 45.703125,270.5918 L 83.712891,299.28125 L 94.435547,307.16992 L 92.595703,316.29492 L 88.251953,338.95117 L 169.7168,340.77539 L 94.724609,358.41602 L 106.87695,383.75 L 110.55273,425.6582 L 215.08984,430.78711 L 261.39258,496 L 336.89844,496 L 423.19141,496 L 386.08203,387.68945 L 442.92969,308.10352 L 466.29688,214.63086 L 419.56055,97.789062 L 396.19336,74.419922 L 361.14062,27.683594 L 302.7207,51.052734 L 279.35156,16 Z"
       style="display:inline;opacity:1;fill:#ffc107;fill-opacity:1;stroke:none;stroke-width:4;stroke-linecap:round;stroke-linejoin:round;stroke-miterlimit:4;stroke-dasharray:none;stroke-opacity:1" />
    <path
       class="calvin-vocal-tract-gum-lower"
       d="M 138.88429,369.36278 C 134.41623,369.55947 130.71136,370.93689 127.73151,373.20353 C 128.24651,375.35132 128.58242,377.84031 129.09569,382.41046 C 130.21583,392.38442 125.04585,407.49142 132.25894,412.98856 C 135.9849,415.82814 143.96328,415.13701 153.3189,413.82155 C 154.19444,412.03516 154.94486,409.92335 155.44932,407.41867 C 157.91146,395.19363 143.53562,376.55221 143.86088,369.85409 C 142.37027,369.45728 140.71801,369.28205 138.88429,369.36278 Z"
       style="display:inline;opacity:1;fill:#9e9e9e;fill-opacity:1;stroke:none;stroke-width:1;stroke-linecap:round;stroke-linejoin:round;stroke-miterlimit:4;stroke-dasharray:none;stroke-opacity:1"
       id="path4420" />
    <path
       class="calvin-vocal-tract-tongue"
       d="M 145.88345,348.87917 C 145.50858,341.71915 158.53211,330.96395 176.07182,327.89951 C 193.61154,324.83508 206.01239,328.30573 225.00807,335.14128 C 244.00377,341.97682 258.6369,349.83865 267.41318,364.50481 C 276.18945,379.17099 262.22524,393.81304 263.88041,404.31354 C 265.53556,414.81404 267.06358,416.73796 267.06358,416.73796 L 144.11361,422.86477 C 144.11361,422.86477 152.89816,420.08856 155.44999,407.41825 C 158.00182,394.74795 142.46145,375.18105 143.95217,369.16618 C 145.44294,363.15131 162.76805,374.58533 165.74397,373.54812 C 168.7199,372.5109 168.96006,367.8594 166.98312,364.83931 C 165.0062,361.81923 162.33974,361.74256 157.98747,360.06288 C 153.63517,358.38321 146.25831,356.03919 145.88345,348.87917 Z"
       style="display:inline;opacity:1;fill:#263238;fill-opacity:1;stroke:none;stroke-width:1;stroke-linecap:round;stroke-linejoin:round;stroke-miterlimit:4;stroke-dasharray:none;stroke-opacity:1"
       id="path4422" />
    <path
       class="calvin-vocal-tract-lip-upper"
       d="M 122.20453,267.92163 C 107.63389,268.61449 104.43916,270.18631 97.040727,271.74943 C 88.538413,273.54576 85.984483,280.85431 91.819953,284.06162 C 97.655435,287.26893 103.38765,286.74329 105.45063,291.45813 C 107.51361,296.17296 106.99356,295.84846 106.55063,301.35218 C 106.10771,306.8559 104.34405,315.38408 102.79466,318.89067 C 101.24527,322.39726 98.291926,324.51033 97.97236,329.40039 C 97.652793,334.29047 102.00525,339.44389 108.25954,340.1929 C 114.51385,340.9419 119.19435,335.56362 119.57518,331.74472 C 119.92456,328.24141 119.65351,312.68953 121.46231,306.89468 C 120.93845,296.9796 123.74901,290.21917 123.77454,280.43161 C 123.79668,271.93872 120.71458,270.31859 122.20453,267.92163 Z"
       style="display:inline;fill:#607d8b;fill-rule:evenodd;stroke:none;stroke-width:1px;stroke-linecap:round;stroke-linejoin:round;stroke-opacity:1"
       id="path4424" />
    <path
       class="calvin-vocal-tract-lip-lower"
       id="path4426"
       d="M 110.97266,351.25586 C 103.99211,351.22811 100.9088,358.87088 101.38672,362.45898 C 101.86462,366.04708 108.62693,371.11892 109.94336,373.92969 C 111.25977,376.74044 114.85529,383.62644 115.12109,391.77539 C 115.38686,399.92434 109.06114,413.33013 119.90234,423.13281 C 130.74352,432.93549 173.00202,425.11714 182.98828,423.7793 C 192.97452,422.44143 212.45375,427.13328 219.64648,428.87695 C 226.78851,430.60835 264.04104,488.49526 264.6543,496 L 295.44922,496 C 289.87949,473.56857 271.45529,442.16271 271.50195,431.05664 C 271.55689,417.97447 284.56883,397.17166 287.95508,390.93555 C 291.34132,384.69945 290.47446,380.43051 286.8457,378.46484 C 283.21693,376.49917 278.51288,383.25422 275.72266,387.13281 C 272.93245,391.0114 266.00628,403.10131 264.37891,405.55469 C 262.75153,408.00808 239.10274,414.44579 228.81836,413.57227 C 218.53399,412.69875 199.10532,410.57824 180.70117,410.46484 C 162.29701,410.35146 139.24965,417.98696 132.05273,412.4707 C 124.85579,406.95445 130.06938,391.85969 128.97852,381.88281 C 127.88764,371.90592 127.65728,371.74775 124.4375,363.73242 C 121.21772,355.7171 117.95322,351.28363 110.97266,351.25586 Z"
       style="display:inline;opacity:1;fill:#607d8b;fill-opacity:1;stroke:none;stroke-width:1;stroke-linecap:round;stroke-linejoin:round;stroke-miterlimit:4;stroke-dasharray:none;stroke-opacity:1" />
    <path
       class="calvin-vocal-tract-laryngeal-wall"
       id="path4428"
       d="M 308.85547,420.33789 C 307.90695,420.32313 306.95861,420.53761 306.04297,420.84766 C 303.11292,421.83981 302.50471,423.79095 302.19727,428.73242 C 301.92844,433.05294 318.78899,469.01153 326.63477,496 L 343.96484,496 C 336.69291,472.49983 317.10326,430.06857 314.76953,425.16602 C 313.02938,421.51042 310.94221,420.37036 308.85547,420.33789 Z"
       style="display:inline;opacity:1;fill:#607d8b;fill-opacity:1;stroke:none;stroke-width:1;stroke-linecap:round;stroke-linejoin:round;stroke-miterlimit:4;stroke-dasharray:none;stroke-opacity:1" />
    <path
       class="calvin-vocal-tract-head"
       id="path4430"
       d="M 252.64844,84.253906 C 215.64975,84.346268 180.00288,90.040145 165.55078,102.11719 C 136.6466,126.27127 128.41783,172.5913 108.40625,198.15625 C 108.40625,198.15625 59.503543,254.94407 60.601562,267.80859 C 61.699596,280.67312 79.063269,277.76074 78.464844,269.65625 C 77.866391,261.55175 75.563779,257.31025 80.761719,249.84961 C 90.551559,235.79818 108.09519,220.77062 134.37891,213.54492 C 160.66262,206.31924 197.74976,212.23431 212.49805,215.85352 C 227.24633,219.47273 229.54524,243.65637 243.4043,250.72656 C 257.26337,257.79674 267.84132,263.39623 284.74805,284.20312 C 301.65478,305.01 300.59335,342.45861 310.57422,377.02148 C 317.98405,402.57378 346.51943,448.29454 364.51758,495.94141 C 364.52479,495.96051 364.53185,495.98087 364.53906,496 L 407.23633,496 C 407.22976,495.98215 407.2214,495.95918 407.21484,495.94141 C 395.81733,465.05976 354.75255,365.32338 382.47461,331.51758 C 410.19666,297.71176 428.19536,214.59199 416.71875,181.85156 C 405.24213,149.11112 387.58071,120.65763 347.85938,100 C 327.99872,89.671191 289.64713,84.161544 252.64844,84.253906 Z"
       style="display:inline;fill:#607d8b;fill-opacity:1;fill-rule:evenodd;stroke:none;stroke-width:1px;stroke-linecap:round;stroke-linejoin:round;stroke-opacity:1" />
    <path
       style="display:inline;fill:#cfd8dc;fill-rule:evenodd;stroke:none;stroke-width:1px;stroke-linecap:butt;stroke-linejoin:miter;stroke-opacity:1"
       d="M 144.24796,392.07523 C 141.9467,393.81427 130.07107,374.81483 128.74096,370.87367 C 127.41084,366.93252 128.15363,349.17521 131.44371,348.98003 C 134.73381,348.78484 140.46947,361.79707 141.7982,365.85796 C 143.12694,369.91885 146.54923,390.3362 144.24796,392.07523 Z"
       class="calvin-teeth-lower"
       id="path4432" />
    <path
       class="calvin-vocal-tract-velum"
       d="M 235.58228,272.2091 C 243.78537,273.27287 251.00854,274.70633 251.49575,277.01892 C 252.30713,280.87023 232.1254,279.89496 209.0856,278.49124 C 226.70953,281.41438 244.3863,284.27617 253.90058,291.09736 C 263.41488,297.91855 262.51131,300.71461 265.68905,308.82807 C 268.86681,316.94155 269.75132,325.17971 272.42934,324.70341 C 275.10736,324.22711 277.23216,315.0581 277.61923,306.6551 C 278.00632,298.25208 275.62081,282.65185 270.21391,279.83682 C 264.80702,277.02182 258.26193,274.31087 240.11696,272.65344 C 238.52478,272.50801 237.06172,272.3587 235.58228,272.2091 Z"
       style="display:inline;fill:#263238;fill-rule:evenodd;stroke:none;stroke-width:1px;stroke-linecap:round;stroke-linejoin:round;stroke-opacity:1"
       id="path4434" />
    <path
       style="display:inline;fill:#9e9e9e;fill-rule:evenodd;stroke:none;stroke-width:1px;stroke-linecap:round;stroke-linejoin:round;stroke-opacity:1"
       d="M 121.48107,307.34521 C 122.1181,317.5114 120.58246,315.51646 121.57824,318.63871 C 122.57399,321.76097 135.1996,325.98653 138.01465,319.38002 C 140.82971,312.77351 148.79421,297.06753 153.03266,288.48198 C 157.27112,279.89643 165.22685,280.61733 176.31039,279.14921 C 187.35864,277.68576 188.72593,276.32545 209.085,278.49177 C 229.44408,280.65808 252.30729,280.87066 251.49592,277.01935 C 250.68454,273.16804 231.21392,271.74478 219.5947,270.43039 C 211.18267,269.46763 202.62524,268.584 190.24091,268.02383 C 168.45317,267.03831 127.21446,263.22257 123.38469,266.59616 C 119.5549,269.96973 123.80039,270.49483 123.77448,280.43196 C 123.74858,290.3691 120.84404,297.17903 121.48107,307.34521 Z"
       class="calvin-vocal-tract-alveolar-ridge"
       id="path4436" />
    <path
       class="calvin-vocal-tract-teeth-upper"
       d="M 137.3587,293.24717 C 134.97533,291.61118 124.03633,311.11251 122.89929,315.10794 C 121.76226,319.10337 123.36775,336.80903 126.66383,336.85932 C 129.95989,336.90961 135.05664,323.65909 136.18649,319.54412 C 137.31633,315.42913 139.74207,294.88314 137.3587,293.24717 Z"
       style="display:inline;fill:#cfd8dc;fill-rule:evenodd;stroke:none;stroke-width:1px;stroke-linecap:butt;stroke-linejoin:miter;stroke-opacity:1"
       id="path4438" />
    <path
       class="calvin-vocal-tract-pharynx"
       d="M 310.01352,449.53947 A 16.688091,4.3345921 0 0 1 293.32543,453.87407 A 16.688091,4.3345921 0 0 1 276.63734,449.53947 A 16.688091,4.3345921 0 0 1 293.32543,445.20489 A 16.688091,4.3345921 0 0 1 310.01352,449.53947 Z"
       style="display:inline;opacity:1;fill:#263238;fill-opacity:1;stroke:none;stroke-width:4;stroke-linecap:round;stroke-linejoin:round;stroke-miterlimit:4;stroke-dasharray:none;stroke-opacity:1"
       id="path4440" />
  </g>
</svg>
