<?xml version="1.0" encoding="UTF-8" standalone="no"?>
<svg
   xmlns:dc="http://purl.org/dc/elements/1.1/"
   xmlns:cc="http://creativecommons.org/ns#"
   xmlns:rdf="http://www.w3.org/1999/02/22-rdf-syntax-ns#"
   xmlns:svg="http://www.w3.org/2000/svg"
   xmlns="http://www.w3.org/2000/svg"
   xmlns:sodipodi="http://sodipodi.sourceforge.net/DTD/sodipodi-0.dtd"
   xmlns:inkscape="http://www.inkscape.org/namespaces/inkscape"
   viewBox="0 0 512 512"
   class="avatar-kelly"
   id="svg4208"
   version="1.1"
   inkscape:version="0.91 r13725"
   sodipodi:docname="kelly.svg">
  <metadata
     id="metadata4240">
    <rdf:RDF>
      <cc:Work
         rdf:about="">
        <dc:format>image/svg+xml</dc:format>
        <dc:type
           rdf:resource="http://purl.org/dc/dcmitype/StillImage" />
        <dc:title></dc:title>
      </cc:Work>
    </rdf:RDF>
  </metadata>
  <defs
     id="defs4238" />
  <sodipodi:namedview
     pagecolor="#ffffff"
     bordercolor="#666666"
     borderopacity="1"
     objecttolerance="10"
     gridtolerance="10"
     guidetolerance="10"
     inkscape:pageopacity="0"
     inkscape:pageshadow="2"
     inkscape:window-width="1366"
     inkscape:window-height="719"
     id="namedview4236"
     showgrid="false"
     inkscape:zoom="1.3962305"
     inkscape:cx="333.51624"
     inkscape:cy="328.41088"
     inkscape:window-x="0"
     inkscape:window-y="25"
     inkscape:window-maximized="1"
     inkscape:current-layer="svg4208"
     inkscape:snap-bbox="true"
     inkscape:bbox-nodes="true"
     inkscape:snap-midpoints="true"
     inkscape:snap-smooth-nodes="true"
     inkscape:object-nodes="true"
     inkscape:snap-intersection-paths="true"
     inkscape:object-paths="true"
     inkscape:snap-nodes="false">
    <inkscape:grid
       type="xygrid"
       id="grid5591"
       empspacing="4" />
  </sodipodi:namedview>
  <path
     style="fill:#ff5722;fill-rule:evenodd;stroke:none;stroke-width:1px;stroke-linecap:butt;stroke-linejoin:miter;stroke-opacity:1"
     d="M 144,216 L 128,232 L 128,248 L 140,260 L 136,264 L 136,280 L 120,296 L 120,312 L 136,328 L 152,328 L 168,312 L 168,296 L 184,280 L 184,264 L 172,252 L 176,248 L 176,232 L 160,216 L 144,216 Z M 352,216 L 336,232 L 336,248 L 340,252 L 328,264 L 328,280 L 344,296 L 344,312 L 360,328 L 376,328 L 392,312 L 392,296 L 376,280 L 376,264 L 372,260 L 384,248 L 384,232 L 368,216 L 352,216 Z"
     id="path6391"
     class="hair"
     inkscape:connector-curvature="0" />
  <path
     id="path8219"
     d="M 112,496 L 129.03476,417.86426 L 145.71567,350.55313 L 213.14287,334.05347 L 264.57144,325.51091 L 298.85714,334.05347 L 365.71431,350.77639 L 382.85716,419.11686 L 400,496 L 264.57144,496.3622 Z"
     style="opacity:1;fill:#ab47bc;fill-opacity:1;stroke:none;stroke-width:4;stroke-linecap:round;stroke-linejoin:round;stroke-miterlimit:4;stroke-dasharray:none;stroke-opacity:1"
     inkscape:connector-curvature="0"
     class="arms"
     sodipodi:nodetypes="ccccccccccc" />
  <path
     id="path8221"
     d="M 168,496 L 183.23876,402.03174 L 200.38161,367.86151 L 213.14287,334.05347 L 264.57144,320.58237 L 298.85714,334.05347 L 309.71428,367.86151 L 326.85715,402.03174 L 344,496 L 265.52349,496.3622 Z"
     style="opacity:1;fill:#6a1b9a;fill-opacity:1;stroke:none;stroke-width:4;stroke-linecap:round;stroke-linejoin:round;stroke-miterlimit:4;stroke-dasharray:none;stroke-opacity:1"
     inkscape:connector-curvature="0"
     class="chest"
     sodipodi:nodetypes="ccccccccccc" />
  <path
     id="path8223"
     d="M 216,295.61196 L 296,295.61196 L 296,342.59603 L 256,392 L 216,342.59603 Z"
     style="opacity:1;fill:#f48fb1;fill-opacity:1;stroke:none;stroke-width:2;stroke-linecap:round;stroke-linejoin:round;stroke-miterlimit:4;stroke-dasharray:none;stroke-opacity:1"
     inkscape:connector-curvature="0"
     class="neck"
     sodipodi:nodetypes="cccccc" />
  <path
     sodipodi:nodetypes="cccccccccccccccc"
     id="path8225"
     d="M 367.42855,205.91507 L 350.2857,257.17042 L 324.57142,282.7981 L 303.14285,304.15452 L 281.71429,312.69706 L 230.28572,312.69706 L 208.85715,304.15452 L 187.42857,282.7981 L 161.71429,252.89914 L 144.57144,205.91511 L 153.14287,154.65972 L 170.28572,95.923131 L 256.00001,78.838013 L 341.71429,95.923131 L 358.85714,154.65972 Z"
     style="opacity:1;fill:#f8bbd0;fill-opacity:1;stroke:none;stroke-width:2;stroke-linecap:round;stroke-linejoin:round;stroke-miterlimit:4;stroke-dasharray:none;stroke-opacity:1"
     inkscape:connector-curvature="0"
     class="head" />
  <path
     style="opacity:1;fill:#263238;fill-opacity:1;stroke:none;stroke-width:4;stroke-linecap:round;stroke-linejoin:round;stroke-miterlimit:4;stroke-dasharray:none;stroke-opacity:1"
     d="M 230.28572,173.88047 A 17.142853,19.220767 0 0 1 213.14286,193.10123 A 17.142853,19.220767 0 0 1 196.00001,173.88047 A 17.142853,19.220767 0 0 1 213.14286,154.6597 A 17.142853,19.220767 0 0 1 230.28572,173.88047 Z"
     id="path8227"
     inkscape:connector-curvature="0"
     class="eye" />
  <path
     style="opacity:1;fill:#263238;fill-opacity:1;stroke:none;stroke-width:4;stroke-linecap:round;stroke-linejoin:round;stroke-miterlimit:4;stroke-dasharray:none;stroke-opacity:1"
     d="M 316.00001,173.88047 A 17.142853,19.220767 0 0 1 298.85716,193.10123 A 17.142853,19.220767 0 0 1 281.71429,173.88047 A 17.142853,19.220767 0 0 1 298.85716,154.6597 A 17.142853,19.220767 0 0 1 316.00001,173.88047 Z"
     id="path8229"
     inkscape:connector-curvature="0"
     class="eye" />
  <path
     id="path8231"
     d="M 124.18211,175.98554 L 131.81789,210.99456 L 154.72528,232 L 162.36107,232 L 177.63266,189.98916 L 154.72528,161.98192 L 131.81789,161.98192 Z"
     style="opacity:1;fill:#f8bbd0;fill-opacity:1;stroke:none;stroke-width:4;stroke-linecap:round;stroke-linejoin:round;stroke-miterlimit:4;stroke-dasharray:none;stroke-opacity:1"
     inkscape:connector-curvature="0"
     class="ear" />
  <path
     id="path8233"
     d="M 147.08949,210.99456 L 154.72528,203.99277 L 154.72528,189.98916 L 154.72528,182.98734 L 147.08949,175.98554 L 139.45369,189.98916 Z"
     style="opacity:1;fill:#f48fb1;fill-opacity:1;stroke:none;stroke-width:4;stroke-linecap:round;stroke-linejoin:round;stroke-miterlimit:4;stroke-dasharray:none;stroke-opacity:1"
     inkscape:connector-curvature="0"
     class="ear-hole" />
  <path
     style="opacity:1;fill:#f8bbd0;fill-opacity:1;stroke:none;stroke-width:4;stroke-linecap:round;stroke-linejoin:round;stroke-miterlimit:4;stroke-dasharray:none;stroke-opacity:1"
     d="M 387.81789,175.98549 L 380.18211,210.99456 L 357.27472,232 L 349.63893,232 L 334.36735,189.98913 L 357.27472,161.98187 L 380.18211,161.98187 Z"
     id="path8235"
     inkscape:connector-curvature="0"
     class="ear" />
  <path
     style="opacity:1;fill:#f48fb1;fill-opacity:1;stroke:none;stroke-width:4;stroke-linecap:round;stroke-linejoin:round;stroke-miterlimit:4;stroke-dasharray:none;stroke-opacity:1"
     d="M 364.91053,210.99456 L 357.27472,203.99275 L 357.27472,189.98913 L 357.27472,182.98731 L 364.91053,175.98549 L 372.54631,189.98913 Z"
     id="path8237"
     inkscape:connector-curvature="0"
     class="ear-hole" />
  <path
     style="opacity:1;fill:#f48fb1;fill-opacity:1;stroke:none;stroke-width:8;stroke-linecap:round;stroke-linejoin:round;stroke-miterlimit:4;stroke-dasharray:none;stroke-opacity:1"
     d="M 221.71429,257.17042 L 226,248.62786 L 256.00001,252.89914 L 286,248.62786 L 290.28572,257.17042 L 267.42857,274.25558 L 244.57142,274.25558 Z"
     id="path8241"
     inkscape:connector-curvature="0"
     class="lips" />
  <path
     style="fill:#f4511e;fill-rule:evenodd;stroke:none;stroke-width:1px;stroke-linecap:butt;stroke-linejoin:miter;stroke-opacity:1"
     d="M 248 40 L 240 48 L 224 48 L 220 52 L 216 48 L 200 48 L 184 64 L 184 80 L 176 72 L 160 72 L 144 88 L 144 104 L 148 108 L 144 112 L 128 128 L 128 144 L 136 152 L 136 168 L 149.33398 184 L 162.66602 184 L 176 168 L 176 152 L 184 152 L 200 136 L 200 120 L 208 120 L 216 112 L 224 120 L 240 120 L 256 104 L 272 120 L 288 120 L 296 112 L 304 120 L 304 128 L 320 144 L 328 152 L 336 152 L 336 168 L 349.33398 184 L 362.66602 184 L 376 168 L 376 152 L 384 144 L 384 128 L 368 112 L 364 108 L 368 104 L 368 88 L 352 72 L 336 72 L 328 80 L 328 64 L 312 48 L 296 48 L 292 52 L 288 48 L 272 48 L 264 40 L 248 40 z "
     id="path6369" />
</svg>
