<?xml version="1.0" encoding="UTF-8" standalone="no"?>
<svg
   xmlns:dc="http://purl.org/dc/elements/1.1/"
   xmlns:cc="http://creativecommons.org/ns#"
   xmlns:rdf="http://www.w3.org/1999/02/22-rdf-syntax-ns#"
   xmlns:svg="http://www.w3.org/2000/svg"
   xmlns="http://www.w3.org/2000/svg"
   xmlns:sodipodi="http://sodipodi.sourceforge.net/DTD/sodipodi-0.dtd"
   xmlns:inkscape="http://www.inkscape.org/namespaces/inkscape"
   viewBox="0 0 512 512"
   class="avatar-emma"
   id="svg4208"
   version="1.1"
   inkscape:version="0.91 r13725"
   sodipodi:docname="emma.svg">
  <metadata
     id="metadata4240">
    <rdf:RDF>
      <cc:Work
         rdf:about="">
        <dc:format>image/svg+xml</dc:format>
        <dc:type
           rdf:resource="http://purl.org/dc/dcmitype/StillImage" />
        <dc:title></dc:title>
      </cc:Work>
    </rdf:RDF>
  </metadata>
  <defs
     id="defs4238" />
  <sodipodi:namedview
     pagecolor="#ffffff"
     bordercolor="#666666"
     borderopacity="1"
     objecttolerance="10"
     gridtolerance="10"
     guidetolerance="10"
     inkscape:pageopacity="0"
     inkscape:pageshadow="2"
     inkscape:window-width="1366"
     inkscape:window-height="719"
     id="namedview4236"
     showgrid="true"
     inkscape:zoom="1.968685"
     inkscape:cx="251.23798"
     inkscape:cy="268.47603"
     inkscape:window-x="0"
     inkscape:window-y="25"
     inkscape:window-maximized="1"
     inkscape:current-layer="svg4208"
     inkscape:snap-bbox="true"
     inkscape:bbox-nodes="false"
     inkscape:snap-midpoints="true"
     inkscape:snap-smooth-nodes="true"
     inkscape:object-nodes="true"
     inkscape:snap-intersection-paths="true"
     inkscape:object-paths="true">
    <inkscape:grid
       type="xygrid"
       id="grid5591"
       empspacing="4" />
  </sodipodi:namedview>
  <path
     inkscape:connector-curvature="0"
     svg-label="calvin-hair"
     id="calvin-hair"
     d="M 156,112 L 356,112 L 372,288 L 388,336 L 260,324 L 124,336 L 140,280 Z"
     style="fill:#263238"
     class="hair" />
  <path
     id="path8219"
     d="M 112,496 L 129.03476,417.86426 L 145.71567,350.55313 L 213.14287,334.05347 L 264.57144,325.51091 L 298.85714,334.05347 L 365.71431,350.77639 L 382.85716,419.11686 L 400,496 L 264.57144,496.3622 Z"
     style="opacity:1;fill:#ff9800;fill-opacity:1;stroke:none;stroke-width:4;stroke-linecap:round;stroke-linejoin:round;stroke-miterlimit:4;stroke-dasharray:none;stroke-opacity:1"
     inkscape:connector-curvature="0"
     class="arms"
     sodipodi:nodetypes="ccccccccccc" />
  <path
     id="path8221"
     d="M 168,496 L 183.23876,402.03174 L 200.38161,367.86151 L 213.14287,334.05347 L 264.57144,320.58237 L 298.85714,334.05347 L 309.71428,367.86151 L 326.85715,402.03174 L 344,496 L 265.52349,496.3622 Z"
     style="opacity:1;fill:#e65100;fill-opacity:1;stroke:none;stroke-width:4;stroke-linecap:round;stroke-linejoin:round;stroke-miterlimit:4;stroke-dasharray:none;stroke-opacity:1"
     inkscape:connector-curvature="0"
     class="chest"
     sodipodi:nodetypes="ccccccccccc" />
  <path
     id="path8223"
     d="M 216,295.61196 L 296,295.61196 L 296,342.59603 L 256,392 L 216,342.59603 Z"
     style="opacity:1;fill:#5d4037;fill-opacity:1;stroke:none;stroke-width:2;stroke-linecap:round;stroke-linejoin:round;stroke-miterlimit:4;stroke-dasharray:none;stroke-opacity:1"
     inkscape:connector-curvature="0"
     class="neck"
     sodipodi:nodetypes="cccccc" />
  <path
     sodipodi:nodetypes="cccccccccccccccc"
     id="path8225"
     d="M 367.42855,205.91507 L 350.2857,257.17042 L 324.57142,282.7981 L 303.14285,304.15452 L 281.71429,312.69706 L 230.28572,312.69706 L 208.85715,304.15452 L 187.42857,282.7981 L 161.71429,252.89914 L 144.57144,205.91511 L 153.14287,154.65972 L 170.28572,95.923131 L 256.00001,78.838013 L 341.71429,95.923131 L 358.85714,154.65972 Z"
     style="opacity:1;fill:#795548;fill-opacity:1;stroke:none;stroke-width:2;stroke-linecap:round;stroke-linejoin:round;stroke-miterlimit:4;stroke-dasharray:none;stroke-opacity:1"
     inkscape:connector-curvature="0"
     class="head" />
  <path
     style="opacity:1;fill:#263238;fill-opacity:1;stroke:none;stroke-width:4;stroke-linecap:round;stroke-linejoin:round;stroke-miterlimit:4;stroke-dasharray:none;stroke-opacity:1"
     d="M 230.28572,173.88047 A 17.142853,19.220767 0 0 1 213.14286,193.10123 A 17.142853,19.220767 0 0 1 196.00001,173.88047 A 17.142853,19.220767 0 0 1 213.14286,154.6597 A 17.142853,19.220767 0 0 1 230.28572,173.88047 Z"
     id="path8227"
     inkscape:connector-curvature="0"
     class="eye" />
  <path
     style="opacity:1;fill:#263238;fill-opacity:1;stroke:none;stroke-width:4;stroke-linecap:round;stroke-linejoin:round;stroke-miterlimit:4;stroke-dasharray:none;stroke-opacity:1"
     d="M 316.00001,173.88047 A 17.142853,19.220767 0 0 1 298.85716,193.10123 A 17.142853,19.220767 0 0 1 281.71429,173.88047 A 17.142853,19.220767 0 0 1 298.85716,154.6597 A 17.142853,19.220767 0 0 1 316.00001,173.88047 Z"
     id="path8229"
     inkscape:connector-curvature="0"
     class="eye" />
  <path
     id="path8231"
     d="M 124.18211,175.98554 L 131.81789,210.99456 L 154.72528,232 L 162.36107,232 L 177.63266,189.98916 L 154.72528,161.98192 L 131.81789,161.98192 Z"
     style="opacity:1;fill:#795548;fill-opacity:1;stroke:none;stroke-width:4;stroke-linecap:round;stroke-linejoin:round;stroke-miterlimit:4;stroke-dasharray:none;stroke-opacity:1"
     inkscape:connector-curvature="0"
     class="ear" />
  <path
     id="path8233"
     d="M 147.08949,210.99456 L 154.72528,203.99277 L 154.72528,189.98916 L 154.72528,182.98734 L 147.08949,175.98554 L 139.45369,189.98916 Z"
     style="opacity:1;fill:#5d4037;fill-opacity:1;stroke:none;stroke-width:4;stroke-linecap:round;stroke-linejoin:round;stroke-miterlimit:4;stroke-dasharray:none;stroke-opacity:1"
     inkscape:connector-curvature="0"
     class="ear-hole" />
  <path
     style="opacity:1;fill:#795548;fill-opacity:1;stroke:none;stroke-width:4;stroke-linecap:round;stroke-linejoin:round;stroke-miterlimit:4;stroke-dasharray:none;stroke-opacity:1"
     d="M 387.81789,175.98549 L 380.18211,210.99456 L 357.27472,232 L 349.63893,232 L 334.36735,189.98913 L 357.27472,161.98187 L 380.18211,161.98187 Z"
     id="path8235"
     inkscape:connector-curvature="0"
     class="ear" />
  <path
     style="opacity:1;fill:#5d4037;fill-opacity:1;stroke:none;stroke-width:4;stroke-linecap:round;stroke-linejoin:round;stroke-miterlimit:4;stroke-dasharray:none;stroke-opacity:1"
     d="M 364.91053,210.99456 L 357.27472,203.99275 L 357.27472,189.98913 L 357.27472,182.98731 L 364.91053,175.98549 L 372.54631,189.98913 Z"
     id="path8237"
     inkscape:connector-curvature="0"
     class="ear-hole" />
  <path
     style="opacity:1;fill:#5d4037;fill-opacity:1;stroke:none;stroke-width:8;stroke-linecap:round;stroke-linejoin:round;stroke-miterlimit:4;stroke-dasharray:none;stroke-opacity:1"
     d="M 221.71429,257.17042 L 226,248.62786 L 256.00001,252.89914 L 286,248.62786 L 290.28572,257.17042 L 267.42857,274.25558 L 244.57142,274.25558 Z"
     id="path8241"
     inkscape:connector-curvature="0"
     class="lips" />
  <path
     inkscape:connector-curvature="0"
     id="path5725"
     class="hair"
     d="M 157.14286,204.93357 L 157.14286,178.07643 L 168,148 L 196,152 L 300,128 L 320,156 L 354.28571,152.36215 L 362.85713,178.07643 L 363.42856,200.93357 L 376,176 L 356,112 L 337.14285,83.79072 L 316,72 L 308,72 L 300,64 L 225.71429,58.07644 L 182.85715,83.79072 L 156,112 L 144,176 Z"
     style="fill:#263238" />
</svg>
