<?xml version="1.0" encoding="UTF-8" standalone="no"?>
<!-- Created with Inkscape (http://www.inkscape.org/) -->

<svg
   xmlns:dc="http://purl.org/dc/elements/1.1/"
   xmlns:cc="http://creativecommons.org/ns#"
   xmlns:rdf="http://www.w3.org/1999/02/22-rdf-syntax-ns#"
   xmlns:svg="http://www.w3.org/2000/svg"
   xmlns="http://www.w3.org/2000/svg"
   xmlns:sodipodi="http://sodipodi.sourceforge.net/DTD/sodipodi-0.dtd"
   xmlns:inkscape="http://www.inkscape.org/namespaces/inkscape"
   width="256"
   height="24"
   viewBox="0 0 256 24"
   id="svg2"
   version="1.1"
   inkscape:version="0.91 r13725"
   sodipodi:docname="clouds.svg">
  <defs
     id="defs4" />
  <sodipodi:namedview
     id="base"
     pagecolor="#ffffff"
     bordercolor="#666666"
     borderopacity="1.0"
     inkscape:pageopacity="0.0"
     inkscape:pageshadow="2"
     inkscape:zoom="2.7503168"
     inkscape:cx="137.06245"
     inkscape:cy="10.873099"
     inkscape:document-units="px"
     inkscape:current-layer="layer1"
     showgrid="true"
     units="px"
     inkscape:snap-bbox="true"
     inkscape:snap-object-midpoints="true"
     inkscape:window-width="1366"
     inkscape:window-height="719"
     inkscape:window-x="1920"
     inkscape:window-y="337"
     inkscape:window-maximized="1">
    <inkscape:grid
       type="xygrid"
       id="grid3344"
       empspacing="4" />
  </sodipodi:namedview>
  <metadata
     id="metadata7">
    <rdf:RDF>
      <cc:Work
         rdf:about="">
        <dc:format>image/svg+xml</dc:format>
        <dc:type
           rdf:resource="http://purl.org/dc/dcmitype/StillImage" />
        <dc:title></dc:title>
      </cc:Work>
    </rdf:RDF>
  </metadata>
  <g
     inkscape:label="Layer 1"
     inkscape:groupmode="layer"
     id="layer1"
     transform="translate(0,-1028.3622)">
    <path
       inkscape:connector-curvature="0"
       style="opacity:1;fill:white;fill-opacity:1;stroke:#33691e;stroke-width:0;stroke-linecap:round;stroke-linejoin:round;stroke-miterlimit:4;stroke-dasharray:none;stroke-opacity:1"
       d="M 0,1028.3622 L 0,1042.8915 A 16,16 0 0 0 0.94726562,1041.7352 A 16,16 0 0 0 16,1052.3622 A 16,16 0 0 0 31.083984,1041.6395 A 16,16 0 0 0 40,1044.3622 A 16,16 0 0 0 50.296875,1040.5868 A 16,16 0 0 0 64,1048.3622 A 16,16 0 0 0 74.296875,1044.5868 A 16,16 0 0 0 88,1052.3622 A 16,16 0 0 0 103.05273,1041.7274 A 16,16 0 0 0 116,1048.3622 A 16,16 0 0 0 128.94727,1041.7352 A 16,16 0 0 0 144,1052.3622 A 16,16 0 0 0 156.00391,1046.9208 A 16,16 0 0 0 168,1052.3622 A 16,16 0 0 0 184,1036.3622 A 16,16 0 0 0 183.9082,1034.8095 A 16,16 0 0 0 196,1040.3622 A 16,16 0 0 0 204.11719,1038.1278 A 16,16 0 0 0 220,1052.3622 A 16,16 0 0 0 233.69336,1044.6005 A 16,16 0 0 0 244,1048.3622 A 16,16 0 0 0 256,1042.9149 L 256,1028.3622 L 0,1028.3622 Z"
       id="path3346" />
  </g>
</svg>
