<?xml version="1.0" encoding="UTF-8" standalone="no"?>
<!-- Created with Inkscape (http://www.inkscape.org/) -->

<svg
   xmlns:dc="http://purl.org/dc/elements/1.1/"
   xmlns:cc="http://creativecommons.org/ns#"
   xmlns:rdf="http://www.w3.org/1999/02/22-rdf-syntax-ns#"
   xmlns:svg="http://www.w3.org/2000/svg"
   xmlns="http://www.w3.org/2000/svg"
   xmlns:sodipodi="http://sodipodi.sourceforge.net/DTD/sodipodi-0.dtd"
   xmlns:inkscape="http://www.inkscape.org/namespaces/inkscape"
   width="512"
   height="512"
   viewBox="0 0 512.00001 512.00001"
   class="calvin-svg2"
   version="1.1"
   inkscape:version="0.91 r13725"
   sodipodi:docname="kali-mouths.svg"
   inkscape:export-filename="/home/mwibrow/Pictures/CALVin/calvin-front-cheer.png"
   inkscape:export-xdpi="180"
   inkscape:export-ydpi="180"
   id="svg3336">
  <defs
     class="calvin-defs4"
     id="defs3338" />
  <sodipodi:namedview
     class="calvin-base"
     pagecolor="#ffffff"
     bordercolor="#666666"
     borderopacity="1.0"
     inkscape:pageopacity="0.0"
     inkscape:pageshadow="2"
     inkscape:zoom="0.54720115"
     inkscape:cx="1247.299"
     inkscape:cy="-101.83064"
     inkscape:document-units="px"
     inkscape:current-layer="calvin-neutral"
     showgrclass="calvin-true"
     units="px"
     fit-margin-top="0"
     fit-margin-left="0"
     fit-margin-right="0"
     fit-margin-bottom="0"
     inkscape:snap-global="true"
     inkscape:snap-page="true"
     inkscape:snap-bbox="true"
     inkscape:snap-object-midpoints="false"
     inkscape:snap-center="false"
     inkscape:window-width="1920"
     inkscape:window-height="1031"
     inkscape:window-x="0"
     inkscape:window-y="25"
     inkscape:window-maximized="1"
     showguides="false"
     inkscape:object-paths="true"
     inkscape:snap-intersection-paths="true"
     inkscape:object-nodes="true"
     inkscape:snap-smooth-nodes="true"
     inkscape:bbox-paths="true"
     inkscape:bbox-nodes="false"
     inkscape:snap-bbox-midpoints="false"
     inkscape:snap-nodes="true"
     id="namedview3340"
     showgrid="true">
    <inkscape:grid
       type="xygrid"
       class="calvin-grid4136"
       empspacing="4"
       id="grid3342" />
    <inkscape:grid
       type="xygrid"
       id="grid4237"
       spacingx="512.00001"
       spacingy="512.00001"
       empspacing="1"
       color="#ff3f3f"
       opacity="0.1254902"
       empcolor="#ff3f3f"
       empopacity="0.25098039" />
  </sodipodi:namedview>
  <metadata
     class="calvin-metadata7"
     id="metadata3344">
    <rdf:RDF>
      <cc:Work
         rdf:about="">
        <dc:format>image/svg+xml</dc:format>
        <dc:type
           rdf:resource="http://purl.org/dc/dcmitype/StillImage" />
        <dc:title />
      </cc:Work>
    </rdf:RDF>
  </metadata>
  <g
     inkscape:label="Calvin"
     inkscape:groupmode="layer"
     class="calvin-neutral"
     style="display:inline"
     id="calvin-neutral">
    <path
       id="path3514"
       style="opacity:1;fill:#0d47a1;fill-opacity:1;stroke:none;stroke-width:4;stroke-linecap:round;stroke-linejoin:round;stroke-miterlimit:4;stroke-dasharray:none;stroke-opacity:1"
       d="M 112,496 L 118.74903,417.96242 L 144,352 L 213.14286,333.50499 L 264.57143,324.93356 L 298.85714,333.50499 L 368,352 L 393.14285,419.21927 L 400,496 L 264.57143,496.3622 Z"
       class="calvin-arms"
       inkscape:connector-curvature="0"
       sodipodi:nodetypes="ccccccccccc" />
    <path
       id="path3516"
       style="opacity:1;fill:#03a9f4;fill-opacity:1;stroke:none;stroke-width:4;stroke-linecap:round;stroke-linejoin:round;stroke-miterlimit:4;stroke-dasharray:none;stroke-opacity:1"
       d="M 160,496 L 174.28572,402.07641 L 191.42857,367.7907 L 213.14286,333.50499 L 264.57143,319.98836 L 298.85714,333.50499 L 320.57142,367.7907 L 337.71428,402.07641 L 356,496 L 265.52348,496.3622 Z"
       class="calvin-chest"
       inkscape:connector-curvature="0"
       sodipodi:nodetypes="ccccccccccc" />
    <path
       style="opacity:1;fill:#ffeb3b;fill-opacity:1;stroke:#e65100;stroke-width:0;stroke-linecap:round;stroke-linejoin:round;stroke-miterlimit:4;stroke-dasharray:none;stroke-opacity:1"
       d="M 152,96 L 352,96 L 368,272 L 384,320 L 256,308 L 120,320 L 136,264 Z"
       id="rect3404"
       inkscape:connector-curvature="0"
       sodipodi:nodetypes="cccccccc" />
    <path
       id="path3518"
       style="opacity:1;fill:#ff9800;fill-opacity:1;stroke:none;stroke-width:2;stroke-linecap:round;stroke-linejoin:round;stroke-miterlimit:4;stroke-dasharray:none;stroke-opacity:1"
       d="M 216,296 L 296,296 L 296,332 L 288,368 L 256,392 L 224,368 L 220.28155,351.26696 L 216,332 Z"
       class="calvin-neck"
       inkscape:connector-curvature="0"
       sodipodi:nodetypes="ccccccccc" />
    <path
       id="path3520"
       style="opacity:1;fill:#ffc107;fill-opacity:1;stroke:none;stroke-width:2;stroke-linecap:round;stroke-linejoin:round;stroke-miterlimit:4;stroke-dasharray:none;stroke-opacity:1"
       d="M 367.42856,204.93357 L 256.14525,228.05139 L 144.57143,204.93361 L 153.14286,153.505 L 170.28572,102.07643 L 256,84.93358 L 341.71428,102.07643 L 358.85713,153.505 Z"
       class="calvin-head"
       inkscape:connector-curvature="0"
       sodipodi:nodetypes="ccccccccc" />
    <path
       id="path3522"
       inkscape:connector-curvature="0"
       class="calvin-eye-right"
       d="M 230.28571,172.79071 C 230.28571,183.44192 222.61059,192.07643 213.14285,192.07643 C 203.67512,192.07643 196,183.44192 196,172.79071 C 196,162.1395 203.67512,153.50499 213.14285,153.50499 C 222.61059,153.50499 230.28571,162.1395 230.28571,172.79071 Z"
       style="opacity:1;fill:#212121;fill-opacity:1;stroke:none;stroke-width:4;stroke-linecap:round;stroke-linejoin:round;stroke-miterlimit:4;stroke-dasharray:none;stroke-opacity:1"
       sodipodi:nodetypes="sssss" />
    <path
       id="path3524"
       inkscape:connector-curvature="0"
       class="calvin-eye-left"
       d="M 316,172.79071 A 17.142853,19.285721 0 0 1 298.85715,192.07643 A 17.142853,19.285721 0 0 1 281.71429,172.79071 A 17.142853,19.285721 0 0 1 298.85715,153.50499 A 17.142853,19.285721 0 0 1 316,172.79071 Z"
       style="opacity:1;fill:#212121;fill-opacity:1;stroke:none;stroke-width:4;stroke-linecap:round;stroke-linejoin:round;stroke-miterlimit:4;stroke-dasharray:none;stroke-opacity:1" />
    <path
       id="path3530"
       sodipodi:nodetypes="cccccccc"
       inkscape:connector-curvature="0"
       class="calvin-ear-left"
       d="M 395.71428,178.40001 L 388,214.4 L 364.85714,236 L 357.14285,236 L 341.71428,192.8 L 364.85714,164 L 388,164 Z"
       style="opacity:1;fill:#ffc107;fill-opacity:1;stroke:none;stroke-width:4;stroke-linecap:round;stroke-linejoin:round;stroke-miterlimit:4;stroke-dasharray:none;stroke-opacity:1" />
    <path
       id="path3532"
       sodipodi:nodetypes="ccccccc"
       inkscape:connector-curvature="0"
       class="calvin-ear-left-inner"
       d="M 375.99999,214.07643 L 367.42856,205.505 L 367.42856,188.36214 L 367.42856,179.79071 L 375.99999,171.21929 L 384.57142,188.36214 Z"
       style="opacity:1;fill:#ff9800;fill-opacity:1;stroke:none;stroke-width:4;stroke-linecap:round;stroke-linejoin:round;stroke-miterlimit:4;stroke-dasharray:none;stroke-opacity:1" />
    <path
       id="path3534"
       style="fill:#ffeb3b;fill-rule:evenodd;stroke:none;stroke-width:1px;stroke-linecap:butt;stroke-linejoin:miter;stroke-opacity:1"
       d="M 153.14286,188.93357 L 153.14286,162.07643 L 164,132 L 192,136 L 296,112 L 316,140 L 350.28571,136.36215 L 358.85713,162.07643 L 359.42856,184.93357 L 372,160 L 352,96 L 333.14285,67.79072 L 312,56 L 304,56 L 296,48 L 221.71429,42.07644 L 178.85715,67.79072 L 152,96 L 140,160 Z"
       class="calvin-hair"
       inkscape:connector-curvature="0"
       sodipodi:nodetypes="cccccccccccccccccccc" />
    <path
       style="fill:#b3e5fc;fill-rule:evenodd;stroke:none;stroke-width:1px;stroke-linecap:butt;stroke-linejoin:miter;stroke-opacity:1"
       d="M 216,332 L 172,384 L 224,368 Z"
       id="path3409"
       inkscape:connector-curvature="0" />
    <path
       inkscape:connector-curvature="0"
       id="path3411"
       d="M 296,332 L 340,384 L 288,368 Z"
       style="fill:#b3e5fc;fill-rule:evenodd;stroke:none;stroke-width:1px;stroke-linecap:butt;stroke-linejoin:miter;stroke-opacity:1" />
    <path
       style="opacity:1;fill:#ffc107;fill-opacity:1;stroke:none;stroke-width:4;stroke-linecap:round;stroke-linejoin:round;stroke-miterlimit:4;stroke-dasharray:none;stroke-opacity:1"
       d="M 117.71428,178.40001 L 125.42856,214.4 L 148.57142,236 L 156.28571,236 L 171.71428,192.8 L 148.57142,164 L 125.42856,164 Z"
       class="calvin-ear-left"
       inkscape:connector-curvature="0"
       sodipodi:nodetypes="cccccccc"
       id="path3413" />
    <path
       style="opacity:1;fill:#ff9800;fill-opacity:1;stroke:none;stroke-width:4;stroke-linecap:round;stroke-linejoin:round;stroke-miterlimit:4;stroke-dasharray:none;stroke-opacity:1"
       d="M 135.99999,214.07643 L 144.57142,205.505 L 144.57142,188.36214 L 144.57142,179.79071 L 135.99999,171.21929 L 127.42856,188.36214 Z"
       class="calvin-ear-left-inner"
       inkscape:connector-curvature="0"
       sodipodi:nodetypes="ccccccc"
       id="path3415" />
  </g>
  <g
     inkscape:groupmode="layer"
     id="layer7"
     inkscape:label="neutral"
     style="display:inline"
     sodipodi:insensitive="true">
    <path
       id="path3920"
       style="display:inline;opacity:1;fill:#ffc107;fill-opacity:1;stroke:none;stroke-width:2;stroke-linecap:round;stroke-linejoin:round;stroke-miterlimit:4;stroke-dasharray:none;stroke-opacity:1"
       d="M 367.42856,204.93357 L 350.28571,256.36214 L 324.57142,282.07642 L 303.14285,303.50499 L 281.71428,312.07642 L 230.28571,312.07642 L 208.85714,303.50499 L 187.42857,282.07642 L 161.71429,252.07642 L 144.57143,204.93361 Z"
       class="calvin-head"
       inkscape:connector-curvature="0"
       sodipodi:nodetypes="ccccccccccc" />
    <path
       style="display:inline;opacity:1;fill:#ff9800;fill-opacity:1;stroke:none;stroke-width:8;stroke-linecap:round;stroke-linejoin:round;stroke-miterlimit:4;stroke-dasharray:none;stroke-opacity:1"
       d="M 220,268 L 216,256 L 240,268 L 272,268 L 296,256 L 292,268 L 268,280 L 244,280 Z"
       class="calvin-lips"
       inkscape:connector-curvature="0"
       sodipodi:nodetypes="ccccccccc"
       id="path3922" />
  </g>
  <g
     inkscape:groupmode="layer"
     id="layer1"
     inkscape:label="small"
     style="display:none"
     sodipodi:insensitive="true">
    <path
       sodipodi:nodetypes="ccccccccccc"
       inkscape:connector-curvature="0"
       class="calvin-head"
       d="M 367.42856,204.93357 L 350.28571,256.36214 L 324.57142,282.07642 L 303.14285,303.50499 L 281.71428,312.07642 L 230.28571,312.07642 L 208.85714,303.50499 L 187.42857,282.07642 L 161.71429,252.07642 L 144.57143,204.93361 Z"
       style="opacity:1;fill:#ffc107;fill-opacity:1;stroke:none;stroke-width:2;stroke-linecap:round;stroke-linejoin:round;stroke-miterlimit:4;stroke-dasharray:none;stroke-opacity:1"
       id="path3611" />
    <path
       id="path3627"
       sodipodi:nodetypes="ccccccccc"
       inkscape:connector-curvature="0"
       class="calvin-lips"
       d="M 224,268 L 220,256 L 240,260 L 272,260 L 292,256 L 288,268 L 268,280 L 244,280 Z"
       style="opacity:1;fill:#263238;fill-opacity:1;stroke:none;stroke-width:8;stroke-linecap:round;stroke-linejoin:round;stroke-miterlimit:4;stroke-dasharray:none;stroke-opacity:1" />
  </g>
  <g
     inkscape:groupmode="layer"
     id="layer2"
     inkscape:label="medium"
     style="display:none"
     sodipodi:insensitive="true">
    <path
       id="path4427"
       style="opacity:1;fill:#ffc107;fill-opacity:1;stroke:none;stroke-width:2;stroke-linecap:round;stroke-linejoin:round;stroke-miterlimit:4;stroke-dasharray:none;stroke-opacity:1"
       d="M 367.4286,204.57139 L 350.2857,255.99996 L 324.5714,281.71424 L 303.1428,303.14282 L 281.7143,311.71424 L 230.2857,311.71424 L 208.8571,303.14282 L 187.4286,281.71424 L 161.7143,251.71424 L 144.5714,204.57143 Z"
       class="calvin-head"
       inkscape:connector-curvature="0"
       sodipodi:nodetypes="ccccccccccc" />
    <path
       style="opacity:1;fill:#263238;fill-opacity:1;stroke:none;stroke-width:8;stroke-linecap:round;stroke-linejoin:round;stroke-miterlimit:4;stroke-dasharray:none;stroke-opacity:1"
       d="M 196,255.63782 L 200,247.63782 L 240,251.63782 L 272,251.63782 L 312,247.63782 L 316,255.63782 L 280,283.63783 L 232,283.63783 Z"
       class="calvin-lips"
       inkscape:connector-curvature="0"
       sodipodi:nodetypes="ccccccccc"
       id="path4323" />
  </g>
  <g
     inkscape:groupmode="layer"
     id="layer3"
     inkscape:label="large"
     style="display:none"
     sodipodi:insensitive="true">
    <path
       id="path4245"
       style="opacity:1;fill:#ffc107;fill-opacity:1;stroke:none;stroke-width:2;stroke-linecap:round;stroke-linejoin:round;stroke-miterlimit:4;stroke-dasharray:none;stroke-opacity:1"
       d="M 367.42856,204.57139 L 350.28571,255.99996 L 324.57142,281.71424 L 303.14285,319.14282 L 281.71428,327.71424 L 230.28571,327.71424 L 208.85714,319.14282 L 187.42857,281.71424 L 161.71429,251.71424 L 144.57143,204.57143 Z"
       class="calvin-head"
       inkscape:connector-curvature="0"
       sodipodi:nodetypes="ccccccccccc" />
    <path
       style="opacity:1;fill:#263238;fill-opacity:1;stroke:none;stroke-width:8;stroke-linecap:round;stroke-linejoin:round;stroke-miterlimit:4;stroke-dasharray:none;stroke-opacity:1"
       d="M 212,255.63782 L 216,247.63782 L 240,251.63782 L 272,251.63782 L 296,247.63782 L 300,255.63782 L 272,299.63783 L 240,299.63783 Z"
       class="calvin-lips"
       inkscape:connector-curvature="0"
       sodipodi:nodetypes="ccccccccc"
       id="path4319" />
  </g>
  <g
     inkscape:groupmode="layer"
     id="layer4"
     inkscape:label="small-rounded"
     style="display:none"
     sodipodi:insensitive="true">
    <path
       id="path4381"
       style="opacity:1;fill:#ffc107;fill-opacity:1;stroke:none;stroke-width:2;stroke-linecap:round;stroke-linejoin:round;stroke-miterlimit:4;stroke-dasharray:none;stroke-opacity:1"
       d="M 367.4286,204.5714 L 350.2857,255.99997 L 316.5714,281.71425 L 303.1428,303.14282 L 281.7143,311.71425 L 230.2857,311.71425 L 208.8571,303.14282 L 195.4286,281.71425 L 161.7143,251.71425 L 144.5714,204.57144 Z"
       class="calvin-head"
       inkscape:connector-curvature="0"
       sodipodi:nodetypes="ccccccccccc" />
    <path
       style="opacity:1;fill:#263238;fill-opacity:1;stroke:none;stroke-width:8;stroke-linecap:round;stroke-linejoin:round;stroke-miterlimit:4;stroke-dasharray:none;stroke-opacity:1"
       d="M 248,267.63783 L 248,263.63783 L 256,255.63783 L 264,255.63783 L 272,263.63783 L 272,267.63783 L 264,279.63783 L 256,279.63783 Z"
       class="calvin-lips"
       inkscape:connector-curvature="0"
       sodipodi:nodetypes="ccccccccc"
       id="path4399" />
  </g>
  <g
     inkscape:groupmode="layer"
     id="layer5"
     inkscape:label="medium-rounded"
     style="display:none"
     sodipodi:insensitive="true">
    <path
       sodipodi:nodetypes="ccccccccccc"
       inkscape:connector-curvature="0"
       class="calvin-head"
       d="M 367.42856,204.5714 L 350.28571,255.99997 L 320.57142,281.71425 L 307.14285,303.14282 L 281.71428,311.71425 L 230.28571,311.71425 L 204.85714,303.14282 L 191.42857,281.71425 L 161.71429,251.71425 L 144.57143,204.57144 Z"
       style="opacity:1;fill:#ffc107;fill-opacity:1;stroke:none;stroke-width:2;stroke-linecap:round;stroke-linejoin:round;stroke-miterlimit:4;stroke-dasharray:none;stroke-opacity:1"
       id="path4357" />
    <path
       id="path5437"
       sodipodi:nodetypes="ccccccccc"
       inkscape:connector-curvature="0"
       class="calvin-lips"
       d="M 236,271.63783 L 236,259.63783 L 244,247.63783 L 268,247.63783 L 276,259.63783 L 276,271.63783 L 268,283.63783 L 244,283.63783 Z"
       style="opacity:1;fill:#263238;fill-opacity:1;stroke:none;stroke-width:8;stroke-linecap:round;stroke-linejoin:round;stroke-miterlimit:4;stroke-dasharray:none;stroke-opacity:1" />
  </g>
  <g
     inkscape:groupmode="layer"
     id="layer6"
     inkscape:label="large-rounded"
     style="display:none"
     sodipodi:insensitive="true">
    <path
       id="path4331"
       style="opacity:1;fill:#ffc107;fill-opacity:1;stroke:none;stroke-width:2;stroke-linecap:round;stroke-linejoin:round;stroke-miterlimit:4;stroke-dasharray:none;stroke-opacity:1"
       d="M 367.42856,204.5714 L 350.28571,255.99997 L 324.57142,281.71425 L 303.14285,315.14282 L 281.71428,323.71425 L 230.28571,323.71425 L 208.85714,315.14282 L 187.42857,281.71425 L 161.71429,251.71425 L 144.57143,204.57144 Z"
       class="calvin-head"
       inkscape:connector-curvature="0"
       sodipodi:nodetypes="ccccccccccc" />
    <path
       id="path4349"
       sodipodi:nodetypes="ccccccccc"
       inkscape:connector-curvature="0"
       class="calvin-lips"
       d="M 232,275.63783 L 232,255.63783 L 244,235.63783 L 268,235.63783 L 280,255.63783 L 280,275.63783 L 268,295.63783 L 244,295.63783 Z"
       style="opacity:1;fill:#263238;fill-opacity:1;stroke:none;stroke-width:8;stroke-linecap:round;stroke-linejoin:round;stroke-miterlimit:4;stroke-dasharray:none;stroke-opacity:1" />
  </g>
</svg>
