<?xml version="1.0" encoding="UTF-8" standalone="no"?>
<svg
   xmlns:dc="http://purl.org/dc/elements/1.1/"
   xmlns:cc="http://creativecommons.org/ns#"
   xmlns:rdf="http://www.w3.org/1999/02/22-rdf-syntax-ns#"
   xmlns:svg="http://www.w3.org/2000/svg"
   xmlns="http://www.w3.org/2000/svg"
   xmlns:sodipodi="http://sodipodi.sourceforge.net/DTD/sodipodi-0.dtd"
   xmlns:inkscape="http://www.inkscape.org/namespaces/inkscape"
   width="440"
   height="380"
   viewBox="0 0 440.00002 379.99999"
   id="svg2"
   version="1.1"
   inkscape:version="0.91 r13725"
   sodipodi:docname="vocal-tract-plain.svg">
  <sodipodi:namedview
     pagecolor="#ffffff"
     bordercolor="#666666"
     borderopacity="1"
     objecttolerance="10"
     gridtolerance="10"
     guidetolerance="10"
     inkscape:pageopacity="0"
     inkscape:pageshadow="2"
     inkscape:window-width="1366"
     inkscape:window-height="719"
     id="namedview3350"
     showgrid="false"
     inkscape:zoom="1.5135684"
     inkscape:cx="200.89611"
     inkscape:cy="103.36079"
     inkscape:window-x="0"
     inkscape:window-y="25"
     inkscape:window-maximized="1"
     inkscape:current-layer="svg2"
     showguides="false" />
  <defs
     id="defs4" />
  <metadata
     id="metadata7">
    <rdf:RDF>
      <cc:Work
         rdf:about="">
        <dc:format>image/svg+xml</dc:format>
        <dc:type
           rdf:resource="http://purl.org/dc/dcmitype/StillImage" />
        <dc:title />
      </cc:Work>
    </rdf:RDF>
  </metadata>
  <path
     id="tongue"
     d="M 181.85157,178.74041 C 158.27697,176.80074 126.72353,189.86551 122.75573,199.17607 C 118.78794,208.48663 139.50893,212.78525 135.9412,218.60315 C 132.37347,224.42104 124.67994,222.74841 122.31755,231.14775 C 119.95517,239.54707 134.97141,263.16443 133.42842,273.81723 C 131.88543,284.47003 126.39865,288.0043 118.56573,289.857 C 130.22735,288.65538 156.09176,290.77064 167.81223,291.3477 C 192.49309,292.56289 193.97539,288.20988 209.7242,295.68477 C 225.47301,303.15966 248.4565,327.54929 264.01181,327.36266 C 255.72822,310.23363 272.57106,273.12165 266.20165,250.47382 C 259.83224,227.826 245.83511,211.87852 226.98388,198.74704 C 208.13265,185.61556 205.42617,180.68008 181.85157,178.74041 Z"
     style="opacity:1;fill:#263238;fill-opacity:1;stroke:none;stroke-width:1;stroke-linecap:round;stroke-linejoin:round;stroke-miterlimit:4;stroke-dasharray:none;stroke-opacity:1"
     inkscape:connector-curvature="0"
     sodipodi:nodetypes="ssssscsscsss" />
  <path
     id="gum-lower"
     d="M 110.15935,225.57136 C 105.92429,225.57136 101.30864,227.08084 99.21193,230.62378 C 97.11522,234.16672 99.81988,233.38676 100.44044,243.69409 C 101.06101,254.00142 93.37119,278.81721 102.68654,287.01831 C 113.13609,292.41446 130.91918,292.45197 134.15334,280.60229 C 138.25379,263.51276 124.14824,229.52567 121.06349,226.90112 C 117.97874,224.27657 114.39441,225.57136 110.15935,225.57136 Z"
     style="opacity:1;fill:#9e9e9e;fill-opacity:1;stroke:none;stroke-width:1;stroke-linecap:round;stroke-linejoin:round;stroke-miterlimit:4;stroke-dasharray:none;stroke-opacity:1"
     inkscape:connector-curvature="0" />
  <path
     inkscape:connector-curvature="0"
     style="opacity:1;fill:#263238;fill-opacity:1;stroke:none;stroke-width:4;stroke-linecap:round;stroke-linejoin:round;stroke-miterlimit:4;stroke-dasharray:none;stroke-opacity:1"
     d="M 312.51525,347.89838 C 312.65748,360.59895 302.51108,350.01851 287.88287,350.01851 C 273.25466,350.01851 257.72529,360.33918 257.3962,347.89838 C 257.0671,335.45758 273.25468,345.77826 287.88287,345.77826 C 302.51104,345.77826 312.37304,335.19781 312.51525,347.89838 Z"
     id="larynx"
     sodipodi:nodetypes="zszsz" />
  <path
     id="jaw"
     d="M 87.069656,197.98503 C 96.12123,200.41659 98.76058,209.44248 100.04992,219.63412 C 101.33926,229.82576 100.42489,228.14731 101.23658,240.24702 C 102.04826,252.34673 94.37888,269.14613 101.5251,283.11929 C 108.67132,297.09245 138.99866,284.07818 162.11646,283.17324 C 185.23426,282.2683 209.29148,286.95762 223.57616,292.27298 C 237.86085,297.58834 253.78526,305.65393 261.40402,305.14145 C 269.02277,304.62897 270.42525,300.46948 273.46616,294.46556 C 276.94855,287.59 279.06407,281.05429 282.7974,282.65668 C 285.8595,283.97098 284.61184,292.32064 282.46324,296.67476 C 279.40452,302.87324 273.12271,310.18916 273.01911,321.64352 C 272.91551,333.09788 270.95093,347.00765 281.35812,367.18234 C 259.4812,367.20059 263.75984,367.18234 244.32054,367.18234 C 249.16598,341.38414 223.87844,313.76994 214.34537,308.28366 C 204.8123,302.79738 182.29783,299.61939 164.05094,300.62563 C 145.80405,301.63187 100.27173,312.36185 86.371469,297.8629 C 72.471207,283.36394 81.830461,264.84839 82.006032,253.33848 C 82.181604,241.82858 79.566966,233.66052 77.556639,228.58313 C 75.546312,223.50574 67.330617,218.00133 68.741352,209.99032 C 70.152087,201.97931 78.018084,195.55346 87.069656,197.98503 Z"
     style="opacity:1;fill:#607d8b;fill-opacity:1;stroke:none;stroke-width:1;stroke-linecap:round;stroke-linejoin:round;stroke-miterlimit:4;stroke-dasharray:none;stroke-opacity:1"
     inkscape:connector-curvature="0"
     sodipodi:nodetypes="sssssszssssccsssssss" />
  <path
     id="esophagus"
     d="M 295.49355,328.0153 C 293.90589,322.49933 292.47755,314.36775 296.41156,312.96691 C 300.34557,311.56608 304.45854,317.30224 307.85695,324.80977 C 311.25536,332.31731 313.07243,348.52842 323.64363,367.7815 C 313.51502,367.75975 315.96319,367.81191 307.32502,367.7815 C 304.52334,349.02241 297.42356,334.72073 295.49355,328.0153 Z"
     style="opacity:1;fill:#607d8b;fill-opacity:1;stroke:none;stroke-width:1;stroke-linecap:round;stroke-linejoin:round;stroke-miterlimit:4;stroke-dasharray:none;stroke-opacity:1"
     inkscape:connector-curvature="0"
     sodipodi:nodetypes="sssccs" />
  <path
     id="velum"
     d="M 175.87956,120.29609 C 180.26203,127.24682 233.85961,138.05178 243.3225,141.46755 C 252.78539,144.88331 260.46358,150.19509 264.73017,161.65071 C 268.99677,173.10633 268.33866,187.41604 273.43988,187.46651 C 278.5411,187.51698 279.88837,173.84804 280.40807,161.98362 C 280.92778,150.1192 277.7249,136.09281 270.46535,132.11822 C 263.2058,128.14363 256.92173,123.19652 238.05583,121.97581 C 219.18993,120.7551 171.49709,113.34536 175.87956,120.29609 Z"
     style="display:inline;fill:#263238;fill-rule:evenodd;stroke:none;stroke-width:1px;stroke-linecap:round;stroke-linejoin:round;stroke-opacity:1"
     inkscape:connector-curvature="0"
     sodipodi:nodetypes="szzzzzss" />
  <path
     id="head"
     d="M 41.015616,117.74273 C 40.212132,106.29978 37.119697,100.31161 44.098687,89.777756 C 57.242978,69.938177 80.796986,50.033616 116.08668,39.831491 C 151.37637,29.629365 185.17058,37.981298 204.9723,43.091353 C 224.77402,48.201407 227.86084,81.033341 246.46863,91.015926 C 265.07643,100.99849 271.27901,108.90434 293.97875,138.28215 C 316.67848,167.65993 291.25331,196.53651 304.65407,245.33673 C 314.60285,281.4147 345.67391,367.38206 345.67391,367.38206 L 396.37296,367.38206 C 365.76732,280.17686 343.62607,228.81904 380.84696,181.08774 C 418.06785,133.35644 429.32593,65.888356 392.16109,18.104802 L 81.21592,18.104802 C 67.266564,35.610545 15.556646,96.97177 17.030897,115.13553 C 18.505148,133.29928 41.8191,129.18568 41.015616,117.74273 Z"
     style="display:inline;fill:#607d8b;fill-rule:evenodd;stroke:none;stroke-width:1px;stroke-linecap:round;stroke-linejoin:round;stroke-opacity:1"
     inkscape:connector-curvature="0"
     sodipodi:nodetypes="sssssscccsccss" />
  <path
     style="fill:#cfd8dc;fill-rule:evenodd;stroke:none;stroke-width:1px;stroke-linecap:butt;stroke-linejoin:miter;stroke-opacity:1"
     d="M 118.621,261.7383 C 115.25513,263.79903 102.69686,235.23072 101.60214,229.48999 C 100.50741,223.74928 104.55138,198.98546 108.96946,199.25002 C 113.38758,199.5146 118.79318,218.68817 119.86549,224.59646 C 120.93779,230.50476 121.98687,259.67757 118.621,261.7383 Z"
     id="teeth-lower"
     inkscape:connector-curvature="0" />
  <path
     id="lip-upper"
     d="M 95.74126,115.29484 C 92.809,112.88499 75.888679,118.49239 65.955207,120.6994 C 54.539624,123.23569 51.110594,133.55483 58.945565,138.0833 C 66.780547,142.61179 68.052303,141.32211 71.408873,145.31037 C 74.765443,149.29863 75.474562,150.11927 74.898515,154.82391 C 74.322467,159.52856 73.083857,164.26173 71.44079,169.37453 C 69.797722,174.48734 66.106103,177.80348 66.277415,184.71908 C 66.44873,191.6347 72.901548,198.37674 81.358932,198.70207 C 89.816317,199.02739 95.41835,190.91728 95.46014,185.50124 C 95.49848,180.53278 96.07771,171.22269 94.74473,162.3219 C 93.41175,153.42111 97.81497,152.64283 97.84924,138.82353 C 97.87897,126.83219 98.67352,117.70469 95.74126,115.29484 Z"
     style="display:inline;fill:#607d8b;fill-rule:evenodd;stroke:none;stroke-width:1px;stroke-linecap:round;stroke-linejoin:round;stroke-opacity:1"
     inkscape:connector-curvature="0"
     sodipodi:nodetypes="ssssssssssss" />
  <path
     style="display:inline;fill:#9e9e9e;fill-rule:evenodd;stroke:none;stroke-width:1px;stroke-linecap:round;stroke-linejoin:round;stroke-opacity:1"
     d="M 94.90038,162.90361 C 98.0741,173.32221 113.18904,173.27818 116.96866,163.95027 C 120.74828,154.62237 123.2503,148.96921 129.84686,142.9969 C 139.20847,134.52121 145.70478,134.08799 160.58605,129.43473 C 174.8806,124.96494 197.58921,129.00355 212.39092,130.21909 C 227.19263,131.43463 254.42313,133.57791 253.33373,128.14015 C 252.24433,122.70239 226.1022,120.69285 210.50172,118.83703 C 199.20734,117.47768 187.71774,116.23006 171.09,115.43913 C 141.83678,114.04765 99.49242,110.98112 96.01862,114.99199 C 92.54482,119.00286 91.726661,152.48501 94.90038,162.90361 Z"
     id="gum-upper"
     inkscape:connector-curvature="0"
     sodipodi:nodetypes="sssssscsss" />
  <path
     id="teeth-upper"
     d="M 111.75352,130.2253 C 108.32369,128.27287 96.68221,157.22689 95.77098,162.99958 C 94.85975,168.77226 99.69082,193.39464 104.09825,192.9894 C 108.50567,192.58417 113.29752,173.24808 114.181,167.30862 C 115.06448,161.36914 115.18336,132.17773 111.75352,130.2253 Z"
     style="fill:#cfd8dc;fill-rule:evenodd;stroke:none;stroke-width:1px;stroke-linecap:butt;stroke-linejoin:miter;stroke-opacity:1"
     inkscape:connector-curvature="0" />
</svg>
