<?xml version="1.0" encoding="UTF-8" standalone="no"?>
<svg
   xmlns:dc="http://purl.org/dc/elements/1.1/"
   xmlns:cc="http://creativecommons.org/ns#"
   xmlns:rdf="http://www.w3.org/1999/02/22-rdf-syntax-ns#"
   xmlns:svg="http://www.w3.org/2000/svg"
   xmlns="http://www.w3.org/2000/svg"
   width="440"
   height="380"
   viewBox="0 0 440.00002 379.99999"
   id="svg2"
   version="1.1">
  <defs
     id="defs4" />
  <metadata
     id="metadata7">
    <rdf:RDF>
      <cc:Work
         rdf:about="">
        <dc:format>image/svg+xml</dc:format>
        <dc:type
           rdf:resource="http://purl.org/dc/dcmitype/StillImage" />
        <dc:title></dc:title>
      </cc:Work>
    </rdf:RDF>
  </metadata>
  <path
     id="tongue"
     d="M 181.85157,182.74041 C 158.27697,180.80074 126.72353,193.86551 122.75573,203.17607 C 118.78794,212.48663 139.50893,216.78525 135.9412,222.60315 C 132.37347,228.42104 124.67994,226.74841 122.31755,235.14775 C 119.95517,243.54707 134.97141,267.16443 133.42842,277.81723 C 131.88543,288.47003 126.39865,292.0043 118.56573,293.857 C 130.22735,292.65538 156.09176,294.77064 167.81223,295.3477 C 192.49309,296.56289 193.97539,302.44327 209.7242,309.91816 C 225.47301,317.39305 248.4565,331.54929 264.01181,331.36266 C 255.72822,314.23363 272.57106,277.12165 266.20165,254.47382 C 259.83224,231.826 245.83511,215.87852 226.98388,202.74704 C 208.13265,189.61556 205.42617,184.68008 181.85157,182.74041 Z"
     style="opacity:1;fill:#263238;fill-opacity:1;stroke:none;stroke-width:1;stroke-linecap:round;stroke-linejoin:round;stroke-miterlimit:4;stroke-dasharray:none;stroke-opacity:1" />
  <path
     id="lowerGum"
     d="M 110.15935,229.57136 C 105.92429,229.57136 101.30864,231.08084 99.21193,234.62378 C 97.11522,238.16672 99.81988,237.38676 100.44044,247.69409 C 101.06101,258.00142 93.37119,282.81721 102.68654,291.01831 C 113.13609,296.41446 130.91918,296.45197 134.15334,284.60229 C 138.25379,267.51276 124.14824,233.52567 121.06349,230.90112 C 117.97874,228.27657 114.39441,229.57136 110.15935,229.57136 Z"
     style="opacity:1;fill:#9e9e9e;fill-opacity:1;stroke:none;stroke-width:1;stroke-linecap:round;stroke-linejoin:round;stroke-miterlimit:4;stroke-dasharray:none;stroke-opacity:1" />
  <path
     id="jaw"
     d="M 87.069656,201.98503 C 96.12123,204.41659 98.76058,213.44248 100.04992,223.63412 C 101.33926,233.82576 100.42489,232.14731 101.23658,244.24702 C 102.04826,256.34673 94.37888,273.14613 101.5251,287.11929 C 108.67132,301.09245 138.99866,288.07818 162.11646,287.17324 C 185.23426,286.2683 209.29148,298.95762 223.57616,304.27298 C 237.86085,309.58834 257.74576,331.58643 264.81123,324.65471 C 271.8767,317.72299 274.53214,312.47122 278.81958,306.06667 C 283.10701,299.66212 286.95955,294.64451 290.52045,296.60036 C 294.08135,298.55621 290.50926,304.18286 287.11007,310.20137 C 283.71088,316.21988 273.12271,330.18916 273.01911,341.64352 C 272.91551,353.09788 270.95093,351.00765 281.35812,371.18234 C 259.4812,371.20059 263.75984,371.18234 244.32054,371.18234 C 249.16598,345.38414 223.87844,325.76994 214.34537,320.28366 C 204.8123,314.79738 182.29783,303.61939 164.05094,304.62563 C 145.80405,305.63187 100.27173,316.36185 86.371469,301.8629 C 72.471207,287.36394 81.830461,268.84839 82.006032,257.33848 C 82.181604,245.82858 79.566966,237.66052 77.556639,232.58313 C 75.546312,227.50574 67.330617,222.00133 68.741352,213.99032 C 70.152087,205.97931 78.018084,199.55346 87.069656,201.98503 Z"
     style="opacity:1;fill:#607d8b;fill-opacity:1;stroke:none;stroke-width:1;stroke-linecap:round;stroke-linejoin:round;stroke-miterlimit:4;stroke-dasharray:none;stroke-opacity:1" />
  <path
     id="esophagealWall"
     d="M 301.07708,328.36051 C 300.18269,322.69071 300.47755,318.36775 304.41156,316.96691 C 308.34557,315.56608 311.42291,317.64745 314.82132,325.15498 C 318.21973,332.66252 325.07243,352.52842 335.64363,371.7815 C 325.51502,371.75975 327.96319,371.81191 319.32502,371.7815 C 316.52334,353.02241 301.97147,334.03031 301.07708,328.36051 Z"
     style="opacity:1;fill:#607d8b;fill-opacity:1;stroke:none;stroke-width:1;stroke-linecap:round;stroke-linejoin:round;stroke-miterlimit:4;stroke-dasharray:none;stroke-opacity:1" />
  <path
     id="velum"
     d="M 175.87956,112.29609 C 180.26203,119.24682 241.00175,128.35127 248.08392,134.48785 C 255.1661,140.62442 260.12348,145.5961 264.39007,157.05172 C 268.65667,168.50734 269.78208,179.43032 273.43988,179.46651 C 279.98451,179.53126 279.88837,165.84804 280.40807,153.98362 C 280.92778,142.1192 277.7249,128.09281 270.46535,124.11822 C 263.20581,120.14363 256.92173,115.19652 238.05583,113.97581 C 219.18993,112.7551 171.49709,105.34536 175.87956,112.29609 Z"
     style="display:inline;fill:#263238;fill-rule:evenodd;stroke:none;stroke-width:1px;stroke-linecap:round;stroke-linejoin:round;stroke-opacity:1" />
  <path
     id="upperHead"
     d="M 37.015616,109.74273 C 36.212132,98.299775 33.119697,92.311605 40.098687,81.777755 C 53.242978,61.938176 76.796986,40.720096 112.08668,30.517971 C 147.37637,20.315845 181.17058,28.667778 200.9723,33.777833 C 220.77402,38.887887 223.86084,73.03334 242.46863,83.015925 C 261.07643,92.998485 267.27901,100.90434 289.97875,130.28215 C 312.67848,159.65993 295.25331,200.53651 308.65407,249.33673 C 318.60285,285.4147 349.67391,371.38206 349.67391,371.38206 L 403,371.38206 C 372.39436,284.17686 350.25311,232.81904 387.474,185.08774 C 424.69489,137.35644 435.95297,56.574836 398.78813,8.7912827 L 77.21592,8.7912827 C 63.266564,26.297025 11.556646,88.971765 13.030897,107.13553 C 14.505148,125.29928 37.8191,121.18568 37.015616,109.74273 Z"
     style="display:inline;fill:#607d8b;fill-rule:evenodd;stroke:none;stroke-width:1px;stroke-linecap:round;stroke-linejoin:round;stroke-opacity:1" />
  <path
     style="fill:#cfd8dc;fill-rule:evenodd;stroke:none;stroke-width:1px;stroke-linecap:butt;stroke-linejoin:miter;stroke-opacity:1"
     d="M 118.621,265.7383 C 115.25513,267.79903 102.69686,239.23072 101.60214,233.48999 C 100.50741,227.74928 104.55138,202.98546 108.96946,203.25002 C 113.38758,203.5146 118.79318,222.68817 119.86549,228.59646 C 120.93779,234.50476 121.98687,263.67757 118.621,265.7383 Z"
     id="lowerTeeth" />
  <path
     id="upperLip"
     d="M 95.74126,107.29484 C 92.809,104.88499 71.888679,110.49239 61.955207,112.6994 C 50.539624,115.23569 47.110594,125.55483 54.945565,130.0833 C 62.780547,134.61179 68.052303,133.32211 71.408873,137.31037 C 74.765443,141.29863 75.474562,146.11927 74.898515,150.82391 C 74.322467,155.52856 73.083857,168.26173 71.44079,173.37453 C 69.797722,178.48734 66.106103,181.80348 66.277415,188.71908 C 66.44873,195.6347 72.901548,202.37674 81.358932,202.70207 C 89.816317,203.02739 95.41835,194.91728 95.46014,189.50124 C 95.49848,184.53278 96.07771,171.22269 94.74473,162.3219 C 93.41175,153.42111 97.81497,144.64283 97.84924,130.82353 C 97.87897,118.83219 98.67352,109.70469 95.74126,107.29484 Z"
     style="display:inline;fill:#607d8b;fill-rule:evenodd;stroke:none;stroke-width:1px;stroke-linecap:round;stroke-linejoin:round;stroke-opacity:1" />
  <path
     style="display:inline;fill:#9e9e9e;fill-rule:evenodd;stroke:none;stroke-width:1px;stroke-linecap:round;stroke-linejoin:round;stroke-opacity:1"
     d="M 94.90038,166.90361 C 98.0741,177.32221 113.18904,177.27818 116.96866,167.95027 C 120.74828,158.62237 124.68893,152.95779 132.24458,142.19005 C 139.49825,131.85267 145.70478,126.08799 160.58605,121.43473 C 174.8806,116.96494 197.58921,121.00355 212.39092,122.21909 C 227.19263,123.43463 254.42313,125.57791 253.33373,120.14015 C 252.24433,114.70239 226.1022,112.69285 210.50172,110.83703 C 199.20734,109.47768 187.71774,108.23006 171.09,107.43913 C 141.83678,106.04765 99.49242,102.98112 96.01862,106.99199 C 92.54482,111.00286 91.726661,156.48501 94.90038,166.90361 Z"
     id="pallette" />
  <path
     id="upperTeeth"
     d="M 111.75352,134.2253 C 108.32369,132.27287 96.68221,161.22689 95.77098,166.99958 C 94.85975,172.77226 99.69082,197.39464 104.09825,196.9894 C 108.50567,196.58417 113.29752,177.24808 114.181,171.30862 C 115.06448,165.36914 115.18336,136.17773 111.75352,134.2253 Z"
     style="fill:#cfd8dc;fill-rule:evenodd;stroke:none;stroke-width:1px;stroke-linecap:butt;stroke-linejoin:miter;stroke-opacity:1" />
  <path
     id="larynx"
     d="M 311.72969,351.72578 C 311.7297,355.10583 304.23602,357.84591 293.27871,357.84591 C 282.3214,357.84591 273.43876,355.10583 273.43877,351.72578 C 273.43878,348.34573 282.32141,345.60566 293.27871,345.60566 C 304.236,345.60566 311.72968,348.34573 311.72969,351.72578 Z"
     style="opacity:1;fill:#263238;fill-opacity:1;stroke:none;stroke-width:4;stroke-linecap:round;stroke-linejoin:round;stroke-miterlimit:4;stroke-dasharray:none;stroke-opacity:1" />
</svg>
