<?xml version="1.0" encoding="UTF-8" standalone="no"?>
<svg id="svg2" xmlns:rdf="http://www.w3.org/1999/02/22-rdf-syntax-ns#" xmlns="http://www.w3.org/2000/svg" height="100%" version="1.1" xmlns:cc="http://creativecommons.org/ns#" xmlns:dc="http://purl.org/dc/elements/1.1/" viewBox="0 0 440.00002 379.99999">
<metadata id="metadata3370">
<rdf:RDF>
<cc:Work rdf:about="">
<dc:format>image/svg+xml</dc:format>
<dc:type rdf:resource="http://purl.org/dc/dcmitype/StillImage"/>
<dc:title/>
</cc:Work>
</rdf:RDF>
</metadata>
<g id="layer2" style="display:none">
<path id="gum-lower" svg-label="gum-lower" d="m110.47 224.91c-4.24 0-8.86 1.51-10.952 5.05-2.097 3.55.612 2.77 1.232 13.07.62 10.31-7.073 35.13 2.24 43.33 10.45 5.39 28.24 5.43 31.47-6.42 4.1-17.09-10.01-51.07-13.09-53.7-3.09-2.62-6.67-1.33-10.9-1.33z" style="fill:#9e9e9e" class="gum"/>
<path id="larynx"  d="m289.68 346.5c-10.38 0-18.8 2.39-18.8 5.35s8.42 5.36 18.8 5.36 18.8-2.4 18.8-5.36c0-2.95-8.42-5.35-18.8-5.35z"/>
<path id="lip-lower" style="fill:#607d8b" d="m87.376 197.32c9.051 2.44 11.691 11.46 12.984 21.65 1.29 10.2.37 8.52 1.18 20.62s-6.855 28.9.29 42.87c7.15 13.97 37.47.96 60.59.05 23.12-.90 37.3 3.12 51.24 7.59 13.93 4.47 42.05 6.72 49.77 5.45 7.72-1.26 9.58-3.09 13.35-7.39 3.77-4.31 6.44-7.13 8.68-5.91 2.23 1.22 1.07 7.2-2.69 13.76-3.76 6.57-9.34 13.52-9.44 24.97-.11 11.46.45 24.7 4.33 45.54-21.87.02-13.59 0-33.03 0 6.5-36.76-23.44-55.74-32.97-61.22-9.53-5.49-36.7-6.34-54.95-5.33-18.24 1-56.13 11.73-70.033-2.77-13.9-14.5-4.541-33.01-4.365-44.52s-2.439-19.68-4.449-24.76c-2.011-5.07-10.226-10.58-8.816-18.59 1.411-8.01 9.277-14.44 18.329-12.01z" svg-label="lip-lower" class="head"/>
<path id="esophagus" style="fill:#607d8b" d="m295.8 327.35c-1.59-5.51-3.02-13.64.92-15.04 3.93-1.4 8.04 4.33 11.44 11.84s5.22 23.72 15.79 42.97c-10.13-.02-7.68.03-16.32 0-2.8-18.76-9.9-33.06-11.83-39.77z" class="head" svg-label="esohagus"/>
<path id="velum" style="fill-rule:evenodd;display:inline;fill:#263238" d="m207.77 123.64c-.52 5.77 28.74 8.87 35.69 10.44 6.96 1.58 12.2 4.84 19.16 14.3 6.96 9.45 9.18 21.14 13.99 19.44 4.8-1.71 4.17-17.04-1.02-26.3-5.2-9.25-17.36-18.08-37.23-20.2-19.87-2.13-30.08-3.44-30.59 2.32z" svg-label="velum" class="velum"/>
<path id="head" style="fill-rule:evenodd;display:inline;fill:#607d8b" d="m41.322 117.08c-.804-11.44-3.896-17.429 3.083-27.963 13.144-19.839 36.698-39.744 71.985-49.946 35.29-10.202 69.09-1.85 88.89 3.26s22.89 37.942 41.49 47.924c18.61 9.985 21.81 20.895 44.51 50.275s.28 55.25 13.68 104.05c9.95 36.07 41.02 122.04 41.02 122.04h50.7c-30.61-87.2-52.75-138.56-15.53-186.29s48.48-115.2 11.32-162.99l-310.95.004c-13.947 17.506-65.657 78.867-64.183 97.026 1.474 18.17 24.788 14.06 23.985 2.61z" class="head" svg-label="head"/>
<path id="teeth-lower" svg-label="teeth-lower" d="m118.93 261.08c-3.37 2.06-15.93-26.51-17.02-32.25-1.1-5.74 2.95-30.51 7.37-30.24 4.41.26 9.82 19.44 10.89 25.35 1.07 5.9 2.12 35.08-1.24 37.14z" style="fill-rule:evenodd;fill:#cfd8dc" class="teeth"/>
<path id="lip-upper" style="fill-rule:evenodd;display:inline;fill:#607d8b" d="m96.047 114.63c-2.932-2.41-19.852 3.2-29.786 5.41-11.415 2.54-14.844 12.85-7.009 17.38s9.106 3.24 12.463 7.23c6.338 7.71 2.76 15.52.032 24.06-1.643 5.12-5.335 8.43-5.164 15.35.172 6.91 6.625 13.66 15.082 13.98 8.457.33 14.059-7.78 14.101-13.2.038-4.97.618-14.28-.715-23.18s3.07-9.68 3.104-23.5c.030-11.99.825-21.12-2.108-23.53z" class="head" svg-label="lip-upper"/>
<path id="gum-upper" style="fill-rule:evenodd;display:inline;fill:#9e9e9e" d="m95.206 162.24c3.174 10.42 18.294 10.38 22.064 1.05 3.78-9.33 6.29-14.98 12.88-20.95 9.36-8.48 15.86-8.91 30.74-13.57 14.3-4.47 37.01-.43 51.81.79 14.8 1.21 42.03 3.36 40.94-2.08s-27.23-7.45-42.83-9.3c-11.3-1.36-22.79-2.61-39.41-3.4-29.26-1.39-71.602-4.46-75.075-.45-3.474 4.01-4.292 37.49-1.119 47.91z" svg-label="palette" class="gum"/>
<path id="teeth-upper" svg-label="teeth-upper" d="m112.06 129.56c-3.43-1.95-15.072 27.01-15.983 32.78s3.92 30.39 8.323 29.99c4.41-.41 9.2-19.74 10.09-25.68.88-5.94 1-35.13-2.43-37.09z" style="fill-rule:evenodd;fill:#cfd8dc" class="teeth"/>
</g>
<g id="" style="display:none">
<path id="tongue" style="fill:#263238" d="m178.01 177.89c-20.98-.13-50.87 11.9-54.59 20.63-3.97 9.31 16.76 13.6 13.19 19.42-3.33 5.43-10.26 4.34-13.08 11.01 4.78 8.84 14.84 36.21 11.29 50.99-1.03 3.77-3.54 6.31-6.81 7.89 11.03-1.7 23.72-4.88 34.77-5.32 23.12-.90 37.3 3.12 51.24 7.59 13.93 4.47 42.05 6.72 49.77 5.45.16-.02.27-.05.42-.08 2.5-15.72 7.63-27.98 2.66-45.66-4.97-17.67-18.92-38.38-39.22-51.72-20.3-13.35-28.66-20.07-49.64-20.2z"/>
</g>
<g id="layer1" style="display:none">
<path id="path5009" d="m154.52 138.86c-28.18 4.57-37.71 40.51-37.03 51.87.67 11.36 22.02 18.06 18.45 23.87-3.33 5.44-10.25 8.34-13.08 15.01 4.78 8.84 14.84 36.21 11.29 50.99-1.02 3.77-3.54 6.31-6.8 7.89 11.03-1.7 23.71-4.88 34.77-5.32 23.11-.90 37.29 3.12 51.23 7.59s42.05 6.72 49.78 5.45c.15-.02.27-.05.41-.08 2.51-15.72 9.63-29.98 4.66-47.66-4.97-17.67-48.6-82.65-60.04-93.41-11.45-10.77-25.46-20.78-53.64-16.2z" style="stroke-linejoin:round;stroke:#4a148c;stroke-linecap:round;display:inline;fill:none"/>
</g>
<g id="layer4" style="display:none">
<path id="path4885" style="stroke-linejoin:round;stroke:#880e4f;stroke-linecap:round;display:inline;fill:none" d="m157.99 158.09c-26.35 8.19-42.71 31.15-36.5 38.64 6.21 7.48 22.02 16.06 18.45 21.87-3.33 5.44-14.25 4.34-17.08 11.01 4.78 8.84 14.84 36.21 11.29 50.99-1.02 3.77-3.54 6.31-6.8 7.89 11.03-1.7 23.71-4.88 34.77-5.32 23.11-.90 37.29 3.12 51.23 7.59s42.05 6.72 49.78 5.45c.15-.02.27-.05.41-.08 2.51-15.72 7.63-27.98 2.66-45.66-4.97-17.67-19.74-43.07-40.04-63.41-20.31-20.35-41.81-37.16-68.17-28.97z"/>
</g>
<g id="layer3" style="display:none">
<path id="tongue-neutral" d="m177.65 169.89c-20.98-.13-50.87 11.9-54.59 20.63-3.97 9.31 16.76 17.6 13.19 23.42-3.33 5.43-10.26 8.34-13.08 15.01 4.78 8.84 14.84 36.21 11.29 50.99-1.03 3.77-3.54 6.31-6.81 7.89 11.03-1.7 23.72-4.88 34.77-5.32 23.12-.90 37.3 3.12 51.24 7.59 13.93 4.47 42.05 6.72 49.77 5.45.16-.02.27-.05.42-.08 2.5-15.72 7.63-27.98 2.66-45.66-4.97-17.67-16.37-36.53-34.47-53.72-18.1-17.2-33.41-26.07-54.39-26.2z" style="stroke-linejoin:round;stroke:#b71c1c;stroke-linecap:round;display:inline;fill:none"/>
</g>
<g id="layer6" style="display:none">
<path id="path4980" style="stroke-linejoin:round;stroke:#1a237e;stroke-linecap:round;display:inline;fill:none" d="m177.65 189.89c-20.98-.13-50.87 7.9-54.59 16.63-3.97 9.31 13.92 6.64 13.19 13.42-.59 5.43-10.26 2.34-13.08 9.01 4.78 8.84 14.84 36.21 11.29 50.99-1.03 3.77-3.54 6.31-6.81 7.89 11.03-1.7 23.72-4.88 34.77-5.32 23.12-.90 37.3 3.12 51.24 7.59 13.93 4.47 42.05 6.72 49.77 5.45.16-.02.27-.05.42-.08 2.5-15.72 6.24-29.92 2.66-45.66-3.59-15.73-14.52-28.32-31.22-39.72-16.7-11.41-36.66-20.07-57.64-20.2z"/>
</g>
<g id="layer7" style="display:none">
<path id="path4986" d="m233.85 151.45c-21.26-3.72-63.72 10.34-67.57 29.9-3.84 19.55 11.74 15.81 7.19 23.42-4.56 7.61-47.48 17.51-50.3 24.18 4.78 8.84 14.84 36.21 11.29 50.99-1.03 3.77-3.54 6.31-6.81 7.89 11.03-1.7 23.72-4.88 34.77-5.32 23.12-.90 37.3 3.12 51.24 7.59 13.93 4.47 42.05 6.72 49.77 5.45.16-.02.27-.05.42-.08 2.46-15.44 10.31-33.34 12.54-50.73l.12-.93c2.06-17.68 6.17-42.97.39-54.36s-21.79-34.28-43.05-38z" style="stroke-linejoin:round;stroke:#004d40;stroke-linecap:round;display:inline;fill:none"/>
</g>
<g id="layer9" style="display:none">
<path id="hood" style="stroke-linejoin:round;stroke:#004d40;stroke-linecap:round;display:inline;fill:none" d="m219.65 155.89c-21.26-.94-58.87 17.9-62.59 26.63-3.97 9.31 3.64 14.61 3.19 21.42-.59 8.74-34.26 18.34-37.08 25.01 4.78 8.84 14.84 36.21 11.29 50.99-1.03 3.77-3.54 6.31-6.81 7.89 11.03-1.7 23.72-4.88 34.77-5.32 23.12-.90 37.3 3.12 51.24 7.59 13.93 4.47 42.05 6.72 49.77 5.45.16-.02.27-.05.42-.08 2.5-15.72 8.98-29.92 10.66-45.66 1.67-15.73 11.83-47.98-3.22-65.72-15.05-17.75-30.38-27.26-51.64-28.2z"/>
</g>
<g id="layer11" style="display:none">
<path id="hoard" style="stroke-linejoin:round;stroke:#80deea;stroke-linecap:round;display:inline;fill:none" d="m225.65 175.89c-22.43-2.73-60.12-1.23-66.59 10.63-6.47 11.85 3.92 22.64 3.19 29.42-.59 5.43-36.26 6.34-39.08 13.01 4.78 8.84 14.84 36.21 11.29 50.99-1.03 3.77-3.54 6.31-6.81 7.89 11.03-1.7 23.72-4.88 34.77-5.32 23.12-.90 37.3 3.12 51.24 7.59 13.93 4.47 42.05 6.72 49.77 5.45.16-.02.27-.05.42-.08 7.35-14.26 12.91-23.36 16.66-31.66 3.74-8.29 12.18-36.53-1.22-53.72-13.4-17.2-31.21-31.47-53.64-34.2z"/>
</g>
<g id="layer12" style="display:none">
<path id="hard" d="m227.65 191.89c-20.8-2.98-73.03 5.53-76.59 12.63-3.56 7.09 4.57 12.49 1.19 17.42-3.39 4.94-26.26.34-29.08 7.01 4.78 8.84 14.84 36.21 11.29 50.99-1.03 3.77-3.54 6.31-6.81 7.89 11.03-1.7 23.72-4.88 34.77-5.32 23.12-.90 37.3 3.12 51.24 7.59 13.93 4.47 42.05 6.72 49.77 5.45.16-.02.27-.05.42-.08 6.02-10.64 13.86-15.38 18.66-25.66 4.79-10.27 15.97-30.43 2.78-45.72-13.19-15.3-36.83-29.23-57.64-32.2z" style="stroke-linejoin:round;stroke:#e65100;stroke-linecap:round;display:inline;fill:none"/>
</g>
<g id="layer13" style="display:none">
<path id="heard" style="stroke-linejoin:round;stroke:#827717;stroke-linecap:round;display:inline;fill:none" d="m197.65 191.89c-19.7-.21-59.03 15.53-62.59 22.63-3.56 7.09 6.57 6.49 3.19 11.42-3.39 4.94-12.26-3.66-15.08 3.01 4.78 8.84 14.84 36.21 11.29 50.99-1.03 3.77-3.54 6.31-6.81 7.89 11.03-1.7 23.72-4.88 34.77-5.32 23.12-.90 37.3 3.12 51.24 7.59 13.93 4.47 42.05 6.72 49.77 5.45.16-.02.27-.05.42-.08 6.02-10.64 8.59-22.99 10.66-33.66 2.06-10.66 1.97-36.43-11.22-51.72-13.19-15.3-45.94-17.99-65.64-18.2z"/>
</g>
</svg>
