<?xml version="1.0" encoding="UTF-8" standalone="no"?>
<svg
   xmlns:dc="http://purl.org/dc/elements/1.1/"
   xmlns:cc="http://creativecommons.org/ns#"
   xmlns:rdf="http://www.w3.org/1999/02/22-rdf-syntax-ns#"
   xmlns:svg="http://www.w3.org/2000/svg"
   xmlns="http://www.w3.org/2000/svg"
   xmlns:sodipodi="http://sodipodi.sourceforge.net/DTD/sodipodi-0.dtd"
   xmlns:inkscape="http://www.inkscape.org/namespaces/inkscape"
   viewBox="0 0 512 512"
   class="avatar-calvin"
   id="svg6452"
   version="1.1"
   inkscape:version="0.91 r13725"
   sodipodi:docname="calvin.svg">
  <metadata
     id="metadata6484">
    <rdf:RDF>
      <cc:Work
         rdf:about="">
        <dc:format>image/svg+xml</dc:format>
        <dc:type
           rdf:resource="http://purl.org/dc/dcmitype/StillImage" />
        <dc:title></dc:title>
      </cc:Work>
    </rdf:RDF>
  </metadata>
  <defs
     id="defs6482" />
  <sodipodi:namedview
     pagecolor="#ffffff"
     bordercolor="#666666"
     borderopacity="1"
     objecttolerance="10"
     gridtolerance="10"
     guidetolerance="10"
     inkscape:pageopacity="0"
     inkscape:pageshadow="2"
     inkscape:window-width="1366"
     inkscape:window-height="719"
     id="namedview6480"
     showgrid="false"
     inkscape:zoom="0.64992187"
     inkscape:cx="62.392114"
     inkscape:cy="267.35521"
     inkscape:window-x="0"
     inkscape:window-y="25"
     inkscape:window-maximized="1"
     inkscape:current-layer="svg6452" />
  <path
     inkscape:connector-curvature="0"
     id="path6456"
     class="arms"
     d="M 101.71429,496.3622 L 118.74903,417.96242 L 135.42995,350.42384 L 213.14286,333.50499 L 264.57143,324.93356 L 298.85714,333.50499 L 375.99999,350.64785 L 393.14285,419.21927 L 410.2857,496.3622 L 264.57143,496.3622 Z"
     style="fill:#f44336" />
  <path
     inkscape:connector-curvature="0"
     id="path6458"
     class="chest"
     d="M 155.04696,496.3622 L 170.28572,402.07641 L 187.42857,367.7907 L 213.14286,333.50499 L 264.57143,319.98836 L 298.85714,333.50499 L 324.57142,367.7907 L 341.71428,402.07641 L 358.85713,496.3622 L 265.52348,496.3622 Z"
     style="fill:#d32f2f" />
  <path
     inkscape:connector-curvature="0"
     id="path6460"
     class="neck"
     d="M 213.14286,294.93356 L 298.85714,294.93356 L 298.85714,342.07642 L 256,410.64784 L 213.14286,342.07642 Z"
     style="fill:#ffa000" />
  <path
     inkscape:connector-curvature="0"
     id="path6462"
     class="head"
     d="M 367.42856,204.93357 L 350.28571,256.36214 L 324.57142,282.07642 L 303.14285,303.50499 L 281.71428,312.07642 L 230.28571,312.07642 L 208.85714,303.50499 L 187.42857,282.07642 L 161.71429,252.07642 L 144.57143,204.93361 L 153.14286,153.505 L 170.28572,102.07643 L 256,84.93358 L 341.71428,102.07643 L 358.85713,153.505 Z"
     style="fill:#ffc107" />
  <path
     inkscape:connector-curvature="0"
     id="path6464"
     class="eye eye-right"
     d="M 230.28571,172.79071 A 17.142853,19.285721 0 0 1 213.14285,192.07643 A 17.142853,19.285721 0 0 1 196,172.79071 A 17.142853,19.285721 0 0 1 213.14285,153.50499 A 17.142853,19.285721 0 0 1 230.28571,172.79071 Z"
     style="fill:#263238" />
  <path
     inkscape:connector-curvature="0"
     id="path6466"
     class="eye eye-left"
     d="M 316,172.79071 A 17.142853,19.285721 0 0 1 298.85715,192.07643 A 17.142853,19.285721 0 0 1 281.71429,172.79071 A 17.142853,19.285721 0 0 1 298.85715,153.50499 A 17.142853,19.285721 0 0 1 316,172.79071 Z"
     style="fill:#263238" />
  <path
     inkscape:connector-curvature="0"
     id="path6468"
     class="ear"
     d="M 110.28572,179.21929 L 118.85715,222.07643 L 144.57143,247.79071 L 153.14286,247.79071 L 170.28572,196.36214 L 144.57143,162.07643 L 118.85715,162.07643 Z"
     style="fill:#ffc107" />
  <path
     inkscape:connector-curvature="0"
     id="path6470"
     class="ear-hole"
     d="M 136.00001,222.07643 L 144.57143,213.505 L 144.57143,196.36214 L 144.57143,187.79071 L 136.00001,179.21929 L 127.42858,196.36214 Z"
     style="fill:#ffa000" />
  <path
     inkscape:connector-curvature="0"
     id="path6472"
     class="ear"
     d="M 401.71427,179.21929 L 393.14285,222.07643 L 367.42856,247.79071 L 358.85713,247.79071 L 341.71428,196.36214 L 367.42856,162.07643 L 393.14285,162.07643 Z"
     style="fill:#ffc107" />
  <path
     inkscape:connector-curvature="0"
     id="path6474"
     class="ear-hole"
     d="M 375.99999,222.07643 L 367.42856,213.505 L 367.42856,196.36214 L 367.42856,187.79071 L 375.99999,179.21929 L 384.57142,196.36214 Z"
     style="fill:#ffa000" />
  <path
     inkscape:connector-curvature="0"
     id="path6476"
     class="hair"
     d="M 153.14286,204.93357 L 153.14286,162.07643 L 161.71429,136.36215 L 178.85715,110.64786 L 213.14286,119.21929 L 228.69261,102.07643 L 256,119.21929 L 281.71428,102.07643 L 298.85714,119.21929 L 333.14285,110.64786 L 350.28571,136.36215 L 358.85713,162.07643 L 359.42856,204.93357 L 384.57142,119.21929 L 358.85713,33.50501 L 333.14285,67.79072 L 315.99999,16.36215 L 290.28571,42.07644 L 256,16.36215 L 221.71429,42.07644 L 196,16.36215 L 178.85715,67.79072 L 153.14286,33.50501 L 127.42858,119.21929 Z"
     style="fill:#3e2723" />
  <path
     inkscape:connector-curvature="0"
     id="path6478"
     class="lips"
     d="M 221.71429,256.36214 L 226,247.79071 L 256,252.07642 L 286,247.79071 L 290.28571,256.36214 L 267.42857,273.50502 L 244.57142,273.50502 Z"
     style="fill:#ffa000" />
</svg>
