<?xml version="1.0" encoding="UTF-8" standalone="no"?>
<svg
   xmlns:dc="http://purl.org/dc/elements/1.1/"
   xmlns:cc="http://creativecommons.org/ns#"
   xmlns:rdf="http://www.w3.org/1999/02/22-rdf-syntax-ns#"
   xmlns:svg="http://www.w3.org/2000/svg"
   xmlns="http://www.w3.org/2000/svg"
   xmlns:sodipodi="http://sodipodi.sourceforge.net/DTD/sodipodi-0.dtd"
   xmlns:inkscape="http://www.inkscape.org/namespaces/inkscape"
   viewBox="0 0 512 512"
   class="avatar-mark"
   id="svg4208"
   version="1.1"
   inkscape:version="0.91 r13725"
   sodipodi:docname="mark.svg">
  <metadata
     id="metadata4240">
    <rdf:RDF>
      <cc:Work
         rdf:about="">
        <dc:format>image/svg+xml</dc:format>
        <dc:type
           rdf:resource="http://purl.org/dc/dcmitype/StillImage" />
        <dc:title></dc:title>
      </cc:Work>
    </rdf:RDF>
  </metadata>
  <defs
     id="defs4238" />
  <sodipodi:namedview
     pagecolor="#ffffff"
     bordercolor="#666666"
     borderopacity="1"
     objecttolerance="10"
     gridtolerance="10"
     guidetolerance="10"
     inkscape:pageopacity="0"
     inkscape:pageshadow="2"
     inkscape:window-width="1366"
     inkscape:window-height="719"
     id="namedview4236"
     showgrid="false"
     inkscape:zoom="0.70229388"
     inkscape:cx="310.40631"
     inkscape:cy="143.13278"
     inkscape:window-x="0"
     inkscape:window-y="25"
     inkscape:window-maximized="1"
     inkscape:current-layer="svg4208"
     inkscape:snap-bbox="true"
     inkscape:bbox-nodes="true" />
  <path
     id="path8219"
     d="M 101.71429,496.3622 L 118.74905,418.22646 L 135.42996,350.91533 L 213.14287,334.05347 L 264.57144,325.51091 L 298.85714,334.05347 L 376.00001,351.13859 L 393.14286,419.47906 L 410.2857,496.3622 L 264.57144,496.3622 Z"
     style="opacity:1;fill:#03a9f4;fill-opacity:1;stroke:none;stroke-width:4;stroke-linecap:round;stroke-linejoin:round;stroke-miterlimit:4;stroke-dasharray:none;stroke-opacity:1"
     inkscape:connector-curvature="0"
     class="arms" />
  <path
     id="path8221"
     d="M 155.04696,496.3622 L 170.28572,402.39394 L 187.42857,368.22371 L 213.14287,334.05347 L 264.57144,320.58237 L 298.85714,334.05347 L 324.57142,368.22371 L 341.71429,402.39394 L 358.85714,496.3622 L 265.52349,496.3622 Z"
     style="opacity:1;fill:#01579b;fill-opacity:1;stroke:none;stroke-width:4;stroke-linecap:round;stroke-linejoin:round;stroke-miterlimit:4;stroke-dasharray:none;stroke-opacity:1"
     inkscape:connector-curvature="0"
     class="chest" />
  <path
     id="path8223"
     d="M 213.14287,295.61196 L 298.85714,295.61196 L 298.85714,342.59603 L 256.00001,410.9365 L 213.14287,342.59603 Z"
     style="opacity:1;fill:#f8bbd0;fill-opacity:1;stroke:none;stroke-width:2;stroke-linecap:round;stroke-linejoin:round;stroke-miterlimit:4;stroke-dasharray:none;stroke-opacity:1"
     inkscape:connector-curvature="0"
     class="neck" />
  <path
     sodipodi:nodetypes="cccccccccccccccc"
     id="path8225"
     d="M 367.42855,205.91507 L 350.2857,257.17042 L 324.57142,282.7981 L 303.14285,304.15452 L 281.71429,312.69706 L 230.28572,312.69706 L 208.85715,304.15452 L 187.42857,282.7981 L 161.71429,252.89914 L 144.57144,205.91511 L 153.14287,154.65972 L 170.28572,95.923131 L 256.00001,78.838013 L 341.71429,95.923131 L 358.85714,154.65972 Z"
     style="opacity:1;fill:#ffcdd2;fill-opacity:1;stroke:none;stroke-width:2;stroke-linecap:round;stroke-linejoin:round;stroke-miterlimit:4;stroke-dasharray:none;stroke-opacity:1"
     inkscape:connector-curvature="0"
     class="head" />
  <path
     style="opacity:1;fill:#3e2723;fill-opacity:1;stroke:none;stroke-width:4;stroke-linecap:round;stroke-linejoin:round;stroke-miterlimit:4;stroke-dasharray:none;stroke-opacity:1"
     d="M 230.28572,173.88047 A 17.142853,19.220767 0 0 1 213.14286,193.10123 A 17.142853,19.220767 0 0 1 196.00001,173.88047 A 17.142853,19.220767 0 0 1 213.14286,154.6597 A 17.142853,19.220767 0 0 1 230.28572,173.88047 Z"
     id="path8227"
     inkscape:connector-curvature="0"
     class="eye" />
  <path
     style="opacity:1;fill:#3e2723;fill-opacity:1;stroke:none;stroke-width:4;stroke-linecap:round;stroke-linejoin:round;stroke-miterlimit:4;stroke-dasharray:none;stroke-opacity:1"
     d="M 316.00001,173.88047 A 17.142853,19.220767 0 0 1 298.85716,193.10123 A 17.142853,19.220767 0 0 1 281.71429,173.88047 A 17.142853,19.220767 0 0 1 298.85716,154.6597 A 17.142853,19.220767 0 0 1 316.00001,173.88047 Z"
     id="path8229"
     inkscape:connector-curvature="0"
     class="eye" />
  <path
     id="path8231"
     d="M 117.63268,172.80616 L 126.2041,215.51895 L 151.91838,241.14663 L 160.48981,241.14663 L 177.63266,189.89128 L 151.91838,155.72104 L 126.2041,155.72104 Z"
     style="opacity:1;fill:#ffcdd2;fill-opacity:1;stroke:none;stroke-width:4;stroke-linecap:round;stroke-linejoin:round;stroke-miterlimit:4;stroke-dasharray:none;stroke-opacity:1"
     inkscape:connector-curvature="0"
     class="ear" />
  <path
     id="path8233"
     d="M 143.34696,215.51895 L 151.91838,206.9764 L 151.91838,189.89128 L 151.91838,181.34872 L 143.34696,172.80616 L 134.77553,189.89128 Z"
     style="opacity:1;fill:#f8bbd0;fill-opacity:1;stroke:none;stroke-width:4;stroke-linecap:round;stroke-linejoin:round;stroke-miterlimit:4;stroke-dasharray:none;stroke-opacity:1"
     inkscape:connector-curvature="0"
     class="ear-hole" />
  <path
     style="opacity:1;fill:#ffcdd2;fill-opacity:1;stroke:none;stroke-width:4;stroke-linecap:round;stroke-linejoin:round;stroke-miterlimit:4;stroke-dasharray:none;stroke-opacity:1"
     d="M 394.36733,172.80616 L 385.79592,215.51895 L 360.08162,241.14663 L 351.5102,241.14663 L 334.36735,189.89128 L 360.08162,155.72104 L 385.79592,155.72104 Z"
     id="path8235"
     inkscape:connector-curvature="0"
     class="ear" />
  <path
     style="opacity:1;fill:#f8bbd0;fill-opacity:1;stroke:none;stroke-width:4;stroke-linecap:round;stroke-linejoin:round;stroke-miterlimit:4;stroke-dasharray:none;stroke-opacity:1"
     d="M 368.65307,215.51895 L 360.08162,206.9764 L 360.08162,189.89128 L 360.08162,181.34872 L 368.65307,172.80616 L 377.22448,189.89128 Z"
     id="path8237"
     inkscape:connector-curvature="0"
     class="ear-hole" />
  <path
     sodipodi:nodetypes="cccccccccccccccccccccccccc"
     d="M 366.20406,167.60343 L 358.8571,163.20228 L 350.28569,137.5746 L 329.46937,130.19726 L 300.08162,92.791094 L 292.73468,122.71603 L 255.99997,120.48948 L 226.61224,122.71603 L 213.14284,120.48948 L 178.85712,111.9469 L 175.18367,122.71603 L 160.48979,137.6785 L 160.48979,160.1222 L 153.14286,167.60343 L 138.44898,115.23479 L 153.14286,85.30986 L 175.18367,70.347393 L 160.48979,47.903692 L 221.71425,43.606453 L 255.99999,40.422459 L 290.28569,43.606453 L 314.77549,47.903692 L 333.14282,69.234129 L 358.85712,85.30986 L 373.551,115.23479 Z"
     style="fill:#ff9800;fill-rule:evenodd;stroke:none;stroke-width:1px;stroke-linecap:butt;stroke-linejoin:miter;stroke-opacity:1"
     inkscape:connector-curvature="0"
     class="hair" />
  <path
     style="opacity:1;fill:#f8bbd0;fill-opacity:1;stroke:none;stroke-width:8;stroke-linecap:round;stroke-linejoin:round;stroke-miterlimit:4;stroke-dasharray:none;stroke-opacity:1"
     d="M 221.71429,257.17042 L 226,248.62786 L 256.00001,252.89914 L 286,248.62786 L 290.28572,257.17042 L 267.42857,274.25558 L 244.57142,274.25558 Z"
     id="path8241"
     inkscape:connector-curvature="0"
     class="lips" />
</svg>
